{
.appVersion = "1352";
DisplayStrings = (
"&/ampersand.ss01"
);
copyright = "Copyright 2013-2021 The Kings Project Authors (https://github.com/googlefonts/kings)";
customParameters = (
{
name = panose;
value = (
2,
0,
5,
3,
7,
0,
0,
2,
0,
4
);
},
{
name = blueScale;
value = 0.21129;
},
{
name = licenseURL;
value = "https://scripts.sil.org/OFL";
},
{
name = license;
value = "This Font Software is licensed under the SIL Open Font License, Version 1.1. This license is available with a FAQ at: https://scripts.sil.org/OFL";
},
{
name = vendorID;
value = GOOG;
},
{
name = "Disable Subroutines";
value = 1;
},
{
name = glyphOrder;
value = (
.notdef,
CR,
NULL,
space,
nbspace
);
},
{
name = fsType;
value = (
);
},
{
name = "Use Typo Metrics";
value = 1;
},
{
name = Axes;
value = (
{
Name = Weight;
Tag = wght;
}
);
}
);
date = "2021-10-14 18:09:53 +0000";
designer = "Robert E. Leuschke";
designerURL = www.typesetit.com;
disablesNiceNames = 1;
familyName = Kings;
featurePrefixes = (
{
automatic = 1;
code = "languagesystem DFLT dflt;\012\012languagesystem latn dflt;\012languagesystem latn AZE;\012languagesystem latn CRT;\012languagesystem latn KAZ;\012languagesystem latn TAT;\012languagesystem latn TRK;\012languagesystem latn ROM;\012languagesystem latn MOL;\012languagesystem latn CAT;\012";
name = Languagesystems;
}
);
features = (
{
automatic = 1;
code = "feature locl;\012feature sups;\012feature frac;\012feature ordn;\012feature salt;\012feature ss01;\012";
name = aalt;
},
{
automatic = 1;

glyphs = (
{
color = 3;
glyphname = .notdef;
lastChange = "2021-10-14 18:20:19 +0000";
layers = (
{
layerId = "C36B7B90-196F-45C3-8412-B02CF16DA361";
paths = (
{
closed = 1;
nodes = (
"469 0 LINE",
"478 8 LINE",
"478 621 LINE",
"469 630 LINE",
"48 630 LINE",
"40 620 LINE",
"40 9 LINE",
"48 0 LINE"
);
},
{
closed = 1;
nodes = (
"144 150 LINE",
"234 316 LINE",
"144 479 LINE",
"163 514 LINE",
"253 350 LINE",
"344 514 LINE",
"363 479 LINE",
"273 314 LINE",
"363 150 LINE",
"344 116 LINE",
"253 279 LINE",
"163 116 LINE"
);
},
{
closed = 1;
nodes = (
"57 16 LINE",
"57 613 LINE",
"461 613 LINE",
"461 16 LINE"
);
},
{
closed = 1;
nodes = (
"427 49 LINE",
"427 577 LINE",
"92 577 LINE",
"92 49 LINE"
);
}
);
width = 518;
}
);
note = .notdef;
},
{
color = 3;
glyphname = A;
lastChange = "2021-10-14 18:20:22 +0000";
layers = (
{
layerId = "C36B7B90-196F-45C3-8412-B02CF16DA361";
paths = (
{
closed = 1;
nodes = (
"358 14 LINE",
"349 14 OFFCURVE",
"339 13 OFFCURVE",
"328 13 CURVE SMOOTH",
"297 13 OFFCURVE",
"265 19 OFFCURVE",
"265 55 CURVE SMOOTH",
"265 72 OFFCURVE",
"272 96 OFFCURVE",
"290 129 CURVE SMOOTH",
"309 164 OFFCURVE",
"327 198 OFFCURVE",
"347 233 CURVE",
"365 233 OFFCURVE",
"386 232 OFFCURVE",
"411 232 CURVE SMOOTH",
"437 232 OFFCURVE",
"462 229 OFFCURVE",
"486 240 CURVE SMOOTH",
"504 249 OFFCURVE",
"536 268 OFFCURVE",
"546 287 CURVE SMOOTH",
"549 292 OFFCURVE",
"549 295 OFFCURVE",
"547 295 CURVE SMOOTH",
"546 295 OFFCURVE",
"545 295 OFFCURVE",
"543 293 CURVE SMOOTH",
"532 284 OFFCURVE",
"469 274 OFFCURVE",
"423 272 CURVE SMOOTH",
"367 269 LINE",
"415 349 OFFCURVE",
"464 429 OFFCURVE",
"516 511 CURVE",
"532 434 OFFCURVE",
"572 137 OFFCURVE",
"572 55 CURVE SMOOTH",
"572 11 OFFCURVE",
"514 15 OFFCURVE",
"487 16 CURVE",
"477 0 LINE",
"507 2 OFFCURVE",
"536 3 OFFCURVE",
"565 3 CURVE SMOOTH",
"598 3 OFFCURVE",
"631 2 OFFCURVE",
"666 0 CURVE SMOOTH",
"688 -1 OFFCURVE",
"698 1 OFFCURVE",
"728 1 CURVE SMOOTH",
"740 1 OFFCURVE",
"754 1 OFFCURVE",
"774 0 CURVE",
"783 16 LINE",
"776 16 OFFCURVE",
"768 15 OFFCURVE",
"759 15 CURVE SMOOTH",
"725 15 OFFCURVE",
"682 28 OFFCURVE",
"663 129 CURVE SMOOTH",
"635 279 OFFCURVE",
"622 418 OFFCURVE",
"610 571 CURVE SMOOTH",
"608 599 OFFCURVE",
"614 619 OFFCURVE",
"599 619 CURVE SMOOTH",
"568 618 OFFCURVE",
"543 618 OFFCURVE",
"514 617 CURVE SMOOTH",
"503 617 OFFCURVE",
"487 616 OFFCURVE",
"467 616 CURVE SMOOTH",
"437 616 OFFCURVE",
"398 617 OFFCURVE",
"347 620 CURVE",
"341 603 LINE",
"365 604 OFFCURVE",
"397 606 OFFCURVE",
"421 606 CURVE SMOOTH",
"459 605 OFFCURVE",
"471 589 OFFCURVE",
"471 567 CURVE SMOOTH",
"471 551 OFFCURVE",
"465 534 OFFCURVE",
"457 517 CURVE SMOOTH",
"439 479 OFFCURVE",
"375 369 OFFCURVE",
"313 266 CURVE",
"256 263 OFFCURVE",
"210 261 OFFCURVE",
"174 255 CURVE",
"163 252 OFFCURVE",
"138 241 OFFCURVE",
"138 235 CURVE SMOOTH",
"138 232 OFFCURVE",
"144 231 OFFCURVE",
"161 232 CURVE SMOOTH",
"193 234 OFFCURVE",
"217 235 OFFCURVE",
"240 235 CURVE SMOOTH",
"256 235 OFFCURVE",
"273 235 OFFCURVE",
"293 234 CURVE",
"256 172 OFFCURVE",
"220 115 OFFCURVE",
"198 84 CURVE SMOOTH",
"157 25 OFFCURVE",
"120 15 OFFCURVE",
"71 15 CURVE SMOOTH",
"53 15 OFFCURVE",
"33 16 OFFCURVE",
"11 17 CURVE",
"0 0 LINE",
"54 0 OFFCURVE",
"110 4 OFFCURVE",
"163 4 CURVE SMOOTH",
"176 4 OFFCURVE",
"189 4 OFFCURVE",
"201 3 CURVE SMOOTH",
"346 -3 LINE"
);
}
);
width = 771;
}
);
note = A;
unicode = 0041;
},
{
color = 3;
glyphname = AE;
lastChange = "2021-10-14 18:20:22 +0000";
layers = (
{
layerId = "C36B7B90-196F-45C3-8412-B02CF16DA361";
paths = (
{
closed = 1;
nodes = (
"846 -5 OFFCURVE",
"860 -3 OFFCURVE",
"868 2 CURVE SMOOTH",
"914 31 OFFCURVE",
"934 143 OFFCURVE",
"946 173 CURVE",
"947 178 OFFCURVE",
"943 184 OFFCURVE",
"939 184 CURVE SMOOTH",
"938 184 OFFCURVE",
"937 183 OFFCURVE",
"936 181 CURVE SMOOTH",
"897 93 OFFCURVE",
"825 33 OFFCURVE",
"725 33 CURVE SMOOTH",
"624 33 OFFCURVE",
"612 65 OFFCURVE",
"615 112 CURVE SMOOTH",
"621 190 OFFCURVE",
"625 236 OFFCURVE",
"632 295 CURVE",
"662 294 OFFCURVE",
"700 293 OFFCURVE",
"757 293 CURVE SMOOTH",
"783 293 OFFCURVE",
"809 298 OFFCURVE",
"832 309 CURVE SMOOTH",
"849 317 OFFCURVE",
"880 336 OFFCURVE",
"889 356 CURVE SMOOTH",
"892 361 OFFCURVE",
"892 364 OFFCURVE",
"890 364 CURVE SMOOTH",
"889 364 OFFCURVE",
"888 364 OFFCURVE",
"886 362 CURVE SMOOTH",
"874 353 OFFCURVE",
"813 342 OFFCURVE",
"768 340 CURVE SMOOTH",
"757 340 OFFCURVE",
"747 339 OFFCURVE",
"737 339 CURVE SMOOTH",
"701 339 OFFCURVE",
"669 342 OFFCURVE",
"638 340 CURVE",
"644 387 OFFCURVE",
"650 437 OFFCURVE",
"660 495 CURVE SMOOTH",
"674 580 OFFCURVE",
"727 585 OFFCURVE",
"794 585 CURVE SMOOTH",
"833 585 LINE SMOOTH",
"889 585 OFFCURVE",
"928 538 OFFCURVE",
"922 445 CURVE SMOOTH",
"921 435 OFFCURVE",
"926 430 OFFCURVE",
"930 430 CURVE SMOOTH",
"933 430 OFFCURVE",
"935 432 OFFCURVE",
"935 435 CURVE SMOOTH",
"939 489 OFFCURVE",
"938 512 OFFCURVE",
"943 559 CURVE SMOOTH",
"944 568 OFFCURVE",
"945 575 OFFCURVE",
"945 582 CURVE SMOOTH",
"945 614 OFFCURVE",
"931 625 OFFCURVE",
"895 623 CURVE SMOOTH",
"803 618 OFFCURVE",
"729 618 OFFCURVE",
"637 617 CURVE SMOOTH",
"594 616 OFFCURVE",
"551 616 OFFCURVE",
"507 616 CURVE SMOOTH",
"438 616 OFFCURVE",
"369 617 OFFCURVE",
"302 620 CURVE",
"297 621 OFFCURVE",
"293 616 OFFCURVE",
"293 611 CURVE SMOOTH",
"293 607 OFFCURVE",
"295 604 OFFCURVE",
"300 604 CURVE SMOOTH",
"302 604 LINE SMOOTH",
"327 604 OFFCURVE",
"352 606 OFFCURVE",
"376 606 CURVE SMOOTH",
"417 606 OFFCURVE",
"430 587 OFFCURVE",
"430 563 CURVE SMOOTH",
"430 549 OFFCURVE",
"425 533 OFFCURVE",
"419 518 CURVE SMOOTH",
"403 479 OFFCURVE",
"380 429 OFFCURVE",
"325 326 CURVE",
"270 323 OFFCURVE",
"223 321 OFFCURVE",
"187 316 CURVE",
"176 312 OFFCURVE",
"153 302 OFFCURVE",
"153 296 CURVE SMOOTH",
"153 293 OFFCURVE",
"160 291 OFFCURVE",
"177 292 CURVE SMOOTH",
"211 294 OFFCURVE",
"235 295 OFFCURVE",
"260 295 CURVE SMOOTH",
"275 295 OFFCURVE",
"290 294 OFFCURVE",
"308 294 CURVE",
"274 232 OFFCURVE",
"210 118 OFFCURVE",
"190 87 CURVE SMOOTH",
"152 27 OFFCURVE",
"110 16 OFFCURVE",
"56 16 CURVE SMOOTH",
"38 16 OFFCURVE",
"19 17 OFFCURVE",
"-2 18 CURVE SMOOTH",
"-9 18 OFFCURVE",
"-12 13 OFFCURVE",
"-12 9 CURVE SMOOTH",
"-12 5 OFFCURVE",
"-10 2 OFFCURVE",
"-6 2 CURVE SMOOTH",
"-5 2 LINE SMOOTH",
"39 4 OFFCURVE",
"85 5 OFFCURVE",
"130 5 CURVE SMOOTH",
"154 5 OFFCURVE",
"178 5 OFFCURVE",
"200 4 CURVE SMOOTH",
"228 3 OFFCURVE",
"278 2 OFFCURVE",
"344 -1 CURVE",
"350 -3 OFFCURVE",
"361 9 OFFCURVE",
"361 13 CURVE SMOOTH",
"361 14 OFFCURVE",
"360 15 OFFCURVE",
"359 15 CURVE SMOOTH",
"356 15 LINE SMOOTH",
"347 15 OFFCURVE",
"337 14 OFFCURVE",
"326 14 CURVE SMOOTH",
"294 14 OFFCURVE",
"259 21 OFFCURVE",
"259 62 CURVE SMOOTH",
"259 78 OFFCURVE",
"265 101 OFFCURVE",
"279 131 CURVE SMOOTH",
"295 166 OFFCURVE",
"344 259 OFFCURVE",
"361 293 CURVE",
"389 292 OFFCURVE",
"500 298 OFFCURVE",
"538 298 CURVE",
"530 243 OFFCURVE",
"520 184 OFFCURVE",
"507 131 CURVE SMOOTH",
"483 30 OFFCURVE",
"464 18 OFFCURVE",
"451 18 CURVE SMOOTH",
"448 18 OFFCURVE",
"445 19 OFFCURVE",
"443 19 CURVE SMOOTH",
"438 19 OFFCURVE",
"430 10 OFFCURVE",
"430 5 CURVE SMOOTH",
"430 3 OFFCURVE",
"431 2 OFFCURVE",
"433 2 CURVE SMOOTH",
"434 2 LINE SMOOTH",
"449 2 OFFCURVE",
"459 1 OFFCURVE",
"466 1 CURVE SMOOTH",
"488 1 OFFCURVE",
"477 3 OFFCURVE",
"500 4 CURVE SMOOTH",
"543 5 OFFCURVE",
"576 7 OFFCURVE",
"611 7 CURVE SMOOTH",
"630 7 OFFCURVE",
"650 7 OFFCURVE",
"672 5 CURVE SMOOTH",
"743 0 OFFCURVE",
"793 -5 OFFCURVE",
"825 -5 CURVE SMOOTH"
);
},
{
closed = 1;
nodes = (
"421 409 OFFCURVE",
"418 399 OFFCURVE",
"462 483 CURVE SMOOTH",
"488 529 OFFCURVE",
"520 590 OFFCURVE",
"540 590 CURVE SMOOTH",
"553 590 OFFCURVE",
"561 565 OFFCURVE",
"559 497 CURVE SMOOTH",
"558 470 OFFCURVE",
"552 404 OFFCURVE",
"544 336 CURVE",
"521 336 OFFCURVE",
"435 332 OFFCURVE",
"380 329 CURVE"
);
}
);
width = 931;
}
);
note = AE;
unicode = 00C6;
},
{
color = 3;
glyphname = B;
lastChange = "2021-10-14 18:20:22 +0000";
layers = (
{
layerId = "C36B7B90-196F-45C3-8412-B02CF16DA361";
paths = (
{
closed = 1;
nodes = (
"429 -12 OFFCURVE",
"465 23 OFFCURVE",
"489 39 CURVE SMOOTH",
"566 93 LINE SMOOTH",
"607 121 OFFCURVE",
"625 157 OFFCURVE",
"625 192 CURVE SMOOTH",
"625 229 OFFCURVE",
"606 265 OFFCURVE",
"572 294 CURVE SMOOTH",
"530 330 OFFCURVE",
"463 355 OFFCURVE",
"414 354 CURVE",
"433 364 OFFCURVE",
"456 374 OFFCURVE",
"465 379 CURVE SMOOTH",
"539 418 OFFCURVE",
"608 474 OFFCURVE",
"612 531 CURVE SMOOTH",
"618 608 OFFCURVE",
"547 624 OFFCURVE",
"471 624 CURVE SMOOTH",
"453 624 OFFCURVE",
"435 623 OFFCURVE",
"418 622 CURVE SMOOTH",
"383 619 OFFCURVE",
"344 616 OFFCURVE",
"320 616 CURVE SMOOTH",
"258 615 OFFCURVE",
"191 619 OFFCURVE",
"120 620 CURVE SMOOTH",
"102 619 LINE",
"92 603 LINE",
"115 603 LINE SMOOTH",
"143 603 OFFCURVE",
"195 602 OFFCURVE",
"211 599 CURVE SMOOTH",
"236 595 OFFCURVE",
"242 570 OFFCURVE",
"242 544 CURVE SMOOTH",
"242 527 OFFCURVE",
"239 510 OFFCURVE",
"238 498 CURVE SMOOTH",
"233 441 OFFCURVE",
"204 269 OFFCURVE",
"161 129 CURVE SMOOTH",
"130 27 OFFCURVE",
"129 15 OFFCURVE",
"54 15 CURVE SMOOTH",
"37 15 OFFCURVE",
"15 16 OFFCURVE",
"-11 16 CURVE",
"-14 17 OFFCURVE",
"-20 17 OFFCURVE",
"-20 17 CURVE",
"-31 0 LINE",
"-21 0 LINE SMOOTH",
"43 -1 OFFCURVE",
"117 2 OFFCURVE",
"145 3 CURVE SMOOTH",
"158 3 OFFCURVE",
"170 4 OFFCURVE",
"182 4 CURVE SMOOTH",
"244 4 OFFCURVE",
"299 -2 OFFCURVE",
"362 -7 CURVE SMOOTH"
);
},
{
closed = 1;
nodes = (
"320 22 OFFCURVE",
"264 46 OFFCURVE",
"263 104 CURVE SMOOTH",
"260 213 OFFCURVE",
"323 457 OFFCURVE",
"340 517 CURVE SMOOTH",
"356 576 OFFCURVE",
"397 603 OFFCURVE",
"434 603 CURVE SMOOTH",
"473 603 OFFCURVE",
"509 573 OFFCURVE",
"509 518 CURVE SMOOTH",
"509 513 OFFCURVE",
"508 509 OFFCURVE",
"508 504 CURVE SMOOTH",
"501 443 OFFCURVE",
"454 370 OFFCURVE",
"359 344 CURVE SMOOTH",
"352 342 OFFCURVE",
"347 338 OFFCURVE",
"347 335 CURVE SMOOTH",
"347 333 OFFCURVE",
"349 332 OFFCURVE",
"353 332 CURVE SMOOTH",
"355 332 LINE SMOOTH",
"420 338 OFFCURVE",
"479 282 OFFCURVE",
"507 220 CURVE SMOOTH",
"516 200 OFFCURVE",
"521 178 OFFCURVE",
"521 156 CURVE SMOOTH",
"521 111 OFFCURVE",
"501 66 OFFCURVE",
"458 41 CURVE SMOOTH",
"436 29 OFFCURVE",
"406 22 OFFCURVE",
"376 22 CURVE SMOOTH"
);
}
);
width = 631;
}
);
note = B;
unicode = 0042;
},
{
color = 3;
glyphname = C;
lastChange = "2021-10-14 18:20:22 +0000";
layers = (
{
layerId = "C36B7B90-196F-45C3-8412-B02CF16DA361";
paths = (
{
closed = 1;
nodes = (
"354 -16 OFFCURVE",
"400 -11 OFFCURVE",
"442 0 CURVE SMOOTH",
"484 11 OFFCURVE",
"506 39 OFFCURVE",
"530 73 CURVE SMOOTH",
"552 106 OFFCURVE",
"623 179 OFFCURVE",
"623 179 CURVE",
"615 192 LINE",
"602 177 OFFCURVE",
"590 162 OFFCURVE",
"575 149 CURVE SMOOTH",
"517 97 OFFCURVE",
"425 65 OFFCURVE",
"351 65 CURVE SMOOTH",
"192 65 OFFCURVE",
"118 144 OFFCURVE",
"118 276 CURVE SMOOTH",
"118 284 OFFCURVE",
"118 293 OFFCURVE",
"119 302 CURVE SMOOTH",
"131 466 OFFCURVE",
"291 571 OFFCURVE",
"444 571 CURVE SMOOTH",
"497 571 OFFCURVE",
"574 570 OFFCURVE",
"569 498 CURVE SMOOTH",
"567 474 OFFCURVE",
"546 419 OFFCURVE",
"546 419 CURVE",
"558 410 LINE",
"588 489 LINE SMOOTH",
"596 510 OFFCURVE",
"604 531 OFFCURVE",
"613 551 CURVE SMOOTH",
"617 560 OFFCURVE",
"619 568 OFFCURVE",
"619 578 CURVE SMOOTH",
"619 628 OFFCURVE",
"550 635 OFFCURVE",
"514 635 CURVE SMOOTH",
"510 635 LINE SMOOTH",
"310 625 OFFCURVE",
"50 468 OFFCURVE",
"34 241 CURVE SMOOTH",
"31 204 OFFCURVE",
"37 166 OFFCURVE",
"51 133 CURVE SMOOTH",
"94 27 OFFCURVE",
"200 -16 OFFCURVE",
"311 -16 CURVE SMOOTH"
);
}
);
width = 583;
}
);
note = C;
unicode = 0043;
},
{
color = 3;
glyphname = D;
lastChange = "2021-10-14 18:20:22 +0000";
layers = (
{
layerId = "C36B7B90-196F-45C3-8412-B02CF16DA361";
paths = (
{
closed = 1;
nodes = (
"446 -9 OFFCURVE",
"505 8 OFFCURVE",
"587 83 CURVE SMOOTH",
"663 153 LINE SMOOTH",
"714 200 OFFCURVE",
"763 280 OFFCURVE",
"763 372 CURVE SMOOTH",
"763 426 OFFCURVE",
"747 483 OFFCURVE",
"705 540 CURVE SMOOTH",
"653 611 OFFCURVE",
"588 628 OFFCURVE",
"519 628 CURVE SMOOTH",
"461 628 OFFCURVE",
"400 616 OFFCURVE",
"341 616 CURVE SMOOTH",
"320 616 LINE SMOOTH",
"258 615 OFFCURVE",
"191 619 OFFCURVE",
"118 620 CURVE SMOOTH",
"100 619 LINE",
"90 603 LINE",
"113 603 LINE SMOOTH",
"140 603 OFFCURVE",
"194 602 OFFCURVE",
"211 599 CURVE SMOOTH",
"236 595 OFFCURVE",
"242 570 OFFCURVE",
"242 544 CURVE SMOOTH",
"242 527 OFFCURVE",
"239 510 OFFCURVE",
"238 498 CURVE SMOOTH",
"233 441 OFFCURVE",
"204 269 OFFCURVE",
"161 129 CURVE SMOOTH",
"130 27 OFFCURVE",
"129 15 OFFCURVE",
"54 15 CURVE SMOOTH",
"37 15 OFFCURVE",
"15 16 OFFCURVE",
"-11 16 CURVE",
"-14 17 OFFCURVE",
"-24 17 OFFCURVE",
"-24 17 CURVE",
"-35 0 LINE",
"-16 0 LINE SMOOTH",
"47 0 OFFCURVE",
"117 2 OFFCURVE",
"145 3 CURVE SMOOTH",
"166 3 OFFCURVE",
"182 3 OFFCURVE",
"190 2 CURVE",
"267 0 OFFCURVE",
"324 -9 OFFCURVE",
"376 -9 CURVE SMOOTH"
);
},
{
closed = 1;
nodes = (
"322 32 OFFCURVE",
"272 60 OFFCURVE",
"272 147 CURVE SMOOTH",
"272 164 OFFCURVE",
"274 182 OFFCURVE",
"278 203 CURVE SMOOTH",
"287 258 OFFCURVE",
"313 442 OFFCURVE",
"355 536 CURVE SMOOTH",
"375 581 OFFCURVE",
"408 599 OFFCURVE",
"445 599 CURVE SMOOTH",
"471 599 OFFCURVE",
"498 590 OFFCURVE",
"524 575 CURVE SMOOTH",
"612 523 OFFCURVE",
"657 430 OFFCURVE",
"657 334 CURVE SMOOTH",
"657 243 OFFCURVE",
"618 150 OFFCURVE",
"537 85 CURVE SMOOTH",
"508 61 OFFCURVE",
"440 32 OFFCURVE",
"380 32 CURVE SMOOTH"
);
}
);
width = 755;
}
);
note = D;
unicode = 0044;
},
{
color = 3;
glyphname = Eth;
lastChange = "2021-10-14 18:20:22 +0000";
layers = (
{
layerId = "C36B7B90-196F-45C3-8412-B02CF16DA361";
paths = (
{
closed = 1;
nodes = (
"446 -9 OFFCURVE",
"505 8 OFFCURVE",
"587 83 CURVE SMOOTH",
"663 153 LINE SMOOTH",
"714 200 OFFCURVE",
"763 280 OFFCURVE",
"763 372 CURVE SMOOTH",
"763 426 OFFCURVE",
"747 483 OFFCURVE",
"705 540 CURVE SMOOTH",
"653 611 OFFCURVE",
"588 628 OFFCURVE",
"519 628 CURVE SMOOTH",
"461 628 OFFCURVE",
"400 616 OFFCURVE",
"341 616 CURVE SMOOTH",
"320 616 LINE SMOOTH",
"258 615 OFFCURVE",
"191 619 OFFCURVE",
"118 620 CURVE SMOOTH",
"100 619 LINE",
"90 603 LINE",
"113 603 LINE SMOOTH",
"140 603 OFFCURVE",
"194 602 OFFCURVE",
"211 599 CURVE SMOOTH",
"236 595 OFFCURVE",
"242 570 OFFCURVE",
"242 544 CURVE SMOOTH",
"242 527 OFFCURVE",
"239 510 OFFCURVE",
"238 498 CURVE SMOOTH",
"233 441 OFFCURVE",
"204 269 OFFCURVE",
"161 129 CURVE SMOOTH",
"130 27 OFFCURVE",
"129 15 OFFCURVE",
"54 15 CURVE SMOOTH",
"37 15 OFFCURVE",
"15 16 OFFCURVE",
"-11 16 CURVE",
"-14 17 OFFCURVE",
"-24 17 OFFCURVE",
"-24 17 CURVE",
"-35 0 LINE",
"-16 0 LINE SMOOTH",
"47 0 OFFCURVE",
"117 2 OFFCURVE",
"145 3 CURVE SMOOTH",
"166 3 OFFCURVE",
"182 3 OFFCURVE",
"190 2 CURVE",
"267 0 OFFCURVE",
"324 -9 OFFCURVE",
"376 -9 CURVE SMOOTH"
);
},
{
closed = 1;
nodes = (
"341 204 LINE SMOOTH",
"347 204 OFFCURVE",
"367 238 OFFCURVE",
"357 238 CURVE SMOOTH",
"114 238 LINE SMOOTH",
"109 238 OFFCURVE",
"92 204 OFFCURVE",
"97 204 CURVE SMOOTH"
);
},
{
closed = 1;
nodes = (
"314 30 OFFCURVE",
"286 36 OFFCURVE",
"268 50 CURVE",
"266 58 OFFCURVE",
"265 70 OFFCURVE",
"265 84 CURVE SMOOTH",
"265 113 OFFCURVE",
"269 154 OFFCURVE",
"278 203 CURVE SMOOTH",
"287 258 OFFCURVE",
"313 442 OFFCURVE",
"355 536 CURVE SMOOTH",
"375 581 OFFCURVE",
"408 599 OFFCURVE",
"445 599 CURVE SMOOTH",
"471 599 OFFCURVE",
"498 590 OFFCURVE",
"524 575 CURVE SMOOTH",
"612 523 OFFCURVE",
"657 430 OFFCURVE",
"657 334 CURVE SMOOTH",
"657 243 OFFCURVE",
"618 150 OFFCURVE",
"537 85 CURVE SMOOTH",
"506 60 OFFCURVE",
"416 30 OFFCURVE",
"345 30 CURVE SMOOTH"
);
}
);
width = 755;
}
);
unicode = 00D0;
},
{
color = 3;
glyphname = E;
lastChange = "2021-10-14 18:20:22 +0000";
layers = (
{
layerId = "C36B7B90-196F-45C3-8412-B02CF16DA361";
paths = (
{
closed = 1;
nodes = (
"486 -7 OFFCURVE",
"499 -5 OFFCURVE",
"507 0 CURVE SMOOTH",
"556 31 OFFCURVE",
"587 146 OFFCURVE",
"601 176 CURVE",
"591 183 LINE",
"547 96 OFFCURVE",
"467 31 OFFCURVE",
"367 31 CURVE SMOOTH",
"282 31 OFFCURVE",
"261 54 OFFCURVE",
"261 89 CURVE SMOOTH",
"261 96 OFFCURVE",
"262 103 OFFCURVE",
"263 110 CURVE SMOOTH",
"274 189 OFFCURVE",
"283 248 OFFCURVE",
"294 308 CURVE",
"330 308 OFFCURVE",
"373 306 OFFCURVE",
"445 306 CURVE SMOOTH",
"463 306 OFFCURVE",
"479 307 OFFCURVE",
"495 315 CURVE SMOOTH",
"513 323 OFFCURVE",
"544 342 OFFCURVE",
"555 362 CURVE SMOOTH",
"559 368 OFFCURVE",
"558 372 OFFCURVE",
"552 368 CURVE SMOOTH",
"540 359 OFFCURVE",
"478 348 OFFCURVE",
"432 346 CURVE SMOOTH",
"383 344 OFFCURVE",
"339 341 OFFCURVE",
"300 339 CURVE",
"309 386 OFFCURVE",
"320 435 OFFCURVE",
"335 495 CURVE SMOOTH",
"360 596 OFFCURVE",
"428 582 OFFCURVE",
"515 584 CURVE SMOOTH",
"563 584 OFFCURVE",
"596 550 OFFCURVE",
"596 482 CURVE SMOOTH",
"596 473 OFFCURVE",
"595 463 OFFCURVE",
"594 453 CURVE SMOOTH",
"594 450 OFFCURVE",
"592 435 OFFCURVE",
"592 435 CURVE",
"606 426 LINE",
"606 426 OFFCURVE",
"608 442 OFFCURVE",
"609 446 CURVE SMOOTH",
"614 491 OFFCURVE",
"615 515 OFFCURVE",
"623 559 CURVE SMOOTH",
"625 570 OFFCURVE",
"626 580 OFFCURVE",
"626 587 CURVE SMOOTH",
"626 615 OFFCURVE",
"613 625 OFFCURVE",
"579 623 CURVE SMOOTH",
"479 618 OFFCURVE",
"401 616 OFFCURVE",
"299 616 CURVE SMOOTH",
"243 616 OFFCURVE",
"184 619 OFFCURVE",
"120 620 CURVE SMOOTH",
"101 619 LINE",
"91 603 LINE",
"113 603 LINE SMOOTH",
"140 603 OFFCURVE",
"194 602 OFFCURVE",
"210 599 CURVE SMOOTH",
"235 595 OFFCURVE",
"241 570 OFFCURVE",
"241 545 CURVE SMOOTH",
"241 528 OFFCURVE",
"239 510 OFFCURVE",
"237 498 CURVE SMOOTH",
"234 467 OFFCURVE",
"225 405 OFFCURVE",
"210 332 CURVE",
"201 331 OFFCURVE",
"191 331 OFFCURVE",
"187 329 CURVE",
"176 326 OFFCURVE",
"151 315 OFFCURVE",
"151 309 CURVE SMOOTH",
"151 306 OFFCURVE",
"157 305 OFFCURVE",
"174 306 CURVE SMOOTH",
"183 307 OFFCURVE",
"196 307 OFFCURVE",
"206 308 CURVE",
"194 250 OFFCURVE",
"178 187 OFFCURVE",
"161 129 CURVE SMOOTH",
"130 29 OFFCURVE",
"128 15 OFFCURVE",
"57 15 CURVE SMOOTH",
"37 15 OFFCURVE",
"12 16 OFFCURVE",
"-20 17 CURVE SMOOTH",
"-25 17 OFFCURVE",
"-35 7 OFFCURVE",
"-35 2 CURVE SMOOTH",
"-35 1 OFFCURVE",
"-34 0 OFFCURVE",
"-32 0 CURVE SMOOTH",
"-31 0 LINE SMOOTH",
"34 -1 OFFCURVE",
"115 2 OFFCURVE",
"144 3 CURVE SMOOTH",
"181 5 OFFCURVE",
"210 6 OFFCURVE",
"239 6 CURVE SMOOTH",
"262 6 OFFCURVE",
"285 5 OFFCURVE",
"312 3 CURVE SMOOTH",
"383 -2 OFFCURVE",
"432 -7 OFFCURVE",
"464 -7 CURVE SMOOTH"
);
}
);
width = 611;
}
);
note = E;
unicode = 0045;
},
{
color = 3;
glyphname = F;
lastChange = "2021-10-14 18:20:22 +0000";
layers = (
{
layerId = "C36B7B90-196F-45C3-8412-B02CF16DA361";
paths = (
{
closed = 1;
nodes = (
"-17 0 LINE SMOOTH",
"46 -1 OFFCURVE",
"117 2 OFFCURVE",
"145 3 CURVE SMOOTH",
"166 4 OFFCURVE",
"193 4 OFFCURVE",
"222 4 CURVE SMOOTH",
"279 4 OFFCURVE",
"345 3 OFFCURVE",
"388 0 CURVE SMOOTH",
"402 0 LINE",
"412 16 LINE",
"392 15 LINE SMOOTH",
"383 15 OFFCURVE",
"370 14 OFFCURVE",
"358 14 CURVE SMOOTH",
"336 14 OFFCURVE",
"312 15 OFFCURVE",
"302 17 CURVE SMOOTH",
"290 19 OFFCURVE",
"267 29 OFFCURVE",
"262 62 CURVE SMOOTH",
"261 69 OFFCURVE",
"260 77 OFFCURVE",
"260 86 CURVE SMOOTH",
"260 137 OFFCURVE",
"275 225 OFFCURVE",
"292 309 CURVE",
"325 308 OFFCURVE",
"368 306 OFFCURVE",
"440 306 CURVE SMOOTH",
"459 306 OFFCURVE",
"477 307 OFFCURVE",
"495 315 CURVE SMOOTH",
"512 324 OFFCURVE",
"545 342 OFFCURVE",
"555 362 CURVE",
"559 368 OFFCURVE",
"558 372 OFFCURVE",
"552 368 CURVE SMOOTH",
"541 359 OFFCURVE",
"477 348 OFFCURVE",
"432 346 CURVE SMOOTH",
"382 343 OFFCURVE",
"337 341 OFFCURVE",
"298 339 CURVE",
"315 418 OFFCURVE",
"331 489 OFFCURVE",
"340 517 CURVE SMOOTH",
"359 584 OFFCURVE",
"417 582 OFFCURVE",
"514 584 CURVE SMOOTH",
"562 584 OFFCURVE",
"596 549 OFFCURVE",
"596 480 CURVE SMOOTH",
"596 471 OFFCURVE",
"595 462 OFFCURVE",
"594 452 CURVE",
"593 449 OFFCURVE",
"591 433 OFFCURVE",
"591 433 CURVE",
"605 424 LINE",
"605 424 OFFCURVE",
"608 443 OFFCURVE",
"608 447 CURVE",
"615 492 OFFCURVE",
"615 516 OFFCURVE",
"623 559 CURVE SMOOTH",
"625 570 OFFCURVE",
"626 580 OFFCURVE",
"626 588 CURVE SMOOTH",
"626 615 OFFCURVE",
"614 625 OFFCURVE",
"579 623 CURVE SMOOTH",
"480 618 OFFCURVE",
"403 616 OFFCURVE",
"303 616 CURVE SMOOTH",
"245 616 OFFCURVE",
"182 620 OFFCURVE",
"116 620 CURVE SMOOTH",
"100 619 LINE",
"90 603 LINE",
"114 603 LINE SMOOTH",
"141 603 OFFCURVE",
"194 602 OFFCURVE",
"211 599 CURVE SMOOTH",
"236 595 OFFCURVE",
"242 570 OFFCURVE",
"242 544 CURVE SMOOTH",
"242 527 OFFCURVE",
"239 510 OFFCURVE",
"238 498 CURVE SMOOTH",
"235 467 OFFCURVE",
"225 405 OFFCURVE",
"211 332 CURVE",
"202 331 OFFCURVE",
"192 331 OFFCURVE",
"187 329 CURVE SMOOTH",
"176 326 OFFCURVE",
"152 315 OFFCURVE",
"152 309 CURVE SMOOTH",
"152 306 OFFCURVE",
"158 305 OFFCURVE",
"175 306 CURVE SMOOTH",
"183 307 OFFCURVE",
"196 307 OFFCURVE",
"206 308 CURVE",
"194 250 OFFCURVE",
"179 187 OFFCURVE",
"161 129 CURVE SMOOTH",
"131 29 OFFCURVE",
"129 15 OFFCURVE",
"58 15 CURVE SMOOTH",
"40 15 OFFCURVE",
"16 16 OFFCURVE",
"-14 17 CURVE SMOOTH",
"-25 17 LINE",
"-36 0 LINE"
);
}
);
width = 602;
}
);
note = F;
unicode = 0046;
},
{
color = 3;
glyphname = G;
lastChange = "2021-10-14 18:20:22 +0000";
layers = (
{
layerId = "C36B7B90-196F-45C3-8412-B02CF16DA361";
paths = (
{
closed = 1;
nodes = (
"352 -9 OFFCURVE",
"452 9 OFFCURVE",
"513 9 CURVE SMOOTH",
"535 9 OFFCURVE",
"552 7 OFFCURVE",
"560 0 CURVE SMOOTH",
"566 -5 OFFCURVE",
"570 -7 OFFCURVE",
"574 -7 CURVE SMOOTH",
"579 -7 OFFCURVE",
"581 -2 OFFCURVE",
"581 6 CURVE SMOOTH",
"583 56 OFFCURVE",
"597 145 OFFCURVE",
"605 168 CURVE SMOOTH",
"630 237 OFFCURVE",
"639 258 OFFCURVE",
"688 258 CURVE SMOOTH",
"719 258 LINE SMOOTH",
"731 258 OFFCURVE",
"745 258 OFFCURVE",
"759 257 CURVE",
"770 274 LINE",
"676 269 OFFCURVE",
"589 268 OFFCURVE",
"564 268 CURVE SMOOTH",
"502 268 OFFCURVE",
"440 271 OFFCURVE",
"378 273 CURVE",
"368 256 LINE",
"368 256 OFFCURVE",
"385 256 OFFCURVE",
"391 257 CURVE",
"418 257 OFFCURVE",
"472 255 OFFCURVE",
"489 253 CURVE SMOOTH",
"501 251 OFFCURVE",
"520 241 OFFCURVE",
"515 216 CURVE SMOOTH",
"507 179 OFFCURVE",
"501 126 OFFCURVE",
"490 89 CURVE SMOOTH",
"475 41 OFFCURVE",
"429 17 OFFCURVE",
"374 17 CURVE SMOOTH",
"266 17 OFFCURVE",
"125 107 OFFCURVE",
"125 275 CURVE SMOOTH",
"125 282 OFFCURVE",
"126 289 OFFCURVE",
"126 296 CURVE SMOOTH",
"140 492 OFFCURVE",
"295 574 OFFCURVE",
"456 574 CURVE SMOOTH",
"512 574 OFFCURVE",
"602 565 OFFCURVE",
"597 494 CURVE SMOOTH",
"595 471 OFFCURVE",
"571 411 OFFCURVE",
"571 411 CURVE",
"584 402 LINE",
"594 433 OFFCURVE",
"608 462 OFFCURVE",
"617 485 CURVE SMOOTH",
"626 505 OFFCURVE",
"637 525 OFFCURVE",
"643 547 CURVE SMOOTH",
"646 555 OFFCURVE",
"650 563 OFFCURVE",
"650 572 CURVE SMOOTH",
"650 619 OFFCURVE",
"585 630 OFFCURVE",
"545 630 CURVE SMOOTH",
"245 630 OFFCURVE",
"27 440 OFFCURVE",
"27 228 CURVE SMOOTH",
"27 78 OFFCURVE",
"150 -9 OFFCURVE",
"297 -9 CURVE SMOOTH"
);
}
);
width = 644;
}
);
note = G;
unicode = 0047;
},
{
color = 3;
glyphname = H;
lastChange = "2021-10-14 18:20:22 +0000";
layers = (
{
layerId = "C36B7B90-196F-45C3-8412-B02CF16DA361";
paths = (
{
closed = 1;
nodes = (
"33 0 LINE SMOOTH",
"94 -1 OFFCURVE",
"165 2 OFFCURVE",
"192 3 CURVE SMOOTH",
"213 4 OFFCURVE",
"235 4 OFFCURVE",
"257 4 CURVE SMOOTH",
"301 4 OFFCURVE",
"346 3 OFFCURVE",
"388 0 CURVE SMOOTH",
"406 0 LINE",
"416 16 LINE",
"390 15 LINE SMOOTH",
"370 16 OFFCURVE",
"341 17 OFFCURVE",
"325 20 CURVE SMOOTH",
"313 22 OFFCURVE",
"295 34 OFFCURVE",
"297 60 CURVE SMOOTH",
"302 102 OFFCURVE",
"325 217 OFFCURVE",
"338 286 CURVE SMOOTH",
"341 302 OFFCURVE",
"347 314 OFFCURVE",
"361 314 CURVE SMOOTH",
"634 314 LINE SMOOTH",
"650 314 OFFCURVE",
"659 314 OFFCURVE",
"659 302 CURVE SMOOTH",
"659 299 OFFCURVE",
"659 296 OFFCURVE",
"658 292 CURVE SMOOTH",
"647 239 OFFCURVE",
"640 186 OFFCURVE",
"624 129 CURVE SMOOTH",
"596 29 OFFCURVE",
"578 14 OFFCURVE",
"537 14 CURVE SMOOTH",
"527 14 OFFCURVE",
"516 15 OFFCURVE",
"503 16 CURVE SMOOTH",
"492 16 LINE",
"486 0 LINE",
"486 0 OFFCURVE",
"499 0 OFFCURVE",
"502 0 CURVE SMOOTH",
"602 3 LINE SMOOTH",
"615 4 OFFCURVE",
"629 4 OFFCURVE",
"645 4 CURVE SMOOTH",
"706 4 OFFCURVE",
"782 0 OFFCURVE",
"835 0 CURVE SMOOTH",
"842 0 OFFCURVE",
"850 8 OFFCURVE",
"850 13 CURVE SMOOTH",
"850 15 OFFCURVE",
"849 16 OFFCURVE",
"846 16 CURVE SMOOTH",
"845 16 LINE SMOOTH",
"830 15 OFFCURVE",
"755 17 OFFCURVE",
"734 20 CURVE SMOOTH",
"723 22 OFFCURVE",
"705 34 OFFCURVE",
"708 60 CURVE SMOOTH",
"717 136 OFFCURVE",
"765 386 OFFCURVE",
"794 490 CURVE SMOOTH",
"823 594 OFFCURVE",
"825 602 OFFCURVE",
"905 602 CURVE SMOOTH",
"922 602 OFFCURVE",
"943 602 OFFCURVE",
"968 602 CURVE SMOOTH",
"986 602 LINE",
"997 619 LINE",
"997 619 OFFCURVE",
"975 619 OFFCURVE",
"970 619 CURVE SMOOTH",
"934 619 LINE SMOOTH",
"883 619 OFFCURVE",
"832 618 OFFCURVE",
"809 617 CURVE SMOOTH",
"786 616 OFFCURVE",
"769 615 OFFCURVE",
"760 615 CURVE SMOOTH",
"696 615 OFFCURVE",
"606 620 OFFCURVE",
"606 620 CURVE",
"596 604 LINE",
"596 604 OFFCURVE",
"620 605 OFFCURVE",
"644 605 CURVE SMOOTH",
"659 605 OFFCURVE",
"675 605 OFFCURVE",
"683 603 CURVE SMOOTH",
"695 601 OFFCURVE",
"714 589 OFFCURVE",
"709 564 CURVE SMOOTH",
"698 500 OFFCURVE",
"687 439 OFFCURVE",
"676 379 CURVE SMOOTH",
"672 359 OFFCURVE",
"663 354 OFFCURVE",
"644 354 CURVE SMOOTH",
"379 354 LINE SMOOTH",
"360 354 OFFCURVE",
"356 361 OFFCURVE",
"356 368 CURVE SMOOTH",
"356 370 OFFCURVE",
"357 371 OFFCURVE",
"357 373 CURVE",
"370 438 OFFCURVE",
"385 497 OFFCURVE",
"392 520 CURVE SMOOTH",
"413 586 OFFCURVE",
"429 600 OFFCURVE",
"470 604 CURVE SMOOTH",
"488 606 OFFCURVE",
"543 605 OFFCURVE",
"543 605 CURVE",
"544 621 LINE",
"400 617 LINE SMOOTH",
"387 616 OFFCURVE",
"373 616 OFFCURVE",
"358 616 CURVE SMOOTH",
"298 616 OFFCURVE",
"224 620 OFFCURVE",
"171 620 CURVE SMOOTH",
"157 619 LINE",
"147 602 LINE",
"170 603 LINE SMOOTH",
"197 603 OFFCURVE",
"251 602 OFFCURVE",
"268 599 CURVE SMOOTH",
"285 596 OFFCURVE",
"303 574 OFFCURVE",
"299 548 CURVE SMOOTH",
"275 403 OFFCURVE",
"251 274 OFFCURVE",
"209 129 CURVE SMOOTH",
"180 29 OFFCURVE",
"177 15 OFFCURVE",
"107 15 CURVE SMOOTH",
"88 15 OFFCURVE",
"65 16 OFFCURVE",
"35 17 CURVE SMOOTH",
"20 17 LINE",
"10 0 LINE"
);
}
);
width = 857;
}
);
note = H;
unicode = 0048;
},
{
color = 3;
glyphname = I;
lastChange = "2021-10-14 18:20:22 +0000";
layers = (
{
layerId = "C36B7B90-196F-45C3-8412-B02CF16DA361";
paths = (
{
closed = 1;
nodes = (
"13 0 LINE SMOOTH",
"77 -1 OFFCURVE",
"157 2 OFFCURVE",
"188 3 CURVE SMOOTH",
"201 4 OFFCURVE",
"215 4 OFFCURVE",
"231 4 CURVE SMOOTH",
"292 4 OFFCURVE",
"367 0 OFFCURVE",
"420 0 CURVE SMOOTH",
"428 0 OFFCURVE",
"436 8 OFFCURVE",
"436 13 CURVE SMOOTH",
"436 15 OFFCURVE",
"434 16 OFFCURVE",
"431 16 CURVE SMOOTH",
"430 16 LINE SMOOTH",
"415 15 OFFCURVE",
"340 17 OFFCURVE",
"320 20 CURVE SMOOTH",
"308 22 OFFCURVE",
"290 34 OFFCURVE",
"293 60 CURVE SMOOTH",
"301 136 OFFCURVE",
"351 386 OFFCURVE",
"379 490 CURVE SMOOTH",
"406 590 OFFCURVE",
"413 604 OFFCURVE",
"484 604 CURVE SMOOTH",
"505 604 OFFCURVE",
"531 602 OFFCURVE",
"564 602 CURVE",
"569 601 OFFCURVE",
"578 611 OFFCURVE",
"578 616 CURVE SMOOTH",
"578 618 OFFCURVE",
"577 619 OFFCURVE",
"575 619 CURVE SMOOTH",
"574 619 LINE SMOOTH",
"559 619 OFFCURVE",
"542 620 OFFCURVE",
"525 620 CURVE SMOOTH",
"472 620 OFFCURVE",
"418 618 OFFCURVE",
"395 617 CURVE SMOOTH",
"382 616 OFFCURVE",
"368 616 OFFCURVE",
"352 616 CURVE SMOOTH",
"291 616 OFFCURVE",
"215 620 OFFCURVE",
"163 620 CURVE SMOOTH",
"156 620 OFFCURVE",
"148 612 OFFCURVE",
"148 607 CURVE SMOOTH",
"148 605 OFFCURVE",
"149 603 OFFCURVE",
"153 603 CURVE SMOOTH",
"167 604 OFFCURVE",
"243 602 OFFCURVE",
"263 599 CURVE SMOOTH",
"278 596 OFFCURVE",
"294 579 OFFCURVE",
"294 557 CURVE SMOOTH",
"294 554 OFFCURVE",
"294 551 OFFCURVE",
"293 548 CURVE",
"269 403 OFFCURVE",
"245 274 OFFCURVE",
"204 129 CURVE SMOOTH",
"175 29 OFFCURVE",
"172 16 OFFCURVE",
"100 16 CURVE SMOOTH",
"81 16 OFFCURVE",
"56 17 OFFCURVE",
"24 17 CURVE",
"18 18 OFFCURVE",
"9 8 OFFCURVE",
"9 3 CURVE SMOOTH",
"9 1 OFFCURVE",
"10 0 OFFCURVE",
"12 0 CURVE SMOOTH"
);
}
);
width = 416;
}
);
note = I;
unicode = 0049;
},
{
color = 3;
glyphname = J;
lastChange = "2021-10-14 18:20:22 +0000";
layers = (
{
layerId = "C36B7B90-196F-45C3-8412-B02CF16DA361";
paths = (
{
closed = 1;
nodes = (
"175 -17 OFFCURVE",
"196 -15 OFFCURVE",
"213 -12 CURVE SMOOTH",
"267 -3 OFFCURVE",
"298 19 OFFCURVE",
"324 48 CURVE SMOOTH",
"357 85 OFFCURVE",
"357 119 OFFCURVE",
"366 163 CURVE SMOOTH",
"381 239 OFFCURVE",
"402 340 OFFCURVE",
"418 419 CURVE SMOOTH",
"427 463 OFFCURVE",
"436 502 OFFCURVE",
"442 520 CURVE SMOOTH",
"459 566 OFFCURVE",
"483 604 OFFCURVE",
"525 604 CURVE SMOOTH",
"543 604 OFFCURVE",
"565 603 OFFCURVE",
"591 602 CURVE",
"596 601 OFFCURVE",
"606 612 OFFCURVE",
"606 617 CURVE SMOOTH",
"606 618 OFFCURVE",
"605 619 OFFCURVE",
"603 619 CURVE SMOOTH",
"602 619 LINE SMOOTH",
"589 619 OFFCURVE",
"576 620 OFFCURVE",
"562 620 CURVE SMOOTH",
"520 620 OFFCURVE",
"476 618 OFFCURVE",
"448 617 CURVE SMOOTH",
"436 617 OFFCURVE",
"423 616 OFFCURVE",
"411 616 CURVE SMOOTH",
"399 616 OFFCURVE",
"387 617 OFFCURVE",
"374 617 CURVE SMOOTH",
"326 617 LINE SMOOTH",
"295 617 OFFCURVE",
"267 617 OFFCURVE",
"230 620 CURVE SMOOTH",
"222 620 OFFCURVE",
"212 609 OFFCURVE",
"212 604 CURVE SMOOTH",
"212 603 OFFCURVE",
"213 602 OFFCURVE",
"215 602 CURVE SMOOTH",
"217 602 LINE SMOOTH",
"224 603 OFFCURVE",
"241 604 OFFCURVE",
"261 604 CURVE SMOOTH",
"288 604 OFFCURVE",
"318 603 OFFCURVE",
"330 601 CURVE SMOOTH",
"341 598 OFFCURVE",
"361 587 OFFCURVE",
"356 561 CURVE SMOOTH",
"331 413 OFFCURVE",
"309 292 OFFCURVE",
"268 148 CURVE SMOOTH",
"254 98 OFFCURVE",
"234 18 OFFCURVE",
"168 18 CURVE SMOOTH",
"135 18 OFFCURVE",
"122 45 OFFCURVE",
"117 74 CURVE SMOOTH",
"116 82 OFFCURVE",
"115 92 OFFCURVE",
"115 102 CURVE SMOOTH",
"115 114 OFFCURVE",
"116 126 OFFCURVE",
"120 136 CURVE SMOOTH",
"124 143 OFFCURVE",
"121 148 OFFCURVE",
"117 148 CURVE SMOOTH",
"115 148 OFFCURVE",
"111 146 OFFCURVE",
"108 141 CURVE SMOOTH",
"104 133 OFFCURVE",
"100 121 OFFCURVE",
"97 115 CURVE SMOOTH",
"80 69 OFFCURVE",
"65 69 OFFCURVE",
"47 47 CURVE SMOOTH",
"44 43 OFFCURVE",
"42 39 OFFCURVE",
"42 35 CURVE SMOOTH",
"42 29 OFFCURVE",
"45 24 OFFCURVE",
"49 19 CURVE SMOOTH",
"69 -9 OFFCURVE",
"112 -17 OFFCURVE",
"153 -17 CURVE SMOOTH"
);
}
);
width = 493;
}
);
note = J;
unicode = 004A;
},
{
color = 3;
glyphname = K;
lastChange = "2021-10-14 18:20:22 +0000";
layers = (
{
layerId = "C36B7B90-196F-45C3-8412-B02CF16DA361";
paths = (
{
closed = 1;
nodes = (
"666 -54 OFFCURVE",
"690 -46 OFFCURVE",
"707 -34 CURVE SMOOTH",
"713 -30 OFFCURVE",
"718 -22 OFFCURVE",
"729 -22 CURVE SMOOTH",
"733 -22 OFFCURVE",
"738 -23 OFFCURVE",
"744 -26 CURVE SMOOTH",
"748 -28 OFFCURVE",
"751 -29 OFFCURVE",
"754 -29 CURVE SMOOTH",
"759 -29 OFFCURVE",
"762 -25 OFFCURVE",
"762 -22 CURVE SMOOTH",
"762 -19 OFFCURVE",
"760 -16 OFFCURVE",
"756 -14 CURVE SMOOTH",
"747 -11 OFFCURVE",
"718 0 OFFCURVE",
"700 12 CURVE SMOOTH",
"653 40 OFFCURVE",
"439 235 OFFCURVE",
"402 293 CURVE",
"417 319 OFFCURVE",
"591 486 OFFCURVE",
"647 534 CURVE SMOOTH",
"706 583 OFFCURVE",
"734 605 OFFCURVE",
"810 602 CURVE",
"815 601 OFFCURVE",
"824 611 OFFCURVE",
"824 616 CURVE SMOOTH",
"824 618 OFFCURVE",
"823 619 OFFCURVE",
"821 619 CURVE SMOOTH",
"820 619 LINE SMOOTH",
"756 621 OFFCURVE",
"711 615 OFFCURVE",
"671 615 CURVE SMOOTH",
"640 615 OFFCURVE",
"571 620 OFFCURVE",
"558 620 CURVE SMOOTH",
"546 620 OFFCURVE",
"540 614 OFFCURVE",
"540 609 CURVE SMOOTH",
"540 606 OFFCURVE",
"542 604 OFFCURVE",
"546 604 CURVE SMOOTH",
"550 604 LINE SMOOTH",
"559 605 OFFCURVE",
"587 602 OFFCURVE",
"587 578 CURVE SMOOTH",
"587 561 OFFCURVE",
"574 533 OFFCURVE",
"532 489 CURVE SMOOTH",
"462 413 OFFCURVE",
"389 334 OFFCURVE",
"319 261 CURVE",
"340 368 OFFCURVE",
"364 480 OFFCURVE",
"377 517 CURVE SMOOTH",
"400 584 OFFCURVE",
"413 606 OFFCURVE",
"459 606 CURVE SMOOTH",
"480 606 OFFCURVE",
"490 604 OFFCURVE",
"499 604 CURVE SMOOTH",
"504 604 OFFCURVE",
"510 611 OFFCURVE",
"510 616 CURVE SMOOTH",
"510 618 OFFCURVE",
"508 620 OFFCURVE",
"505 620 CURVE SMOOTH",
"455 617 OFFCURVE",
"412 618 OFFCURVE",
"386 617 CURVE SMOOTH",
"373 616 OFFCURVE",
"359 616 OFFCURVE",
"343 616 CURVE SMOOTH",
"282 616 OFFCURVE",
"206 620 OFFCURVE",
"154 620 CURVE SMOOTH",
"146 620 OFFCURVE",
"138 612 OFFCURVE",
"138 607 CURVE SMOOTH",
"138 605 OFFCURVE",
"140 603 OFFCURVE",
"144 603 CURVE SMOOTH",
"159 604 OFFCURVE",
"234 602 OFFCURVE",
"254 599 CURVE SMOOTH",
"272 596 OFFCURVE",
"289 574 OFFCURVE",
"285 548 CURVE SMOOTH",
"261 403 OFFCURVE",
"237 274 OFFCURVE",
"195 129 CURVE SMOOTH",
"166 29 OFFCURVE",
"163 16 OFFCURVE",
"91 16 CURVE SMOOTH",
"71 16 OFFCURVE",
"46 17 OFFCURVE",
"14 17 CURVE",
"9 18 OFFCURVE",
"0 8 OFFCURVE",
"0 3 CURVE SMOOTH",
"0 1 OFFCURVE",
"1 0 OFFCURVE",
"3 0 CURVE SMOOTH",
"4 0 LINE SMOOTH",
"68 -1 OFFCURVE",
"149 2 OFFCURVE",
"179 3 CURVE SMOOTH",
"201 4 OFFCURVE",
"226 4 OFFCURVE",
"254 4 CURVE SMOOTH",
"308 4 OFFCURVE",
"368 3 OFFCURVE",
"411 0 CURVE SMOOTH",
"418 -1 OFFCURVE",
"426 8 OFFCURVE",
"426 13 CURVE SMOOTH",
"426 15 OFFCURVE",
"425 16 OFFCURVE",
"422 16 CURVE SMOOTH",
"421 16 LINE SMOOTH",
"406 15 OFFCURVE",
"331 17 OFFCURVE",
"311 20 CURVE SMOOTH",
"299 22 OFFCURVE",
"280 34 OFFCURVE",
"283 60 CURVE SMOOTH",
"287 88 OFFCURVE",
"298 150 OFFCURVE",
"309 208 CURVE",
"330 231 OFFCURVE",
"364 254 OFFCURVE",
"387 279 CURVE",
"411 198 OFFCURVE",
"489 25 OFFCURVE",
"591 -40 CURVE SMOOTH",
"607 -50 OFFCURVE",
"625 -54 OFFCURVE",
"642 -54 CURVE SMOOTH"
);
}
);
width = 768;
}
);
note = K;
unicode = 004B;
},
{
color = 3;
glyphname = L;
lastChange = "2021-10-14 18:20:22 +0000";
layers = (
{
layerId = "C36B7B90-196F-45C3-8412-B02CF16DA361";
paths = (
{
closed = 1;
nodes = (
"484 -8 OFFCURVE",
"499 -5 OFFCURVE",
"507 0 CURVE SMOOTH",
"555 30 OFFCURVE",
"584 142 OFFCURVE",
"597 171 CURVE SMOOTH",
"600 176 OFFCURVE",
"596 182 OFFCURVE",
"593 182 CURVE SMOOTH",
"591 182 OFFCURVE",
"590 181 OFFCURVE",
"589 179 CURVE SMOOTH",
"545 92 OFFCURVE",
"467 31 OFFCURVE",
"367 31 CURVE SMOOTH",
"281 31 OFFCURVE",
"260 54 OFFCURVE",
"260 89 CURVE SMOOTH",
"260 96 OFFCURVE",
"261 103 OFFCURVE",
"262 110 CURVE SMOOTH",
"284 262 OFFCURVE",
"297 345 OFFCURVE",
"334 495 CURVE SMOOTH",
"359 597 OFFCURVE",
"378 612 OFFCURVE",
"458 612 CURVE SMOOTH",
"479 612 OFFCURVE",
"504 611 OFFCURVE",
"534 610 CURVE",
"540 608 OFFCURVE",
"543 613 OFFCURVE",
"543 618 CURVE SMOOTH",
"543 623 OFFCURVE",
"541 627 OFFCURVE",
"537 627 CURVE SMOOTH",
"536 627 LINE SMOOTH",
"467 625 OFFCURVE",
"371 620 OFFCURVE",
"340 620 CURVE SMOOTH",
"276 620 OFFCURVE",
"181 621 OFFCURVE",
"116 625 CURVE SMOOTH",
"109 625 OFFCURVE",
"102 617 OFFCURVE",
"102 612 CURVE SMOOTH",
"102 610 OFFCURVE",
"103 608 OFFCURVE",
"107 608 CURVE SMOOTH",
"113 608 OFFCURVE",
"127 609 OFFCURVE",
"143 609 CURVE SMOOTH",
"170 609 OFFCURVE",
"203 608 OFFCURVE",
"217 604 CURVE SMOOTH",
"229 601 OFFCURVE",
"248 590 OFFCURVE",
"246 565 CURVE SMOOTH",
"237 428 OFFCURVE",
"179 180 OFFCURVE",
"160 114 CURVE SMOOTH",
"135 30 OFFCURVE",
"100 16 OFFCURVE",
"52 16 CURVE SMOOTH",
"35 16 OFFCURVE",
"16 15 OFFCURVE",
"-13 17 CURVE",
"-19 19 OFFCURVE",
"-22 14 OFFCURVE",
"-22 9 CURVE SMOOTH",
"-22 5 OFFCURVE",
"-19 0 OFFCURVE",
"-15 0 CURVE SMOOTH",
"-14 0 LINE",
"146 0 LINE SMOOTH",
"196 0 OFFCURVE",
"249 6 OFFCURVE",
"290 6 CURVE SMOOTH",
"301 6 OFFCURVE",
"310 6 OFFCURVE",
"319 5 CURVE SMOOTH",
"384 -3 OFFCURVE",
"431 -8 OFFCURVE",
"462 -8 CURVE SMOOTH"
);
}
);
width = 588;
}
);
note = L;
unicode = 004C;
},
{
color = 3;
glyphname = M;
lastChange = "2021-10-14 18:20:22 +0000";
layers = (
{
layerId = "C36B7B90-196F-45C3-8412-B02CF16DA361";
paths = (
{
closed = 1;
nodes = (
"462 -3 OFFCURVE",
"483 15 OFFCURVE",
"506 30 CURVE SMOOTH",
"523 42 OFFCURVE",
"539 49 OFFCURVE",
"544 53 CURVE",
"555 59 OFFCURVE",
"559 62 OFFCURVE",
"559 68 CURVE SMOOTH",
"559 70 OFFCURVE",
"559 72 OFFCURVE",
"558 74 CURVE",
"557 80 OFFCURVE",
"559 92 OFFCURVE",
"565 104 CURVE SMOOTH",
"594 160 OFFCURVE",
"732 370 OFFCURVE",
"813 481 CURVE",
"793 363 OFFCURVE",
"770 249 OFFCURVE",
"739 129 CURVE SMOOTH",
"713 27 OFFCURVE",
"693 13 OFFCURVE",
"642 13 CURVE SMOOTH",
"629 13 OFFCURVE",
"614 13 OFFCURVE",
"597 14 CURVE",
"591 16 OFFCURVE",
"588 12 OFFCURVE",
"588 7 CURVE SMOOTH",
"588 2 OFFCURVE",
"591 -3 OFFCURVE",
"597 -3 CURVE SMOOTH",
"671 0 OFFCURVE",
"697 -1 OFFCURVE",
"729 0 CURVE SMOOTH",
"752 1 OFFCURVE",
"779 1 OFFCURVE",
"806 1 CURVE SMOOTH",
"860 1 OFFCURVE",
"917 0 OFFCURVE",
"959 0 CURVE SMOOTH",
"967 0 OFFCURVE",
"975 8 OFFCURVE",
"975 13 CURVE SMOOTH",
"975 15 OFFCURVE",
"973 16 OFFCURVE",
"970 16 CURVE SMOOTH",
"969 16 LINE SMOOTH",
"955 15 OFFCURVE",
"881 16 OFFCURVE",
"861 20 CURVE SMOOTH",
"849 22 OFFCURVE",
"829 30 OFFCURVE",
"830 56 CURVE SMOOTH",
"836 143 OFFCURVE",
"899 452 OFFCURVE",
"919 517 CURVE SMOOTH",
"940 583 OFFCURVE",
"949 608 OFFCURVE",
"994 608 CURVE SMOOTH",
"1013 608 OFFCURVE",
"1035 606 OFFCURVE",
"1067 605 CURVE",
"1073 603 OFFCURVE",
"1075 608 OFFCURVE",
"1075 613 CURVE SMOOTH",
"1075 617 OFFCURVE",
"1073 622 OFFCURVE",
"1068 622 CURVE SMOOTH",
"1067 622 LINE SMOOTH",
"983 617 OFFCURVE",
"955 615 OFFCURVE",
"929 616 CURVE SMOOTH",
"920 616 OFFCURVE",
"875 619 OFFCURVE",
"851 619 CURVE SMOOTH",
"844 619 OFFCURVE",
"838 619 OFFCURVE",
"836 618 CURVE SMOOTH",
"813 610 OFFCURVE",
"800 574 OFFCURVE",
"755 497 CURVE SMOOTH",
"685 378 OFFCURVE",
"598 231 OFFCURVE",
"532 128 CURVE SMOOTH",
"528 122 OFFCURVE",
"525 120 OFFCURVE",
"521 120 CURVE SMOOTH",
"518 120 OFFCURVE",
"515 122 OFFCURVE",
"514 127 CURVE SMOOTH",
"478 251 OFFCURVE",
"438 513 OFFCURVE",
"434 587 CURVE SMOOTH",
"432 614 OFFCURVE",
"433 620 OFFCURVE",
"412 620 CURVE SMOOTH",
"398 620 OFFCURVE",
"374 618 OFFCURVE",
"333 616 CURVE SMOOTH",
"318 615 OFFCURVE",
"304 615 OFFCURVE",
"289 615 CURVE SMOOTH",
"249 615 OFFCURVE",
"209 617 OFFCURVE",
"169 620 CURVE SMOOTH",
"162 620 OFFCURVE",
"154 612 OFFCURVE",
"154 607 CURVE SMOOTH",
"154 605 OFFCURVE",
"155 604 OFFCURVE",
"159 604 CURVE SMOOTH",
"168 605 OFFCURVE",
"199 606 OFFCURVE",
"227 606 CURVE SMOOTH",
"245 606 OFFCURVE",
"262 605 OFFCURVE",
"270 604 CURVE SMOOTH",
"281 601 OFFCURVE",
"301 589 OFFCURVE",
"296 564 CURVE SMOOTH",
"270 411 OFFCURVE",
"247 279 OFFCURVE",
"203 129 CURVE SMOOTH",
"174 28 OFFCURVE",
"149 16 OFFCURVE",
"79 16 CURVE SMOOTH",
"61 16 OFFCURVE",
"39 17 OFFCURVE",
"13 17 CURVE",
"8 18 OFFCURVE",
"6 16 OFFCURVE",
"6 12 CURVE SMOOTH",
"6 8 OFFCURVE",
"10 2 OFFCURVE",
"15 2 CURVE SMOOTH",
"17 2 LINE SMOOTH",
"33 1 OFFCURVE",
"50 1 OFFCURVE",
"67 1 CURVE SMOOTH",
"117 1 OFFCURVE",
"165 4 OFFCURVE",
"188 5 CURVE SMOOTH",
"198 5 OFFCURVE",
"208 6 OFFCURVE",
"218 6 CURVE SMOOTH",
"272 6 OFFCURVE",
"319 0 OFFCURVE",
"336 0 CURVE SMOOTH",
"344 0 OFFCURVE",
"352 8 OFFCURVE",
"352 13 CURVE SMOOTH",
"352 15 OFFCURVE",
"350 16 OFFCURVE",
"347 16 CURVE SMOOTH",
"346 16 LINE SMOOTH",
"331 15 OFFCURVE",
"306 16 OFFCURVE",
"287 20 CURVE SMOOTH",
"274 22 OFFCURVE",
"256 34 OFFCURVE",
"259 60 CURVE SMOOTH",
"268 136 OFFCURVE",
"317 379 OFFCURVE",
"343 483 CURVE",
"380 333 OFFCURVE",
"421 123 OFFCURVE",
"432 44 CURVE SMOOTH",
"436 16 OFFCURVE",
"428 -4 OFFCURVE",
"447 -4 CURVE SMOOTH"
);
}
);
width = 972;
}
);
note = M;
unicode = 004D;
},
{
color = 3;
glyphname = N;
lastChange = "2021-10-14 18:20:22 +0000";
layers = (
{
layerId = "C36B7B90-196F-45C3-8412-B02CF16DA361";
paths = (
{
closed = 1;
nodes = (
"606 -29 OFFCURVE",
"642 18 OFFCURVE",
"660 33 CURVE SMOOTH",
"673 44 OFFCURVE",
"682 62 OFFCURVE",
"682 81 CURVE SMOOTH",
"682 91 OFFCURVE",
"680 101 OFFCURVE",
"675 110 CURVE",
"685 172 OFFCURVE",
"730 406 OFFCURVE",
"752 490 CURVE SMOOTH",
"778 591 OFFCURVE",
"782 604 OFFCURVE",
"932 602 CURVE",
"938 601 OFFCURVE",
"947 612 OFFCURVE",
"947 617 CURVE SMOOTH",
"947 619 OFFCURVE",
"946 620 OFFCURVE",
"943 620 CURVE SMOOTH",
"877 620 OFFCURVE",
"798 619 OFFCURVE",
"768 618 CURVE SMOOTH",
"755 617 OFFCURVE",
"741 617 OFFCURVE",
"727 617 CURVE SMOOTH",
"672 617 OFFCURVE",
"617 621 OFFCURVE",
"601 621 CURVE SMOOTH",
"594 621 OFFCURVE",
"586 613 OFFCURVE",
"586 608 CURVE SMOOTH",
"586 606 OFFCURVE",
"587 605 OFFCURVE",
"590 605 CURVE SMOOTH",
"591 605 LINE SMOOTH",
"621 606 OFFCURVE",
"703 601 OFFCURVE",
"698 555 CURVE SMOOTH",
"690 484 OFFCURVE",
"646 239 OFFCURVE",
"627 162 CURVE",
"590 217 OFFCURVE",
"424 519 OFFCURVE",
"395 592 CURVE SMOOTH",
"386 617 OFFCURVE",
"382 620 OFFCURVE",
"370 620 CURVE SMOOTH",
"349 620 OFFCURVE",
"335 616 OFFCURVE",
"309 616 CURVE SMOOTH",
"252 616 OFFCURVE",
"186 620 OFFCURVE",
"140 620 CURVE SMOOTH",
"134 620 OFFCURVE",
"125 611 OFFCURVE",
"125 606 CURVE SMOOTH",
"125 604 OFFCURVE",
"127 603 OFFCURVE",
"130 603 CURVE SMOOTH",
"145 604 OFFCURVE",
"220 602 OFFCURVE",
"241 599 CURVE SMOOTH",
"259 596 OFFCURVE",
"275 574 OFFCURVE",
"271 548 CURVE SMOOTH",
"247 403 OFFCURVE",
"223 274 OFFCURVE",
"181 129 CURVE SMOOTH",
"151 27 OFFCURVE",
"126 16 OFFCURVE",
"49 16 CURVE SMOOTH",
"32 16 OFFCURVE",
"13 17 OFFCURVE",
"-9 17 CURVE",
"-14 18 OFFCURVE",
"-16 16 OFFCURVE",
"-16 12 CURVE SMOOTH",
"-16 8 OFFCURVE",
"-12 2 OFFCURVE",
"-7 2 CURVE SMOOTH",
"-6 2 LINE SMOOTH",
"11 1 OFFCURVE",
"28 1 OFFCURVE",
"44 1 CURVE SMOOTH",
"95 1 OFFCURVE",
"143 4 OFFCURVE",
"166 5 CURVE SMOOTH",
"176 5 OFFCURVE",
"188 6 OFFCURVE",
"200 6 CURVE SMOOTH",
"266 6 OFFCURVE",
"355 0 OFFCURVE",
"373 0 CURVE SMOOTH",
"380 0 OFFCURVE",
"388 8 OFFCURVE",
"388 13 CURVE SMOOTH",
"388 15 OFFCURVE",
"387 16 OFFCURVE",
"383 16 CURVE SMOOTH",
"341 16 OFFCURVE",
"305 17 OFFCURVE",
"283 19 CURVE SMOOTH",
"271 20 OFFCURVE",
"234 34 OFFCURVE",
"237 60 CURVE SMOOTH",
"246 136 OFFCURVE",
"312 455 OFFCURVE",
"325 507 CURVE",
"373 408 OFFCURVE",
"527 144 OFFCURVE",
"600 -15 CURVE SMOOTH"
);
}
);
width = 768;
}
);
note = N;
unicode = 004E;
},
{
color = 3;
glyphname = Eng;
lastChange = "2021-10-14 18:20:22 +0000";
layers = (
{
layerId = "C36B7B90-196F-45C3-8412-B02CF16DA361";
paths = (
{
closed = 1;
nodes = (
"419 -348 OFFCURVE",
"471 -345 OFFCURVE",
"489 -339 CURVE SMOOTH",
"569 -312 OFFCURVE",
"610 -271 OFFCURVE",
"627 -172 CURVE SMOOTH",
"678 131 OFFCURVE",
"709 325 OFFCURVE",
"752 490 CURVE SMOOTH",
"778 591 OFFCURVE",
"782 604 OFFCURVE",
"932 602 CURVE",
"938 601 OFFCURVE",
"947 612 OFFCURVE",
"947 617 CURVE SMOOTH",
"947 619 OFFCURVE",
"946 620 OFFCURVE",
"943 620 CURVE SMOOTH",
"877 620 OFFCURVE",
"798 619 OFFCURVE",
"768 618 CURVE SMOOTH",
"755 617 OFFCURVE",
"741 617 OFFCURVE",
"727 617 CURVE SMOOTH",
"672 617 OFFCURVE",
"617 621 OFFCURVE",
"601 621 CURVE SMOOTH",
"594 621 OFFCURVE",
"586 613 OFFCURVE",
"586 608 CURVE SMOOTH",
"586 606 OFFCURVE",
"587 605 OFFCURVE",
"590 605 CURVE SMOOTH",
"591 605 LINE SMOOTH",
"621 606 OFFCURVE",
"703 601 OFFCURVE",
"698 555 CURVE SMOOTH",
"690 484 OFFCURVE",
"646 239 OFFCURVE",
"627 162 CURVE",
"590 217 OFFCURVE",
"424 519 OFFCURVE",
"395 592 CURVE SMOOTH",
"386 617 OFFCURVE",
"382 620 OFFCURVE",
"370 620 CURVE SMOOTH",
"349 620 OFFCURVE",
"335 616 OFFCURVE",
"309 616 CURVE SMOOTH",
"252 616 OFFCURVE",
"186 620 OFFCURVE",
"140 620 CURVE SMOOTH",
"134 620 OFFCURVE",
"125 611 OFFCURVE",
"125 606 CURVE SMOOTH",
"125 604 OFFCURVE",
"127 603 OFFCURVE",
"130 603 CURVE SMOOTH",
"145 604 OFFCURVE",
"220 602 OFFCURVE",
"241 599 CURVE SMOOTH",
"259 596 OFFCURVE",
"275 574 OFFCURVE",
"271 548 CURVE SMOOTH",
"247 403 OFFCURVE",
"223 274 OFFCURVE",
"181 129 CURVE SMOOTH",
"151 27 OFFCURVE",
"126 16 OFFCURVE",
"49 16 CURVE SMOOTH",
"32 16 OFFCURVE",
"13 17 OFFCURVE",
"-9 17 CURVE",
"-14 18 OFFCURVE",
"-16 16 OFFCURVE",
"-16 12 CURVE SMOOTH",
"-16 8 OFFCURVE",
"-12 2 OFFCURVE",
"-7 2 CURVE SMOOTH",
"-6 2 LINE SMOOTH",
"11 1 OFFCURVE",
"28 1 OFFCURVE",
"44 1 CURVE SMOOTH",
"95 1 OFFCURVE",
"143 4 OFFCURVE",
"166 5 CURVE SMOOTH",
"176 5 OFFCURVE",
"188 6 OFFCURVE",
"200 6 CURVE SMOOTH",
"266 6 OFFCURVE",
"355 0 OFFCURVE",
"373 0 CURVE SMOOTH",
"380 0 OFFCURVE",
"388 8 OFFCURVE",
"388 13 CURVE SMOOTH",
"388 15 OFFCURVE",
"387 16 OFFCURVE",
"383 16 CURVE SMOOTH",
"341 16 OFFCURVE",
"305 17 OFFCURVE",
"283 19 CURVE SMOOTH",
"271 20 OFFCURVE",
"234 34 OFFCURVE",
"237 60 CURVE SMOOTH",
"246 136 OFFCURVE",
"312 455 OFFCURVE",
"325 507 CURVE",
"370 415 OFFCURVE",
"505 181 OFFCURVE",
"583 21 CURVE",
"566 -82 OFFCURVE",
"548 -200 OFFCURVE",
"535 -249 CURVE SMOOTH",
"517 -315 OFFCURVE",
"462 -328 OFFCURVE",
"434 -331 CURVE SMOOTH",
"402 -334 LINE",
"403 -346 LINE"
);
},
{
closed = 1;
nodes = (
"392 -368 OFFCURVE",
"407 -367 OFFCURVE",
"425 -365 CURVE",
"424 -354 LINE",
"355 -355 OFFCURVE",
"318 -325 OFFCURVE",
"318 -282 CURVE SMOOTH",
"318 -262 OFFCURVE",
"326 -239 OFFCURVE",
"342 -215 CURVE",
"333 -199 LINE",
"330 -211 OFFCURVE",
"325 -221 OFFCURVE",
"317 -232 CURVE SMOOTH",
"309 -243 OFFCURVE",
"299 -255 OFFCURVE",
"290 -267 CURVE SMOOTH",
"276 -284 OFFCURVE",
"263 -302 OFFCURVE",
"255 -317 CURVE SMOOTH",
"253 -322 OFFCURVE",
"252 -326 OFFCURVE",
"252 -330 CURVE SMOOTH",
"252 -338 OFFCURVE",
"259 -343 OFFCURVE",
"271 -347 CURVE SMOOTH",
"306 -360 OFFCURVE",
"335 -368 OFFCURVE",
"378 -368 CURVE SMOOTH"
);
}
);
width = 771;
}
);
unicode = 014A;
},
{
color = 3;
glyphname = O;
lastChange = "2021-10-14 18:20:22 +0000";
layers = (
{
layerId = "C36B7B90-196F-45C3-8412-B02CF16DA361";
paths = (
{
closed = 1;
nodes = (
"386 -20 OFFCURVE",
"470 20 OFFCURVE",
"537 80 CURVE SMOOTH",
"628 160 OFFCURVE",
"685 281 OFFCURVE",
"685 388 CURVE SMOOTH",
"685 424 OFFCURVE",
"678 459 OFFCURVE",
"664 490 CURVE SMOOTH",
"615 596 OFFCURVE",
"511 639 OFFCURVE",
"406 639 CURVE SMOOTH",
"320 639 OFFCURVE",
"236 600 OFFCURVE",
"168 540 CURVE SMOOTH",
"78 459 OFFCURVE",
"21 339 OFFCURVE",
"21 233 CURVE SMOOTH",
"21 196 OFFCURVE",
"28 161 OFFCURVE",
"42 130 CURVE SMOOTH",
"91 24 OFFCURVE",
"194 -20 OFFCURVE",
"300 -20 CURVE SMOOTH"
);
},
{
closed = 1;
nodes = (
"301 57 OFFCURVE",
"240 79 OFFCURVE",
"188 127 CURVE SMOOTH",
"131 180 OFFCURVE",
"108 246 OFFCURVE",
"108 310 CURVE SMOOTH",
"108 395 OFFCURVE",
"147 476 OFFCURVE",
"196 518 CURVE SMOOTH",
"238 555 OFFCURVE",
"294 575 OFFCURVE",
"351 575 CURVE SMOOTH",
"410 575 OFFCURVE",
"471 554 OFFCURVE",
"523 506 CURVE SMOOTH",
"580 453 OFFCURVE",
"603 386 OFFCURVE",
"603 322 CURVE SMOOTH",
"603 237 OFFCURVE",
"564 156 OFFCURVE",
"515 114 CURVE SMOOTH",
"473 78 OFFCURVE",
"418 57 OFFCURVE",
"360 57 CURVE SMOOTH"
);
}
);
width = 675;
}
);
note = O;
unicode = 004F;
},
{
color = 3;
glyphname = Oslash;
lastChange = "2021-10-14 18:20:22 +0000";
layers = (
{
layerId = "C36B7B90-196F-45C3-8412-B02CF16DA361";
paths = (
{
closed = 1;
nodes = (
"386 -20 OFFCURVE",
"470 20 OFFCURVE",
"537 80 CURVE SMOOTH",
"628 160 OFFCURVE",
"685 281 OFFCURVE",
"685 388 CURVE SMOOTH",
"685 424 OFFCURVE",
"678 459 OFFCURVE",
"664 490 CURVE SMOOTH",
"615 596 OFFCURVE",
"511 639 OFFCURVE",
"406 639 CURVE SMOOTH",
"319 639 OFFCURVE",
"236 600 OFFCURVE",
"168 540 CURVE SMOOTH",
"78 459 OFFCURVE",
"21 339 OFFCURVE",
"21 232 CURVE SMOOTH",
"21 196 OFFCURVE",
"28 161 OFFCURVE",
"42 130 CURVE SMOOTH",
"91 24 OFFCURVE",
"194 -20 OFFCURVE",
"300 -20 CURVE SMOOTH"
);
},
{
closed = 1;
nodes = (
"109 -46 OFFCURVE",
"139 -37 OFFCURVE",
"144 -28 CURVE",
"284 179 OFFCURVE",
"588 618 OFFCURVE",
"621 663 CURVE SMOOTH",
"625 669 OFFCURVE",
"620 672 OFFCURVE",
"611 672 CURVE SMOOTH",
"594 672 OFFCURVE",
"564 663 OFFCURVE",
"559 654 CURVE",
"82 -37 LINE SMOOTH",
"78 -43 OFFCURVE",
"83 -46 OFFCURVE",
"92 -46 CURVE SMOOTH"
);
},
{
closed = 1;
nodes = (
"301 57 OFFCURVE",
"240 79 OFFCURVE",
"188 127 CURVE SMOOTH",
"131 180 OFFCURVE",
"108 246 OFFCURVE",
"108 310 CURVE SMOOTH",
"108 395 OFFCURVE",
"147 476 OFFCURVE",
"196 518 CURVE SMOOTH",
"238 554 OFFCURVE",
"294 575 OFFCURVE",
"351 575 CURVE SMOOTH",
"410 575 OFFCURVE",
"471 553 OFFCURVE",
"523 505 CURVE SMOOTH",
"580 452 OFFCURVE",
"603 386 OFFCURVE",
"603 322 CURVE SMOOTH",
"603 237 OFFCURVE",
"564 156 OFFCURVE",
"515 114 CURVE SMOOTH",
"473 78 OFFCURVE",
"418 57 OFFCURVE",
"360 57 CURVE SMOOTH"
);
}
);
width = 675;
}
);
note = Oslash;
unicode = 00D8;
},
{
color = 3;
glyphname = OE;
lastChange = "2021-10-14 18:20:22 +0000";
layers = (
{
background = {
hints = (
{
horizontal = 1;
place = "{-20, 77}";
type = Stem;
},
{
horizontal = 1;
place = "{577, 77}";
type = Stem;
},
{
place = "{4, 87}";
type = Stem;
},
{
place = "{588, 86}";
type = Stem;
},
{
horizontal = 1;
place = "{3, 29}";
type = Stem;
},
{
horizontal = 1;
place = "{315, 25}";
type = Stem;
},
{
horizontal = 1;
place = "{617, 13}";
type = Stem;
},
{
place = "{1249, 15}";
type = Stem;
}
);
paths = (
{
closed = 1;
nodes = (
"585 596 OFFCURVE",
"481 639 OFFCURVE",
"376 639 CURVE SMOOTH",
"290 639 OFFCURVE",
"206 600 OFFCURVE",
"138 540 CURVE SMOOTH",
"17 431 OFFCURVE",
"-44 253 OFFCURVE",
"12 130 CURVE SMOOTH",
"61 24 OFFCURVE",
"164 -20 OFFCURVE",
"270 -20 CURVE SMOOTH",
"356 -20 OFFCURVE",
"440 20 OFFCURVE",
"507 80 CURVE SMOOTH",
"629 188 OFFCURVE",
"690 368 OFFCURVE",
"634 490 CURVE SMOOTH"
);
},
{
closed = 1;
nodes = (
"626 383 OFFCURVE",
"571 187 OFFCURVE",
"485 114 CURVE SMOOTH",
"400 41 OFFCURVE",
"260 32 OFFCURVE",
"158 127 CURVE SMOOTH",
"25 249 OFFCURVE",
"80 445 OFFCURVE",
"166 518 CURVE SMOOTH",
"252 592 OFFCURVE",
"391 600 OFFCURVE",
"493 506 CURVE SMOOTH"
);
},
{
closed = 1;
nodes = (
"943 608 OFFCURVE",
"934 625 OFFCURVE",
"890 623 CURVE SMOOTH",
"797 618 OFFCURVE",
"723 617 OFFCURVE",
"631 616 CURVE SMOOTH",
"569 615 OFFCURVE",
"503 619 OFFCURVE",
"431 620 CURVE SMOOTH",
"428 620 OFFCURVE",
"412 619 OFFCURVE",
"412 619 CURVE",
"402 603 LINE",
"402 603 OFFCURVE",
"418 603 OFFCURVE",
"424 603 CURVE SMOOTH",
"451 603 OFFCURVE",
"505 602 OFFCURVE",
"521 599 CURVE SMOOTH",
"563 592 OFFCURVE",
"552 529 OFFCURVE",
"548 498 CURVE SMOOTH",
"545 467 OFFCURVE",
"536 405 OFFCURVE",
"521 332 CURVE",
"512 331 OFFCURVE",
"502 331 OFFCURVE",
"498 329 CURVE",
"481 325 OFFCURVE",
"435 302 OFFCURVE",
"485 306 CURVE SMOOTH",
"494 307 OFFCURVE",
"507 307 OFFCURVE",
"517 308 CURVE",
"505 250 OFFCURVE",
"489 187 OFFCURVE",
"472 129 CURVE SMOOTH",
"433 2 OFFCURVE",
"440 14 OFFCURVE",
"291 17 CURVE SMOOTH",
"284 17 OFFCURVE",
"270 -2 OFFCURVE",
"280 0 CURVE",
"345 -1 OFFCURVE",
"426 2 OFFCURVE",
"455 3 CURVE SMOOTH",
"521 6 OFFCURVE",
"561 8 OFFCURVE",
"623 3 CURVE SMOOTH",
"741 -6 OFFCURVE",
"799 -12 OFFCURVE",
"818 0 CURVE SMOOTH",
"867 31 OFFCURVE",
"898 146 OFFCURVE",
"912 176 CURVE",
"902 183 LINE",
"858 96 OFFCURVE",
"778 31 OFFCURVE",
"678 31 CURVE SMOOTH",
"577 31 OFFCURVE",
"567 63 OFFCURVE",
"574 110 CURVE SMOOTH",
"585 189 OFFCURVE",
"594 248 OFFCURVE",
"605 308 CURVE",
"636 308 OFFCURVE",
"673 307 OFFCURVE",
"730 306 CURVE SMOOTH",
"757 306 OFFCURVE",
"782 303 OFFCURVE",
"806 315 CURVE SMOOTH",
"824 323 OFFCURVE",
"855 342 OFFCURVE",
"866 362 CURVE SMOOTH",
"870 368 OFFCURVE",
"869 372 OFFCURVE",
"863 368 CURVE SMOOTH",
"851 359 OFFCURVE",
"789 348 OFFCURVE",
"743 346 CURVE SMOOTH",
"694 344 OFFCURVE",
"650 341 OFFCURVE",
"611 339 CURVE",
"620 386 OFFCURVE",
"631 435 OFFCURVE",
"646 495 CURVE SMOOTH",
"671 596 OFFCURVE",
"739 582 OFFCURVE",
"826 584 CURVE SMOOTH",
"880 584 OFFCURVE",
"915 541 OFFCURVE",
"905 453 CURVE SMOOTH",
"905 450 OFFCURVE",
"903 435 OFFCURVE",
"903 435 CURVE",
"917 426 LINE",
"917 426 OFFCURVE",
"919 442 OFFCURVE",
"920 446 CURVE SMOOTH",
"925 491 OFFCURVE",
"926 515 OFFCURVE",
"934 559 CURVE SMOOTH"
);
}
);
};
layerId = "C36B7B90-196F-45C3-8412-B02CF16DA361";
paths = (
{
closed = 1;
nodes = (
"340 -14 OFFCURVE",
"373 -8 OFFCURVE",
"404 2 CURVE",
"436 4 OFFCURVE",
"462 5 OFFCURVE",
"477 5 CURVE SMOOTH",
"520 6 OFFCURVE",
"554 8 OFFCURVE",
"590 8 CURVE SMOOTH",
"610 8 OFFCURVE",
"630 8 OFFCURVE",
"653 6 CURVE SMOOTH",
"728 0 OFFCURVE",
"779 -4 OFFCURVE",
"812 -4 CURVE SMOOTH",
"833 -4 OFFCURVE",
"846 -3 OFFCURVE",
"853 2 CURVE SMOOTH",
"901 34 OFFCURVE",
"922 147 OFFCURVE",
"934 178 CURVE",
"935 183 OFFCURVE",
"931 189 OFFCURVE",
"928 189 CURVE SMOOTH",
"927 189 OFFCURVE",
"926 188 OFFCURVE",
"925 186 CURVE SMOOTH",
"885 97 OFFCURVE",
"809 34 OFFCURVE",
"707 34 CURVE SMOOTH",
"603 34 OFFCURVE",
"579 67 OFFCURVE",
"584 116 CURVE SMOOTH",
"590 196 OFFCURVE",
"605 257 OFFCURVE",
"612 318 CURVE",
"647 317 OFFCURVE",
"691 316 OFFCURVE",
"762 316 CURVE SMOOTH",
"782 316 OFFCURVE",
"800 317 OFFCURVE",
"817 325 CURVE SMOOTH",
"835 334 OFFCURVE",
"867 352 OFFCURVE",
"876 374 CURVE SMOOTH",
"879 381 OFFCURVE",
"879 384 OFFCURVE",
"872 380 CURVE",
"861 370 OFFCURVE",
"797 359 OFFCURVE",
"750 357 CURVE SMOOTH",
"701 355 OFFCURVE",
"656 352 OFFCURVE",
"616 350 CURVE",
"622 398 OFFCURVE",
"630 449 OFFCURVE",
"641 509 CURVE SMOOTH",
"655 595 OFFCURVE",
"707 601 OFFCURVE",
"775 601 CURVE SMOOTH",
"819 601 LINE SMOOTH",
"876 601 OFFCURVE",
"915 553 OFFCURVE",
"909 457 CURVE SMOOTH",
"908 447 OFFCURVE",
"914 442 OFFCURVE",
"918 442 CURVE SMOOTH",
"921 442 OFFCURVE",
"923 444 OFFCURVE",
"923 448 CURVE SMOOTH",
"927 503 OFFCURVE",
"926 527 OFFCURVE",
"932 575 CURVE SMOOTH",
"936 626 OFFCURVE",
"927 642 OFFCURVE",
"882 640 CURVE SMOOTH",
"787 635 OFFCURVE",
"711 635 OFFCURVE",
"617 634 CURVE SMOOTH",
"579 634 LINE SMOOTH",
"548 634 OFFCURVE",
"515 634 OFFCURVE",
"482 635 CURVE",
"445 648 OFFCURVE",
"406 654 OFFCURVE",
"366 654 CURVE SMOOTH",
"280 654 OFFCURVE",
"198 614 OFFCURVE",
"133 553 CURVE SMOOTH",
"53 477 OFFCURVE",
"4 366 OFFCURVE",
"4 264 CURVE SMOOTH",
"4 219 OFFCURVE",
"14 176 OFFCURVE",
"34 138 CURVE SMOOTH",
"92 30 OFFCURVE",
"199 -14 OFFCURVE",
"306 -14 CURVE SMOOTH"
);
},
{
closed = 1;
nodes = (
"326 38 OFFCURVE",
"250 75 OFFCURVE",
"184 132 CURVE SMOOTH",
"114 191 OFFCURVE",
"87 270 OFFCURVE",
"87 343 CURVE SMOOTH",
"87 419 OFFCURVE",
"117 490 OFFCURVE",
"158 527 CURVE SMOOTH",
"203 568 OFFCURVE",
"270 580 OFFCURVE",
"328 580 CURVE SMOOTH",
"371 580 OFFCURVE",
"409 573 OFFCURVE",
"428 568 CURVE SMOOTH",
"494 550 OFFCURVE",
"537 526 OFFCURVE",
"544 506 CURVE",
"542 475 OFFCURVE",
"526 382 OFFCURVE",
"521 343 CURVE",
"512 342 OFFCURVE",
"502 341 OFFCURVE",
"497 341 CURVE",
"485 337 OFFCURVE",
"462 326 OFFCURVE",
"462 320 CURVE SMOOTH",
"462 316 OFFCURVE",
"468 315 OFFCURVE",
"486 316 CURVE SMOOTH",
"495 317 OFFCURVE",
"508 317 OFFCURVE",
"517 318 CURVE",
"511 275 OFFCURVE",
"474 67 OFFCURVE",
"471 58 CURVE",
"448 44 OFFCURVE",
"421 38 OFFCURVE",
"393 38 CURVE SMOOTH"
);
}
);
width = 919;
}
);
note = OE;
unicode = 0152;
},
{
color = 3;
glyphname = P;
lastChange = "2021-10-14 18:20:22 +0000";
layers = (
{
layerId = "C36B7B90-196F-45C3-8412-B02CF16DA361";
paths = (
{
closed = 1;
nodes = (
"453 -4 OFFCURVE",
"462 9 OFFCURVE",
"462 14 CURVE SMOOTH",
"462 16 OFFCURVE",
"461 17 OFFCURVE",
"459 17 CURVE SMOOTH",
"446 16 OFFCURVE",
"429 15 OFFCURVE",
"413 15 CURVE SMOOTH",
"394 15 OFFCURVE",
"376 16 OFFCURVE",
"363 18 CURVE SMOOTH",
"335 21 OFFCURVE",
"314 43 OFFCURVE",
"312 73 CURVE SMOOTH",
"308 119 OFFCURVE",
"322 203 OFFCURVE",
"325 220 CURVE SMOOTH",
"358 398 OFFCURVE",
"380 471 OFFCURVE",
"389 496 CURVE SMOOTH",
"414 561 OFFCURVE",
"438 609 OFFCURVE",
"499 609 CURVE SMOOTH",
"558 609 OFFCURVE",
"591 553 OFFCURVE",
"586 479 CURVE SMOOTH",
"578 352 OFFCURVE",
"496 235 OFFCURVE",
"406 235 CURVE SMOOTH",
"396 235 OFFCURVE",
"386 238 OFFCURVE",
"377 245 CURVE SMOOTH",
"369 252 OFFCURVE",
"363 263 OFFCURVE",
"354 273 CURVE SMOOTH",
"348 279 OFFCURVE",
"340 268 OFFCURVE",
"340 256 CURVE SMOOTH",
"340 250 OFFCURVE",
"342 244 OFFCURVE",
"346 239 CURVE SMOOTH",
"353 231 OFFCURVE",
"372 221 OFFCURVE",
"406 221 CURVE SMOOTH",
"428 221 OFFCURVE",
"457 225 OFFCURVE",
"494 239 CURVE SMOOTH",
"581 273 OFFCURVE",
"674 365 OFFCURVE",
"692 458 CURVE SMOOTH",
"695 473 OFFCURVE",
"696 487 OFFCURVE",
"696 500 CURVE SMOOTH",
"696 588 OFFCURVE",
"631 631 OFFCURVE",
"559 634 CURVE SMOOTH",
"496 637 OFFCURVE",
"425 617 OFFCURVE",
"383 616 CURVE SMOOTH",
"365 616 LINE SMOOTH",
"302 616 OFFCURVE",
"222 620 OFFCURVE",
"167 620 CURVE SMOOTH",
"160 620 OFFCURVE",
"152 612 OFFCURVE",
"152 607 CURVE SMOOTH",
"152 605 OFFCURVE",
"153 603 OFFCURVE",
"157 603 CURVE SMOOTH",
"171 604 OFFCURVE",
"247 602 OFFCURVE",
"267 599 CURVE SMOOTH",
"284 596 OFFCURVE",
"302 574 OFFCURVE",
"298 548 CURVE SMOOTH",
"273 403 OFFCURVE",
"249 274 OFFCURVE",
"208 129 CURVE SMOOTH",
"179 29 OFFCURVE",
"176 16 OFFCURVE",
"104 16 CURVE SMOOTH",
"85 16 OFFCURVE",
"60 17 OFFCURVE",
"28 17 CURVE",
"22 18 OFFCURVE",
"13 8 OFFCURVE",
"13 3 CURVE SMOOTH",
"13 1 OFFCURVE",
"14 0 OFFCURVE",
"16 0 CURVE SMOOTH",
"17 0 LINE SMOOTH",
"81 -1 OFFCURVE",
"162 3 OFFCURVE",
"192 3 CURVE SMOOTH",
"235 4 OFFCURVE",
"293 1 OFFCURVE",
"445 -2 CURVE"
);
}
);
width = 673;
}
);
note = P;
unicode = 0050;
},
{
color = 3;
glyphname = Thorn;
lastChange = "2021-10-14 18:20:22 +0000";
layers = (
{
layerId = "C36B7B90-196F-45C3-8412-B02CF16DA361";
paths = (
{
closed = 1;
nodes = (
"453 -4 OFFCURVE",
"462 9 OFFCURVE",
"462 14 CURVE SMOOTH",
"462 16 OFFCURVE",
"461 17 OFFCURVE",
"459 17 CURVE SMOOTH",
"446 16 OFFCURVE",
"429 15 OFFCURVE",
"413 15 CURVE SMOOTH",
"394 15 OFFCURVE",
"376 16 OFFCURVE",
"363 18 CURVE SMOOTH",
"335 21 OFFCURVE",
"314 43 OFFCURVE",
"312 73 CURVE SMOOTH",
"311 83 OFFCURVE",
"311 93 OFFCURVE",
"311 103 CURVE SMOOTH",
"311 140 OFFCURVE",
"316 176 OFFCURVE",
"318 189 CURVE SMOOTH",
"351 367 OFFCURVE",
"373 440 OFFCURVE",
"382 465 CURVE SMOOTH",
"407 530 OFFCURVE",
"431 578 OFFCURVE",
"492 578 CURVE SMOOTH",
"551 578 OFFCURVE",
"584 522 OFFCURVE",
"579 448 CURVE SMOOTH",
"571 321 OFFCURVE",
"489 204 OFFCURVE",
"399 204 CURVE SMOOTH",
"389 204 OFFCURVE",
"379 207 OFFCURVE",
"370 214 CURVE SMOOTH",
"362 221 OFFCURVE",
"356 232 OFFCURVE",
"347 242 CURVE SMOOTH",
"341 248 OFFCURVE",
"333 237 OFFCURVE",
"333 225 CURVE SMOOTH",
"333 219 OFFCURVE",
"335 213 OFFCURVE",
"339 208 CURVE SMOOTH",
"346 200 OFFCURVE",
"365 190 OFFCURVE",
"399 190 CURVE SMOOTH",
"421 190 OFFCURVE",
"450 194 OFFCURVE",
"487 208 CURVE SMOOTH",
"574 242 OFFCURVE",
"667 334 OFFCURVE",
"685 427 CURVE SMOOTH",
"688 442 OFFCURVE",
"689 456 OFFCURVE",
"689 469 CURVE SMOOTH",
"689 557 OFFCURVE",
"624 600 OFFCURVE",
"552 603 CURVE SMOOTH",
"539 604 OFFCURVE",
"526 604 OFFCURVE",
"512 604 CURVE SMOOTH",
"482 604 OFFCURVE",
"449 601 OFFCURVE",
"410 582 CURVE",
"423 632 OFFCURVE",
"448 714 OFFCURVE",
"448 745 CURVE SMOOTH",
"448 751 OFFCURVE",
"447 755 OFFCURVE",
"445 757 CURVE SMOOTH",
"444 758 OFFCURVE",
"441 758 OFFCURVE",
"436 758 CURVE SMOOTH",
"421 758 OFFCURVE",
"391 755 OFFCURVE",
"351 755 CURVE SMOOTH",
"328 755 OFFCURVE",
"248 759 OFFCURVE",
"193 759 CURVE SMOOTH",
"186 759 OFFCURVE",
"178 751 OFFCURVE",
"178 746 CURVE SMOOTH",
"178 744 OFFCURVE",
"179 742 OFFCURVE",
"183 742 CURVE SMOOTH",
"197 743 OFFCURVE",
"273 741 OFFCURVE",
"293 738 CURVE SMOOTH",
"308 735 OFFCURVE",
"325 718 OFFCURVE",
"325 695 CURVE SMOOTH",
"325 693 OFFCURVE",
"325 690 OFFCURVE",
"324 687 CURVE SMOOTH",
"292 511 OFFCURVE",
"242 243 OFFCURVE",
"208 129 CURVE SMOOTH",
"178 29 OFFCURVE",
"175 15 OFFCURVE",
"108 15 CURVE SMOOTH",
"88 15 OFFCURVE",
"62 17 OFFCURVE",
"28 17 CURVE",
"22 18 OFFCURVE",
"13 8 OFFCURVE",
"13 3 CURVE SMOOTH",
"13 1 OFFCURVE",
"14 0 OFFCURVE",
"16 0 CURVE SMOOTH",
"17 0 LINE SMOOTH",
"81 -1 OFFCURVE",
"162 3 OFFCURVE",
"192 3 CURVE SMOOTH",
"235 4 OFFCURVE",
"293 1 OFFCURVE",
"445 -2 CURVE"
);
}
);
width = 673;
}
);
unicode = 00DE;
},
{
color = 3;
glyphname = Q;
lastChange = "2021-10-14 18:20:22 +0000";
layers = (
{
layerId = "C36B7B90-196F-45C3-8412-B02CF16DA361";
paths = (
{
closed = 1;
nodes = (
"516 -285 OFFCURVE",
"556 -255 OFFCURVE",
"574 -226 CURVE SMOOTH",
"580 -217 OFFCURVE",
"582 -203 OFFCURVE",
"606 -203 CURVE SMOOTH",
"617 -203 OFFCURVE",
"621 -198 OFFCURVE",
"621 -194 CURVE SMOOTH",
"621 -191 OFFCURVE",
"618 -188 OFFCURVE",
"614 -188 CURVE SMOOTH",
"613 -188 LINE SMOOTH",
"603 -189 OFFCURVE",
"568 -197 OFFCURVE",
"520 -196 CURVE SMOOTH",
"441 -193 OFFCURVE",
"246 -127 OFFCURVE",
"164 -75 CURVE",
"239 -60 OFFCURVE",
"306 -44 OFFCURVE",
"368 -18 CURVE SMOOTH",
"522 46 OFFCURVE",
"677 212 OFFCURVE",
"677 380 CURVE SMOOTH",
"677 416 OFFCURVE",
"669 452 OFFCURVE",
"653 488 CURVE SMOOTH",
"604 593 OFFCURVE",
"502 636 OFFCURVE",
"397 636 CURVE SMOOTH",
"312 636 OFFCURVE",
"229 598 OFFCURVE",
"162 538 CURVE SMOOTH",
"72 458 OFFCURVE",
"16 339 OFFCURVE",
"16 234 CURVE SMOOTH",
"16 198 OFFCURVE",
"23 163 OFFCURVE",
"37 132 CURVE SMOOTH",
"71 60 OFFCURVE",
"130 17 OFFCURVE",
"197 -3 CURVE SMOOTH",
"201 -4 OFFCURVE",
"205 -5 OFFCURVE",
"209 -5 CURVE SMOOTH",
"234 -5 OFFCURVE",
"260 19 OFFCURVE",
"303 38 CURVE SMOOTH",
"320 45 OFFCURVE",
"326 49 OFFCURVE",
"326 53 CURVE SMOOTH",
"326 56 OFFCURVE",
"320 57 OFFCURVE",
"310 59 CURVE SMOOTH",
"262 66 OFFCURVE",
"215 86 OFFCURVE",
"174 124 CURVE SMOOTH",
"116 177 OFFCURVE",
"94 244 OFFCURVE",
"94 309 CURVE SMOOTH",
"94 448 OFFCURVE",
"203 578 OFFCURVE",
"347 578 CURVE SMOOTH",
"487 578 OFFCURVE",
"600 467 OFFCURVE",
"600 333 CURVE SMOOTH",
"600 207 OFFCURVE",
"480 66 OFFCURVE",
"351 2 CURVE SMOOTH",
"324 -12 OFFCURVE",
"182 -64 OFFCURVE",
"137 -64 CURVE SMOOTH",
"128 -64 OFFCURVE",
"123 -63 OFFCURVE",
"123 -58 CURVE SMOOTH",
"123 -61 OFFCURVE",
"126 -66 OFFCURVE",
"130 -71 CURVE SMOOTH",
"174 -124 OFFCURVE",
"335 -265 OFFCURVE",
"469 -280 CURVE SMOOTH"
);
}
);
width = 651;
}
);
note = Q;
unicode = 0051;
},
{
color = 3;
glyphname = R;
lastChange = "2021-10-14 18:20:22 +0000";
layers = (
{
layerId = "C36B7B90-196F-45C3-8412-B02CF16DA361";
paths = (
{
closed = 1;
nodes = (
"666 -63 OFFCURVE",
"691 -54 OFFCURVE",
"707 -43 CURVE SMOOTH",
"714 -39 OFFCURVE",
"719 -31 OFFCURVE",
"730 -31 CURVE SMOOTH",
"734 -31 OFFCURVE",
"739 -32 OFFCURVE",
"745 -35 CURVE SMOOTH",
"749 -37 OFFCURVE",
"752 -38 OFFCURVE",
"755 -38 CURVE SMOOTH",
"760 -38 OFFCURVE",
"763 -34 OFFCURVE",
"763 -30 CURVE SMOOTH",
"763 -27 OFFCURVE",
"761 -24 OFFCURVE",
"758 -23 CURVE SMOOTH",
"747 -20 OFFCURVE",
"719 -9 OFFCURVE",
"700 3 CURVE SMOOTH",
"655 30 OFFCURVE",
"453 214 OFFCURVE",
"406 279 CURVE",
"410 278 OFFCURVE",
"415 278 OFFCURVE",
"421 278 CURVE SMOOTH",
"440 278 OFFCURVE",
"466 282 OFFCURVE",
"503 294 CURVE SMOOTH",
"590 323 OFFCURVE",
"677 401 OFFCURVE",
"694 481 CURVE SMOOTH",
"697 494 OFFCURVE",
"698 506 OFFCURVE",
"698 517 CURVE SMOOTH",
"698 596 OFFCURVE",
"630 634 OFFCURVE",
"551 634 CURVE SMOOTH",
"491 634 OFFCURVE",
"422 616 OFFCURVE",
"383 616 CURVE SMOOTH",
"365 616 LINE SMOOTH",
"302 616 OFFCURVE",
"222 620 OFFCURVE",
"167 620 CURVE SMOOTH",
"160 620 OFFCURVE",
"152 612 OFFCURVE",
"152 607 CURVE SMOOTH",
"152 605 OFFCURVE",
"153 603 OFFCURVE",
"157 603 CURVE SMOOTH",
"171 604 OFFCURVE",
"247 602 OFFCURVE",
"267 599 CURVE SMOOTH",
"284 596 OFFCURVE",
"302 574 OFFCURVE",
"298 548 CURVE SMOOTH",
"273 403 OFFCURVE",
"249 274 OFFCURVE",
"208 129 CURVE SMOOTH",
"179 29 OFFCURVE",
"176 16 OFFCURVE",
"104 16 CURVE SMOOTH",
"85 16 OFFCURVE",
"60 17 OFFCURVE",
"28 17 CURVE",
"22 18 OFFCURVE",
"13 8 OFFCURVE",
"13 3 CURVE SMOOTH",
"13 1 OFFCURVE",
"14 0 OFFCURVE",
"16 0 CURVE SMOOTH",
"17 0 LINE SMOOTH",
"81 -1 OFFCURVE",
"162 3 OFFCURVE",
"192 3 CURVE SMOOTH",
"236 3 OFFCURVE",
"290 1 OFFCURVE",
"450 -2 CURVE",
"458 -4 OFFCURVE",
"467 9 OFFCURVE",
"467 14 CURVE SMOOTH",
"467 16 OFFCURVE",
"466 17 OFFCURVE",
"464 17 CURVE SMOOTH",
"451 16 OFFCURVE",
"435 15 OFFCURVE",
"418 15 CURVE SMOOTH",
"399 15 OFFCURVE",
"381 16 OFFCURVE",
"368 18 CURVE SMOOTH",
"339 21 OFFCURVE",
"320 43 OFFCURVE",
"317 73 CURVE SMOOTH",
"316 79 OFFCURVE",
"316 87 OFFCURVE",
"316 94 CURVE SMOOTH",
"316 141 OFFCURVE",
"327 205 OFFCURVE",
"330 220 CURVE SMOOTH",
"363 398 OFFCURVE",
"385 471 OFFCURVE",
"394 496 CURVE SMOOTH",
"419 561 OFFCURVE",
"444 609 OFFCURVE",
"504 609 CURVE SMOOTH",
"563 609 OFFCURVE",
"586 561 OFFCURVE",
"582 502 CURVE SMOOTH",
"577 432 OFFCURVE",
"504 283 OFFCURVE",
"423 292 CURVE SMOOTH",
"382 297 OFFCURVE",
"392 323 OFFCURVE",
"380 323 CURVE SMOOTH",
"373 323 OFFCURVE",
"366 314 OFFCURVE",
"366 306 CURVE SMOOTH",
"366 301 OFFCURVE",
"368 296 OFFCURVE",
"374 293 CURVE SMOOTH",
"384 287 OFFCURVE",
"410 231 OFFCURVE",
"424 187 CURVE SMOOTH",
"452 104 OFFCURVE",
"535 -61 OFFCURVE",
"642 -63 CURVE SMOOTH"
);
}
);
width = 680;
}
);
note = R;
unicode = 0052;
},
{
color = 3;
glyphname = S;
lastChange = "2021-10-14 18:20:22 +0000";
layers = (
{
layerId = "C36B7B90-196F-45C3-8412-B02CF16DA361";
paths = (
{
closed = 1;
nodes = (
"346 -12 OFFCURVE",
"524 134 OFFCURVE",
"534 273 CURVE SMOOTH",
"537 322 OFFCURVE",
"504 362 OFFCURVE",
"396 366 CURVE SMOOTH",
"361 368 OFFCURVE",
"211 364 OFFCURVE",
"218 456 CURVE SMOOTH",
"225 550 OFFCURVE",
"294 593 OFFCURVE",
"362 593 CURVE SMOOTH",
"427 593 OFFCURVE",
"490 552 OFFCURVE",
"490 478 CURVE SMOOTH",
"490 463 OFFCURVE",
"487 446 OFFCURVE",
"481 427 CURVE",
"478 422 OFFCURVE",
"477 417 OFFCURVE",
"477 414 CURVE SMOOTH",
"477 410 OFFCURVE",
"478 407 OFFCURVE",
"481 407 CURVE SMOOTH",
"484 407 OFFCURVE",
"488 410 OFFCURVE",
"492 418 CURVE SMOOTH",
"517 472 OFFCURVE",
"526 483 OFFCURVE",
"551 514 CURVE SMOOTH",
"564 530 OFFCURVE",
"571 542 OFFCURVE",
"571 555 CURVE SMOOTH",
"571 566 OFFCURVE",
"567 578 OFFCURVE",
"557 595 CURVE SMOOTH",
"538 626 OFFCURVE",
"496 640 OFFCURVE",
"444 640 CURVE SMOOTH",
"311 640 OFFCURVE",
"116 548 OFFCURVE",
"107 420 CURVE SMOOTH",
"103 363 OFFCURVE",
"155 306 OFFCURVE",
"254 299 CURVE SMOOTH",
"336 294 OFFCURVE",
"434 291 OFFCURVE",
"428 202 CURVE SMOOTH",
"420 99 OFFCURVE",
"332 42 OFFCURVE",
"250 42 CURVE SMOOTH",
"176 42 OFFCURVE",
"107 88 OFFCURVE",
"107 189 CURVE SMOOTH",
"107 195 OFFCURVE",
"107 202 OFFCURVE",
"108 209 CURVE SMOOTH",
"110 227 OFFCURVE",
"119 257 OFFCURVE",
"114 260 CURVE SMOOTH",
"102 267 OFFCURVE",
"100 243 OFFCURVE",
"94 228 CURVE SMOOTH",
"68 156 OFFCURVE",
"59 136 OFFCURVE",
"32 101 CURVE SMOOTH",
"27 95 OFFCURVE",
"26 89 OFFCURVE",
"26 82 CURVE SMOOTH",
"26 59 OFFCURVE",
"50 31 OFFCURVE",
"60 18 CURVE SMOOTH",
"77 -5 OFFCURVE",
"109 -12 OFFCURVE",
"143 -12 CURVE SMOOTH"
);
}
);
width = 539;
}
);
note = S;
unicode = 0053;
},
{
color = 3;
glyphname = Germandbls;
lastChange = "2021-10-14 18:20:22 +0000";
layers = (
{
background = {
hints = (
{
horizontal = 1;
place = "{-5, 62}";
type = Stem;
},
{
place = "{138, 67}";
type = Stem;
},
{
place = "{830, 85}";
type = Stem;
}
);
paths = (
{
closed = 1;
nodes = (
"912 899 OFFCURVE",
"904 902 OFFCURVE",
"888 902 CURVE SMOOTH",
"844 904 OFFCURVE",
"810 901 OFFCURVE",
"750 874 CURVE",
"753 866 LINE",
"841 896 OFFCURVE",
"887 849 OFFCURVE",
"864 768 CURVE",
"876 757 LINE",
"875 768 OFFCURVE",
"877 778 OFFCURVE",
"881 790 CURVE SMOOTH",
"884 801 OFFCURVE",
"889 815 OFFCURVE",
"894 828 CURVE SMOOTH",
"901 847 OFFCURVE",
"908 866 OFFCURVE",
"910 881 CURVE SMOOTH"
);
},
{
closed = 1;
nodes = (
"872 305 OFFCURVE",
"825 347 OFFCURVE",
"786 374 CURVE SMOOTH",
"759 391 OFFCURVE",
"731 409 OFFCURVE",
"701 422 CURVE",
"767 450 OFFCURVE",
"780 461 OFFCURVE",
"831 512 CURVE SMOOTH",
"943 623 OFFCURVE",
"801 757 OFFCURVE",
"651 784 CURVE",
"690 868 OFFCURVE",
"721 886 OFFCURVE",
"811 906 CURVE",
"808 914 LINE",
"787 910 OFFCURVE",
"721 894 OFFCURVE",
"685 869 CURVE SMOOTH",
"645 841 OFFCURVE",
"613 818 OFFCURVE",
"586 790 CURVE",
"561 791 OFFCURVE",
"535 789 OFFCURVE",
"509 786 CURVE",
"540 889 OFFCURVE",
"556 966 OFFCURVE",
"552 995 CURVE SMOOTH",
"550 1005 OFFCURVE",
"535 1003 OFFCURVE",
"536 993 CURVE SMOOTH",
"540 972 OFFCURVE",
"519 893 OFFCURVE",
"484 783 CURVE",
"400 769 OFFCURVE",
"320 739 OFFCURVE",
"264 697 CURVE SMOOTH",
"165 623 OFFCURVE",
"99 517 OFFCURVE",
"165 404 CURVE SMOOTH",
"170 394 OFFCURVE",
"183 386 OFFCURVE",
"198 390 CURVE",
"198 390 OFFCURVE",
"280 424 OFFCURVE",
"309 435 CURVE",
"306 443 LINE",
"283 436 OFFCURVE",
"264 428 OFFCURVE",
"242 446 CURVE SMOOTH",
"231 456 OFFCURVE",
"217 481 OFFCURVE",
"210 509 CURVE SMOOTH",
"192 582 OFFCURVE",
"223 641 OFFCURVE",
"274 682 CURVE SMOOTH",
"325 723 OFFCURVE",
"398 745 OFFCURVE",
"473 748 CURVE",
"453 687 OFFCURVE",
"429 619 OFFCURVE",
"403 548 CURVE",
"340 511 LINE",
"355 495 OFFCURVE",
"365 482 OFFCURVE",
"374 468 CURVE",
"364 442 OFFCURVE",
"354 415 OFFCURVE",
"343 388 CURVE",
"286 355 LINE",
"299 341 OFFCURVE",
"308 329 OFFCURVE",
"316 317 CURVE",
"281 230 OFFCURVE",
"245 144 OFFCURVE",
"210 66 CURVE",
"168 69 OFFCURVE",
"136 70 OFFCURVE",
"122 67 CURVE SMOOTH",
"61 54 OFFCURVE",
"-9 -28 OFFCURVE",
"-38 -50 CURVE",
"-33 -59 LINE",
"44 -1 OFFCURVE",
"104 5 OFFCURVE",
"180 2 CURVE",
"144 -73 OFFCURVE",
"110 -137 OFFCURVE",
"80 -182 CURVE SMOOTH",
"74 -191 OFFCURVE",
"87 -199 OFFCURVE",
"93 -191 CURVE SMOOTH",
"126 -141 OFFCURVE",
"162 -75 OFFCURVE",
"199 1 CURVE",
"229 -1 OFFCURVE",
"260 -4 OFFCURVE",
"296 -5 CURVE SMOOTH",
"372 -8 OFFCURVE",
"489 -13 OFFCURVE",
"561 -12 CURVE SMOOTH",
"703 -9 OFFCURVE",
"991 81 OFFCURVE",
"896 261 CURVE SMOOTH"
);
},
{
closed = 1;
nodes = (
"540 727 OFFCURVE",
"530 707 OFFCURVE",
"522 684 CURVE SMOOTH",
"499 621 OFFCURVE",
"480 557 OFFCURVE",
"459 491 CURVE",
"457 495 OFFCURVE",
"454 499 OFFCURVE",
"452 504 CURVE",
"444 517 OFFCURVE",
"436 529 OFFCURVE",
"426 541 CURVE",
"453 615 OFFCURVE",
"477 685 OFFCURVE",
"497 748 CURVE",
"515 748 OFFCURVE",
"533 747 OFFCURVE",
"551 744 CURVE"
);
},
{
closed = 1;
nodes = (
"889 62 OFFCURVE",
"737 60 OFFCURVE",
"633 51 CURVE SMOOTH",
"581 47 OFFCURVE",
"468 53 OFFCURVE",
"360 57 CURVE SMOOTH",
"326 59 OFFCURVE",
"293 61 OFFCURVE",
"261 63 CURVE",
"290 85 OFFCURVE",
"336 118 OFFCURVE",
"349 119 CURVE SMOOTH",
"394 123 OFFCURVE",
"437 170 OFFCURVE",
"451 213 CURVE SMOOTH",
"515 410 OFFCURVE",
"550 535 OFFCURVE",
"627 727 CURVE",
"775 675 OFFCURVE",
"887 510 OFFCURVE",
"691 428 CURVE",
"695 424 LINE",
"680 429 OFFCURVE",
"664 434 OFFCURVE",
"648 435 CURVE",
"554 389 LINE",
"639 381 OFFCURVE",
"767 292 OFFCURVE",
"807 217 CURVE SMOOTH"
);
},
{
closed = 1;
nodes = (
"452 467 LINE",
"438 423 OFFCURVE",
"423 377 OFFCURVE",
"406 331 CURVE",
"404 336 OFFCURVE",
"401 342 OFFCURVE",
"397 347 CURVE",
"389 362 OFFCURVE",
"380 375 OFFCURVE",
"368 388 CURVE",
"375 406 OFFCURVE",
"382 423 OFFCURVE",
"389 441 CURVE",
"393 433 LINE"
);
},
{
closed = 1;
nodes = (
"399 312 LINE",
"385 273 OFFCURVE",
"369 234 OFFCURVE",
"352 193 CURVE SMOOTH",
"323 129 OFFCURVE",
"300 101 OFFCURVE",
"244 64 CURVE",
"230 65 LINE",
"264 137 OFFCURVE",
"298 214 OFFCURVE",
"330 293 CURVE",
"333 288 OFFCURVE",
"335 283 OFFCURVE",
"338 277 CURVE"
);
}
);
};
layerId = "C36B7B90-196F-45C3-8412-B02CF16DA361";
paths = (
{
closed = 1;
nodes = (
"-54 -169 OFFCURVE",
"-52 -168 OFFCURVE",
"-49 -167 CURVE SMOOTH",
"-40 -165 OFFCURVE",
"-20 -157 OFFCURVE",
"-15 -155 CURVE SMOOTH",
"45 -137 OFFCURVE",
"59 -116 OFFCURVE",
"68 -78 CURVE SMOOTH",
"122 146 OFFCURVE",
"171 388 OFFCURVE",
"228 604 CURVE SMOOTH",
"235 628 OFFCURVE",
"289 648 OFFCURVE",
"341 650 CURVE SMOOTH",
"352 650 OFFCURVE",
"364 651 OFFCURVE",
"375 651 CURVE SMOOTH",
"420 651 OFFCURVE",
"462 645 OFFCURVE",
"462 608 CURVE SMOOTH",
"462 593 OFFCURVE",
"455 573 OFFCURVE",
"439 547 CURVE SMOOTH",
"395 476 OFFCURVE",
"354 439 OFFCURVE",
"327 416 CURVE SMOOTH",
"291 385 OFFCURVE",
"278 360 OFFCURVE",
"278 340 CURVE SMOOTH",
"278 307 OFFCURVE",
"312 286 OFFCURVE",
"349 267 CURVE SMOOTH",
"421 230 OFFCURVE",
"464 191 OFFCURVE",
"464 145 CURVE SMOOTH",
"464 133 OFFCURVE",
"461 121 OFFCURVE",
"455 108 CURVE SMOOTH",
"436 69 OFFCURVE",
"391 37 OFFCURVE",
"337 37 CURVE SMOOTH",
"275 37 OFFCURVE",
"242 85 OFFCURVE",
"242 143 CURVE SMOOTH",
"242 155 OFFCURVE",
"243 168 OFFCURVE",
"246 180 CURVE",
"235 192 LINE",
"235 179 OFFCURVE",
"232 169 OFFCURVE",
"228 156 CURVE SMOOTH",
"223 143 OFFCURVE",
"205 91 OFFCURVE",
"199 76 CURVE SMOOTH",
"188 47 OFFCURVE",
"177 17 OFFCURVE",
"180 0 CURVE",
"183 -4 LINE",
"211 -7 OFFCURVE",
"238 -9 OFFCURVE",
"264 -9 CURVE SMOOTH",
"340 -9 OFFCURVE",
"407 9 OFFCURVE",
"461 73 CURVE SMOOTH",
"498 116 OFFCURVE",
"518 164 OFFCURVE",
"518 201 CURVE SMOOTH",
"518 220 OFFCURVE",
"512 236 OFFCURVE",
"499 246 CURVE SMOOTH",
"464 272 OFFCURVE",
"419 289 OFFCURVE",
"362 315 CURVE SMOOTH",
"351 320 OFFCURVE",
"346 327 OFFCURVE",
"346 337 CURVE SMOOTH",
"346 368 OFFCURVE",
"394 428 OFFCURVE",
"497 542 CURVE SMOOTH",
"519 567 OFFCURVE",
"529 587 OFFCURVE",
"529 605 CURVE SMOOTH",
"529 656 OFFCURVE",
"446 678 OFFCURVE",
"362 678 CURVE SMOOTH",
"245 678 OFFCURVE",
"180 666 OFFCURVE",
"167 617 CURVE SMOOTH",
"149 550 OFFCURVE",
"140 510 OFFCURVE",
"131 466 CURVE SMOOTH",
"113 383 OFFCURVE",
"3 -118 OFFCURVE",
"-52 -155 CURVE",
"-58 -160 OFFCURVE",
"-61 -164 OFFCURVE",
"-61 -166 CURVE SMOOTH",
"-61 -168 OFFCURVE",
"-59 -169 OFFCURVE",
"-56 -169 CURVE SMOOTH"
);
},
{
closed = 1;
nodes = (
"-109 -195 OFFCURVE",
"-106 -194 OFFCURVE",
"-105 -191 CURVE",
"-82 -147 OFFCURVE",
"-60 -91 OFFCURVE",
"-39 -26 CURVE SMOOTH",
"-20 34 OFFCURVE",
"16 155 OFFCURVE",
"32 221 CURVE",
"92 264 LINE",
"91 264 OFFCURVE",
"51 300 OFFCURVE",
"50 300 CURVE",
"54 315 OFFCURVE",
"60 344 OFFCURVE",
"64 359 CURVE",
"116 388 LINE",
"77 428 LINE",
"89 489 OFFCURVE",
"99 548 OFFCURVE",
"106 599 CURVE SMOOTH",
"112 651 OFFCURVE",
"116 706 OFFCURVE",
"116 746 CURVE SMOOTH",
"116 771 OFFCURVE",
"114 791 OFFCURVE",
"111 799 CURVE",
"109 802 OFFCURVE",
"106 803 OFFCURVE",
"103 803 CURVE SMOOTH",
"99 803 OFFCURVE",
"95 801 OFFCURVE",
"95 797 CURVE SMOOTH",
"95 795 LINE",
"98 791 OFFCURVE",
"99 780 OFFCURVE",
"99 765 CURVE SMOOTH",
"99 727 OFFCURVE",
"91 661 OFFCURVE",
"82 596 CURVE SMOOTH",
"75 545 OFFCURVE",
"65 489 OFFCURVE",
"53 430 CURVE",
"-1 391 LINE",
"17 381 OFFCURVE",
"29 373 OFFCURVE",
"41 364 CURVE",
"36 341 OFFCURVE",
"31 319 OFFCURVE",
"29 303 CURVE",
"-24 273 LINE",
"-19 267 OFFCURVE",
"7 245 OFFCURVE",
"14 237 CURVE",
"-4 165 OFFCURVE",
"-38 39 OFFCURVE",
"-57 -28 CURVE SMOOTH",
"-78 -91 OFFCURVE",
"-99 -147 OFFCURVE",
"-119 -186 CURVE SMOOTH",
"-122 -191 OFFCURVE",
"-117 -195 OFFCURVE",
"-112 -195 CURVE SMOOTH"
);
}
);
width = 551;
}
);
unicode = 1E9E;
},
{
color = 3;
glyphname = Schwa;
lastChange = "2021-10-14 18:20:22 +0000";
layers = (
{
layerId = "C36B7B90-196F-45C3-8412-B02CF16DA361";
paths = (
{
closed = 1;
nodes = (
"367 -23 OFFCURVE",
"580 162 OFFCURVE",
"595 385 CURVE SMOOTH",
"598 424 OFFCURVE",
"592 463 OFFCURVE",
"579 497 CURVE SMOOTH",
"538 607 OFFCURVE",
"438 652 OFFCURVE",
"333 652 CURVE SMOOTH",
"292 652 OFFCURVE",
"249 646 OFFCURVE",
"209 635 CURVE SMOOTH",
"169 624 OFFCURVE",
"148 595 OFFCURVE",
"126 559 CURVE SMOOTH",
"105 525 OFFCURVE",
"38 450 OFFCURVE",
"38 450 CURVE",
"45 436 LINE",
"57 452 OFFCURVE",
"69 467 OFFCURVE",
"83 481 CURVE SMOOTH",
"138 534 OFFCURVE",
"225 568 OFFCURVE",
"295 568 CURVE SMOOTH",
"445 568 OFFCURVE",
"515 486 OFFCURVE",
"515 350 CURVE SMOOTH",
"515 341 OFFCURVE",
"515 332 OFFCURVE",
"514 322 CURVE SMOOTH",
"503 152 OFFCURVE",
"352 43 OFFCURVE",
"207 43 CURVE SMOOTH",
"132 43 OFFCURVE",
"113 78 OFFCURVE",
"113 139 CURVE SMOOTH",
"113 170 OFFCURVE",
"122 238 OFFCURVE",
"170 278 CURVE SMOOTH",
"260 354 OFFCURVE",
"432 383 OFFCURVE",
"519 383 CURVE SMOOTH",
"545 383 OFFCURVE",
"554 388 OFFCURVE",
"554 396 CURVE SMOOTH",
"554 405 OFFCURVE",
"540 417 OFFCURVE",
"530 424 CURVE",
"530 424 OFFCURVE",
"292 398 OFFCURVE",
"152 331 CURVE SMOOTH",
"33 274 OFFCURVE",
"30 188 OFFCURVE",
"30 129 CURVE SMOOTH",
"30 11 OFFCURVE",
"97 -23 OFFCURVE",
"180 -23 CURVE SMOOTH"
);
}
);
width = 626;
}
);
unicode = 018F;
},
{
color = 3;
glyphname = T;
lastChange = "2021-10-14 18:20:22 +0000";
layers = (
{
layerId = "C36B7B90-196F-45C3-8412-B02CF16DA361";
paths = (
{
closed = 1;
nodes = (
"50 0 LINE SMOOTH",
"114 -1 OFFCURVE",
"195 2 OFFCURVE",
"224 3 CURVE SMOOTH",
"237 4 OFFCURVE",
"254 4 OFFCURVE",
"272 4 CURVE SMOOTH",
"346 4 OFFCURVE",
"450 0 OFFCURVE",
"502 0 CURVE SMOOTH",
"509 0 OFFCURVE",
"517 9 OFFCURVE",
"517 14 CURVE SMOOTH",
"517 16 OFFCURVE",
"516 18 OFFCURVE",
"512 18 CURVE SMOOTH",
"482 16 OFFCURVE",
"381 19 OFFCURVE",
"361 22 CURVE SMOOTH",
"338 26 OFFCURVE",
"334 49 OFFCURVE",
"334 72 CURVE SMOOTH",
"334 86 OFFCURVE",
"336 100 OFFCURVE",
"336 108 CURVE SMOOTH",
"337 147 OFFCURVE",
"402 499 OFFCURVE",
"415 514 CURVE SMOOTH",
"426 527 OFFCURVE",
"434 567 OFFCURVE",
"531 568 CURVE SMOOTH",
"580 568 OFFCURVE",
"614 546 OFFCURVE",
"614 479 CURVE SMOOTH",
"614 469 OFFCURVE",
"613 457 OFFCURVE",
"611 444 CURVE SMOOTH",
"609 434 OFFCURVE",
"614 429 OFFCURVE",
"618 429 CURVE SMOOTH",
"621 429 OFFCURVE",
"624 431 OFFCURVE",
"625 435 CURVE SMOOTH",
"632 488 OFFCURVE",
"632 512 OFFCURVE",
"641 559 CURVE SMOOTH",
"643 570 OFFCURVE",
"644 580 OFFCURVE",
"644 588 CURVE SMOOTH",
"644 615 OFFCURVE",
"632 625 OFFCURVE",
"598 623 CURVE SMOOTH",
"514 619 OFFCURVE",
"475 615 OFFCURVE",
"403 615 CURVE SMOOTH",
"318 615 OFFCURVE",
"234 621 OFFCURVE",
"184 625 CURVE SMOOTH",
"130 628 OFFCURVE",
"122 577 OFFCURVE",
"101 519 CURVE SMOOTH",
"89 487 OFFCURVE",
"81 458 OFFCURVE",
"75 442 CURVE SMOOTH",
"73 437 OFFCURVE",
"78 431 OFFCURVE",
"81 431 CURVE SMOOTH",
"83 431 OFFCURVE",
"84 432 OFFCURVE",
"85 434 CURVE SMOOTH",
"121 522 OFFCURVE",
"170 577 OFFCURVE",
"250 577 CURVE SMOOTH",
"305 577 OFFCURVE",
"324 569 OFFCURVE",
"324 535 CURVE SMOOTH",
"324 525 OFFCURVE",
"322 512 OFFCURVE",
"319 497 CURVE SMOOTH",
"297 374 OFFCURVE",
"272 250 OFFCURVE",
"239 130 CURVE SMOOTH",
"211 28 OFFCURVE",
"209 16 OFFCURVE",
"113 16 CURVE SMOOTH",
"98 16 OFFCURVE",
"80 17 OFFCURVE",
"60 17 CURVE",
"55 18 OFFCURVE",
"46 8 OFFCURVE",
"46 3 CURVE SMOOTH",
"46 1 OFFCURVE",
"47 0 OFFCURVE",
"49 0 CURVE SMOOTH"
);
}
);
width = 602;
}
);
note = T;
unicode = 0054;
},
{
color = 3;
glyphname = U;
lastChange = "2021-10-14 18:20:22 +0000";
layers = (
{
layerId = "C36B7B90-196F-45C3-8412-B02CF16DA361";
paths = (
{
closed = 1;
nodes = (
"319 -16 LINE SMOOTH",
"446 -14 OFFCURVE",
"534 16 OFFCURVE",
"566 145 CURVE SMOOTH",
"578 190 OFFCURVE",
"582 237 OFFCURVE",
"589 278 CURVE SMOOTH",
"605 356 OFFCURVE",
"624 442 OFFCURVE",
"637 490 CURVE SMOOTH",
"663 591 OFFCURVE",
"689 604 OFFCURVE",
"779 602 CURVE",
"784 601 OFFCURVE",
"793 612 OFFCURVE",
"793 618 CURVE SMOOTH",
"793 619 OFFCURVE",
"792 620 OFFCURVE",
"790 620 CURVE SMOOTH",
"725 620 OFFCURVE",
"645 618 OFFCURVE",
"615 618 CURVE SMOOTH",
"594 618 OFFCURVE",
"580 617 OFFCURVE",
"568 617 CURVE SMOOTH",
"544 617 OFFCURVE",
"530 618 OFFCURVE",
"487 621 CURVE SMOOTH",
"481 621 OFFCURVE",
"472 613 OFFCURVE",
"472 608 CURVE SMOOTH",
"472 606 OFFCURVE",
"474 605 OFFCURVE",
"477 605 CURVE SMOOTH",
"485 606 OFFCURVE",
"491 606 OFFCURVE",
"498 606 CURVE SMOOTH",
"505 606 OFFCURVE",
"512 606 OFFCURVE",
"522 604 CURVE SMOOTH",
"534 601 OFFCURVE",
"553 589 OFFCURVE",
"549 564 CURVE SMOOTH",
"527 438 OFFCURVE",
"493 255 OFFCURVE",
"461 127 CURVE SMOOTH",
"443 55 OFFCURVE",
"382 19 OFFCURVE",
"325 17 CURVE",
"321 16 OFFCURVE",
"286 16 OFFCURVE",
"281 17 CURVE",
"226 19 OFFCURVE",
"176 55 OFFCURVE",
"176 120 CURVE SMOOTH",
"176 128 OFFCURVE",
"177 136 OFFCURVE",
"178 145 CURVE SMOOTH",
"194 234 OFFCURVE",
"225 408 OFFCURVE",
"258 517 CURVE SMOOTH",
"283 599 OFFCURVE",
"300 607 OFFCURVE",
"379 604 CURVE",
"385 602 OFFCURVE",
"388 607 OFFCURVE",
"388 612 CURVE SMOOTH",
"388 616 OFFCURVE",
"385 621 OFFCURVE",
"380 621 CURVE SMOOTH",
"337 618 OFFCURVE",
"289 618 OFFCURVE",
"267 617 CURVE SMOOTH",
"254 616 OFFCURVE",
"239 616 OFFCURVE",
"223 616 CURVE SMOOTH",
"161 616 OFFCURVE",
"83 620 OFFCURVE",
"30 620 CURVE SMOOTH",
"23 620 OFFCURVE",
"15 612 OFFCURVE",
"15 607 CURVE SMOOTH",
"15 605 OFFCURVE",
"16 603 OFFCURVE",
"20 603 CURVE SMOOTH",
"35 604 OFFCURVE",
"110 602 OFFCURVE",
"130 599 CURVE SMOOTH",
"148 596 OFFCURVE",
"165 574 OFFCURVE",
"161 548 CURVE SMOOTH",
"141 430 OFFCURVE",
"116 312 OFFCURVE",
"90 194 CURVE SMOOTH",
"85 174 OFFCURVE",
"83 155 OFFCURVE",
"83 138 CURVE SMOOTH",
"83 25 OFFCURVE",
"178 -14 OFFCURVE",
"277 -16 CURVE SMOOTH"
);
}
);
width = 687;
}
);
note = U;
unicode = 0055;
},
{
color = 11;
glyphname = Uhorn;
lastChange = "2021-10-14 18:20:22 +0000";
layers = (
{
layerId = "C36B7B90-196F-45C3-8412-B02CF16DA361";
paths = (
{
closed = 1;
nodes = (
"319 -16 LINE SMOOTH",
"446 -16 OFFCURVE",
"534 16 OFFCURVE",
"566 145 CURVE SMOOTH",
"578 190 OFFCURVE",
"582 237 OFFCURVE",
"589 278 CURVE SMOOTH",
"605 356 OFFCURVE",
"624 442 OFFCURVE",
"635 485 CURVE SMOOTH",
"659 576 OFFCURVE",
"681 589 OFFCURVE",
"694 597 CURVE",
"701 596 OFFCURVE",
"709 595 OFFCURVE",
"717 595 CURVE SMOOTH",
"757 595 OFFCURVE",
"800 613 OFFCURVE",
"800 660 CURVE SMOOTH",
"800 686 OFFCURVE",
"785 728 OFFCURVE",
"766 728 CURVE SMOOTH",
"759 728 OFFCURVE",
"756 722 OFFCURVE",
"756 716 CURVE SMOOTH",
"756 711 OFFCURVE",
"758 705 OFFCURVE",
"759 703 CURVE SMOOTH",
"763 694 OFFCURVE",
"767 683 OFFCURVE",
"767 664 CURVE SMOOTH",
"767 646 OFFCURVE",
"759 630 OFFCURVE",
"739 625 CURVE SMOOTH",
"721 621 OFFCURVE",
"691 621 OFFCURVE",
"676 621 CURVE SMOOTH",
"659 621 OFFCURVE",
"594 620 OFFCURVE",
"544 620 CURVE SMOOTH",
"518 620 OFFCURVE",
"497 620 OFFCURVE",
"487 621 CURVE SMOOTH",
"481 621 OFFCURVE",
"472 613 OFFCURVE",
"472 608 CURVE SMOOTH",
"472 606 OFFCURVE",
"474 605 OFFCURVE",
"477 605 CURVE SMOOTH",
"485 606 OFFCURVE",
"491 606 OFFCURVE",
"498 606 CURVE SMOOTH",
"505 606 OFFCURVE",
"512 606 OFFCURVE",
"522 604 CURVE SMOOTH",
"534 601 OFFCURVE",
"553 589 OFFCURVE",
"549 564 CURVE SMOOTH",
"527 438 OFFCURVE",
"493 255 OFFCURVE",
"461 127 CURVE SMOOTH",
"443 55 OFFCURVE",
"382 19 OFFCURVE",
"325 17 CURVE",
"321 16 OFFCURVE",
"286 16 OFFCURVE",
"281 17 CURVE",
"226 19 OFFCURVE",
"176 55 OFFCURVE",
"176 120 CURVE SMOOTH",
"176 128 OFFCURVE",
"177 136 OFFCURVE",
"178 145 CURVE SMOOTH",
"194 234 OFFCURVE",
"225 408 OFFCURVE",
"258 517 CURVE SMOOTH",
"283 599 OFFCURVE",
"300 607 OFFCURVE",
"379 604 CURVE",
"385 602 OFFCURVE",
"388 607 OFFCURVE",
"388 612 CURVE SMOOTH",
"388 616 OFFCURVE",
"385 621 OFFCURVE",
"380 621 CURVE SMOOTH",
"337 618 OFFCURVE",
"289 618 OFFCURVE",
"267 617 CURVE SMOOTH",
"254 616 OFFCURVE",
"239 616 OFFCURVE",
"223 616 CURVE SMOOTH",
"161 616 OFFCURVE",
"83 620 OFFCURVE",
"30 620 CURVE SMOOTH",
"23 620 OFFCURVE",
"15 612 OFFCURVE",
"15 607 CURVE SMOOTH",
"15 605 OFFCURVE",
"16 603 OFFCURVE",
"20 603 CURVE SMOOTH",
"35 604 OFFCURVE",
"110 602 OFFCURVE",
"130 599 CURVE SMOOTH",
"148 596 OFFCURVE",
"165 574 OFFCURVE",
"161 548 CURVE SMOOTH",
"141 430 OFFCURVE",
"116 312 OFFCURVE",
"90 194 CURVE SMOOTH",
"85 174 OFFCURVE",
"83 155 OFFCURVE",
"83 138 CURVE SMOOTH",
"83 24 OFFCURVE",
"178 -16 OFFCURVE",
"277 -16 CURVE SMOOTH"
);
}
);
width = 725;
}
);
unicode = 01AF;
},
{
color = 3;
glyphname = V;
lastChange = "2021-10-14 18:20:22 +0000";
layers = (
{
layerId = "C36B7B90-196F-45C3-8412-B02CF16DA361";
paths = (
{
closed = 1;
nodes = (
"259 -23 OFFCURVE",
"289 14 OFFCURVE",
"323 27 CURVE SMOOTH",
"386 52 OFFCURVE",
"354 49 OFFCURVE",
"371 80 CURVE SMOOTH",
"412 149 OFFCURVE",
"578 447 OFFCURVE",
"641 534 CURVE SMOOTH",
"700 614 OFFCURVE",
"756 601 OFFCURVE",
"770 602 CURVE",
"776 601 OFFCURVE",
"785 612 OFFCURVE",
"785 617 CURVE SMOOTH",
"785 619 OFFCURVE",
"784 620 OFFCURVE",
"781 620 CURVE SMOOTH",
"733 620 OFFCURVE",
"679 617 OFFCURVE",
"641 617 CURVE SMOOTH",
"608 617 OFFCURVE",
"572 619 OFFCURVE",
"495 621 CURVE",
"488 623 OFFCURVE",
"476 612 OFFCURVE",
"476 607 CURVE SMOOTH",
"476 606 OFFCURVE",
"477 605 OFFCURVE",
"479 605 CURVE SMOOTH",
"482 605 LINE SMOOTH",
"518 606 OFFCURVE",
"571 609 OFFCURVE",
"571 561 CURVE SMOOTH",
"571 544 OFFCURVE",
"564 521 OFFCURVE",
"548 489 CURVE SMOOTH",
"490 372 OFFCURVE",
"408 213 OFFCURVE",
"345 110 CURVE SMOOTH",
"337 97 OFFCURVE",
"331 92 OFFCURVE",
"326 92 CURVE SMOOTH",
"321 92 OFFCURVE",
"318 98 OFFCURVE",
"316 110 CURVE SMOOTH",
"298 219 OFFCURVE",
"265 488 OFFCURVE",
"264 562 CURVE SMOOTH",
"264 608 OFFCURVE",
"343 603 OFFCURVE",
"370 603 CURVE SMOOTH",
"377 603 OFFCURVE",
"381 609 OFFCURVE",
"381 614 CURVE SMOOTH",
"381 617 OFFCURVE",
"379 619 OFFCURVE",
"376 619 CURVE SMOOTH",
"336 617 OFFCURVE",
"293 615 OFFCURVE",
"250 615 CURVE SMOOTH",
"223 615 OFFCURVE",
"196 616 OFFCURVE",
"170 617 CURVE SMOOTH",
"140 618 OFFCURVE",
"124 617 OFFCURVE",
"56 620 CURVE SMOOTH",
"48 620 OFFCURVE",
"39 612 OFFCURVE",
"39 607 CURVE SMOOTH",
"39 605 OFFCURVE",
"41 603 OFFCURVE",
"45 603 CURVE SMOOTH",
"78 604 OFFCURVE",
"145 618 OFFCURVE",
"169 489 CURVE SMOOTH",
"197 339 OFFCURVE",
"211 177 OFFCURVE",
"224 25 CURVE SMOOTH",
"225 13 OFFCURVE",
"224 2 OFFCURVE",
"224 -6 CURVE SMOOTH",
"224 -17 OFFCURVE",
"225 -24 OFFCURVE",
"234 -24 CURVE SMOOTH"
);
}
);
width = 559;
}
);
note = V;
unicode = 0056;
},
{
color = 3;
glyphname = W;
lastChange = "2021-10-14 18:20:22 +0000";
layers = (
{
layerId = "C36B7B90-196F-45C3-8412-B02CF16DA361";
paths = (
{
closed = 1;
nodes = (
"259 -19 OFFCURVE",
"290 17 OFFCURVE",
"323 30 CURVE SMOOTH",
"387 55 OFFCURVE",
"357 53 OFFCURVE",
"372 84 CURVE SMOOTH",
"396 133 OFFCURVE",
"485 287 OFFCURVE",
"556 399 CURVE",
"575 277 OFFCURVE",
"587 151 OFFCURVE",
"596 29 CURVE SMOOTH",
"597 17 OFFCURVE",
"597 6 OFFCURVE",
"597 -2 CURVE SMOOTH",
"597 -13 OFFCURVE",
"598 -20 OFFCURVE",
"607 -20 CURVE SMOOTH",
"631 -19 OFFCURVE",
"661 17 OFFCURVE",
"694 30 CURVE SMOOTH",
"759 55 OFFCURVE",
"729 53 OFFCURVE",
"744 84 CURVE SMOOTH",
"776 150 OFFCURVE",
"949 447 OFFCURVE",
"1013 534 CURVE SMOOTH",
"1071 614 OFFCURVE",
"1127 601 OFFCURVE",
"1142 602 CURVE",
"1147 601 OFFCURVE",
"1156 612 OFFCURVE",
"1156 618 CURVE SMOOTH",
"1156 619 OFFCURVE",
"1155 620 OFFCURVE",
"1153 620 CURVE SMOOTH",
"1098 620 OFFCURVE",
"1036 616 OFFCURVE",
"999 617 CURVE SMOOTH",
"983 617 OFFCURVE",
"959 618 OFFCURVE",
"929 618 CURVE SMOOTH",
"905 618 OFFCURVE",
"876 617 OFFCURVE",
"845 615 CURVE",
"838 617 OFFCURVE",
"826 606 OFFCURVE",
"826 601 CURVE SMOOTH",
"826 600 OFFCURVE",
"827 599 OFFCURVE",
"829 599 CURVE SMOOTH",
"832 599 LINE SMOOTH",
"844 600 OFFCURVE",
"859 601 OFFCURVE",
"874 601 CURVE SMOOTH",
"908 601 OFFCURVE",
"943 594 OFFCURVE",
"943 557 CURVE SMOOTH",
"943 541 OFFCURVE",
"937 519 OFFCURVE",
"920 489 CURVE SMOOTH",
"854 371 OFFCURVE",
"781 216 OFFCURVE",
"718 113 CURVE SMOOTH",
"710 101 OFFCURVE",
"704 95 OFFCURVE",
"699 95 CURVE SMOOTH",
"694 95 OFFCURVE",
"690 102 OFFCURVE",
"688 114 CURVE SMOOTH",
"670 222 OFFCURVE",
"637 465 OFFCURVE",
"636 540 CURVE SMOOTH",
"635 585 OFFCURVE",
"732 597 OFFCURVE",
"765 602 CURVE SMOOTH",
"771 603 OFFCURVE",
"776 610 OFFCURVE",
"776 614 CURVE SMOOTH",
"776 616 OFFCURVE",
"775 617 OFFCURVE",
"773 617 CURVE SMOOTH",
"730 614 OFFCURVE",
"668 613 OFFCURVE",
"613 613 CURVE SMOOTH",
"585 613 OFFCURVE",
"559 613 OFFCURVE",
"537 614 CURVE SMOOTH",
"507 615 OFFCURVE",
"504 617 OFFCURVE",
"435 619 CURVE",
"430 620 OFFCURVE",
"426 614 OFFCURVE",
"426 609 CURVE SMOOTH",
"426 605 OFFCURVE",
"428 602 OFFCURVE",
"432 602 CURVE SMOOTH",
"434 602 LINE SMOOTH",
"508 600 OFFCURVE",
"524 571 OFFCURVE",
"534 514 CURVE SMOOTH",
"536 505 OFFCURVE",
"538 497 OFFCURVE",
"538 489 CURVE SMOOTH",
"538 476 OFFCURVE",
"534 462 OFFCURVE",
"520 437 CURVE SMOOTH",
"462 329 OFFCURVE",
"401 202 OFFCURVE",
"346 113 CURVE SMOOTH",
"338 101 OFFCURVE",
"332 95 OFFCURVE",
"328 95 CURVE SMOOTH",
"323 95 OFFCURVE",
"319 102 OFFCURVE",
"317 114 CURVE SMOOTH",
"299 222 OFFCURVE",
"265 488 OFFCURVE",
"264 562 CURVE SMOOTH",
"264 608 OFFCURVE",
"343 603 OFFCURVE",
"370 603 CURVE SMOOTH",
"377 603 OFFCURVE",
"381 609 OFFCURVE",
"381 614 CURVE SMOOTH",
"381 617 OFFCURVE",
"379 619 OFFCURVE",
"376 619 CURVE SMOOTH",
"336 617 OFFCURVE",
"293 615 OFFCURVE",
"250 615 CURVE SMOOTH",
"223 615 OFFCURVE",
"196 616 OFFCURVE",
"170 617 CURVE SMOOTH",
"140 618 OFFCURVE",
"124 617 OFFCURVE",
"56 620 CURVE SMOOTH",
"48 620 OFFCURVE",
"39 612 OFFCURVE",
"39 607 CURVE SMOOTH",
"39 605 OFFCURVE",
"41 603 OFFCURVE",
"45 603 CURVE SMOOTH",
"78 604 OFFCURVE",
"145 618 OFFCURVE",
"169 489 CURVE SMOOTH",
"197 339 OFFCURVE",
"212 181 OFFCURVE",
"224 29 CURVE SMOOTH",
"226 0 OFFCURVE",
"220 -20 OFFCURVE",
"235 -20 CURVE SMOOTH"
);
}
);
width = 991;
}
);
note = W;
unicode = 0057;
},
{
color = 3;
glyphname = X;
lastChange = "2021-10-14 18:20:22 +0000";
layers = (
{
layerId = "C36B7B90-196F-45C3-8412-B02CF16DA361";
paths = (
{
closed = 1;
nodes = (
"383 -4 LINE SMOOTH",
"410 -2 OFFCURVE",
"442 -2 OFFCURVE",
"471 -2 CURVE SMOOTH",
"510 -2 OFFCURVE",
"545 -3 OFFCURVE",
"560 -2 CURVE SMOOTH",
"595 0 OFFCURVE",
"632 0 OFFCURVE",
"665 0 CURVE SMOOTH",
"725 0 LINE SMOOTH",
"732 0 OFFCURVE",
"740 9 OFFCURVE",
"740 14 CURVE SMOOTH",
"740 16 OFFCURVE",
"739 17 OFFCURVE",
"736 17 CURVE SMOOTH",
"720 16 OFFCURVE",
"639 12 OFFCURVE",
"578 105 CURVE SMOOTH",
"532 175 OFFCURVE",
"496 255 OFFCURVE",
"457 335 CURVE",
"517 397 OFFCURVE",
"577 459 OFFCURVE",
"642 525 CURVE SMOOTH",
"691 575 OFFCURVE",
"748 598 OFFCURVE",
"772 602 CURVE SMOOTH",
"785 604 OFFCURVE",
"796 602 OFFCURVE",
"801 602 CURVE SMOOTH",
"806 601 OFFCURVE",
"815 612 OFFCURVE",
"815 618 CURVE SMOOTH",
"815 619 OFFCURVE",
"814 620 OFFCURVE",
"812 620 CURVE SMOOTH",
"763 620 OFFCURVE",
"709 617 OFFCURVE",
"671 617 CURVE SMOOTH",
"640 617 OFFCURVE",
"604 619 OFFCURVE",
"525 621 CURVE",
"519 622 OFFCURVE",
"507 613 OFFCURVE",
"507 608 CURVE SMOOTH",
"507 606 OFFCURVE",
"509 605 OFFCURVE",
"512 605 CURVE SMOOTH",
"513 605 LINE SMOOTH",
"538 606 OFFCURVE",
"604 612 OFFCURVE",
"604 573 CURVE SMOOTH",
"604 556 OFFCURVE",
"591 529 OFFCURVE",
"554 489 CURVE SMOOTH",
"517 448 OFFCURVE",
"480 408 OFFCURVE",
"443 368 CURVE",
"423 409 OFFCURVE",
"402 450 OFFCURVE",
"384 489 CURVE SMOOTH",
"370 518 OFFCURVE",
"365 541 OFFCURVE",
"365 557 CURVE SMOOTH",
"365 599 OFFCURVE",
"400 606 OFFCURVE",
"432 606 CURVE SMOOTH",
"443 606 OFFCURVE",
"453 605 OFFCURVE",
"461 605 CURVE",
"472 602 OFFCURVE",
"482 615 OFFCURVE",
"482 619 CURVE SMOOTH",
"482 620 OFFCURVE",
"481 621 OFFCURVE",
"480 621 CURVE SMOOTH",
"479 621 LINE SMOOTH",
"424 619 OFFCURVE",
"321 616 OFFCURVE",
"281 616 CURVE SMOOTH",
"317 616 OFFCURVE",
"149 618 OFFCURVE",
"125 620 CURVE SMOOTH",
"118 620 OFFCURVE",
"110 610 OFFCURVE",
"110 605 CURVE SMOOTH",
"110 603 OFFCURVE",
"111 602 OFFCURVE",
"114 602 CURVE SMOOTH",
"122 603 OFFCURVE",
"130 603 OFFCURVE",
"138 603 CURVE SMOOTH",
"173 603 OFFCURVE",
"206 594 OFFCURVE",
"232 566 CURVE SMOOTH",
"257 538 OFFCURVE",
"321 411 OFFCURVE",
"376 293 CURVE",
"308 222 OFFCURVE",
"235 152 OFFCURVE",
"162 85 CURVE SMOOTH",
"81 8 OFFCURVE",
"35 17 OFFCURVE",
"19 17 CURVE SMOOTH",
"11 17 OFFCURVE",
"0 8 OFFCURVE",
"0 4 CURVE SMOOTH",
"0 3 OFFCURVE",
"1 2 OFFCURVE",
"3 2 CURVE SMOOTH",
"20 2 OFFCURVE",
"57 -1 OFFCURVE",
"97 -1 CURVE SMOOTH",
"108 -1 OFFCURVE",
"118 0 OFFCURVE",
"128 0 CURVE SMOOTH",
"144 1 OFFCURVE",
"161 1 OFFCURVE",
"179 1 CURVE SMOOTH",
"221 1 OFFCURVE",
"266 -1 OFFCURVE",
"309 -2 CURVE",
"314 -4 OFFCURVE",
"325 8 OFFCURVE",
"325 13 CURVE SMOOTH",
"325 14 OFFCURVE",
"324 15 OFFCURVE",
"322 15 CURVE SMOOTH",
"319 15 LINE SMOOTH",
"311 15 OFFCURVE",
"299 14 OFFCURVE",
"287 14 CURVE SMOOTH",
"255 14 OFFCURVE",
"217 19 OFFCURVE",
"217 48 CURVE SMOOTH",
"217 66 OFFCURVE",
"230 92 OFFCURVE",
"265 130 CURVE SMOOTH",
"306 175 OFFCURVE",
"351 219 OFFCURVE",
"390 261 CURVE",
"425 185 OFFCURVE",
"453 117 OFFCURVE",
"463 88 CURVE SMOOTH",
"467 76 OFFCURVE",
"469 66 OFFCURVE",
"469 58 CURVE SMOOTH",
"469 22 OFFCURVE",
"434 17 OFFCURVE",
"393 13 CURVE SMOOTH",
"384 13 OFFCURVE",
"379 5 OFFCURVE",
"379 0 CURVE SMOOTH",
"379 -2 OFFCURVE",
"380 -4 OFFCURVE",
"382 -4 CURVE SMOOTH"
);
}
);
width = 740;
}
);
note = X;
unicode = 0058;
},
{
color = 3;
glyphname = Y;
lastChange = "2021-10-14 18:20:22 +0000";
layers = (
{
layerId = "C36B7B90-196F-45C3-8412-B02CF16DA361";
paths = (
{
closed = 1;
nodes = (
"77 0 LINE SMOOTH",
"141 -1 OFFCURVE",
"222 2 OFFCURVE",
"252 3 CURVE SMOOTH",
"265 4 OFFCURVE",
"280 4 OFFCURVE",
"296 4 CURVE SMOOTH",
"358 4 OFFCURVE",
"435 0 OFFCURVE",
"487 0 CURVE SMOOTH",
"495 0 OFFCURVE",
"503 8 OFFCURVE",
"503 13 CURVE SMOOTH",
"503 15 OFFCURVE",
"502 16 OFFCURVE",
"499 16 CURVE SMOOTH",
"498 16 LINE SMOOTH",
"483 15 OFFCURVE",
"408 17 OFFCURVE",
"387 20 CURVE SMOOTH",
"376 22 OFFCURVE",
"351 34 OFFCURVE",
"355 66 CURVE SMOOTH",
"358 101 OFFCURVE",
"363 152 OFFCURVE",
"381 224 CURVE SMOOTH",
"385 240 OFFCURVE",
"391 253 OFFCURVE",
"399 267 CURVE SMOOTH",
"452 354 OFFCURVE",
"539 466 OFFCURVE",
"586 526 CURVE SMOOTH",
"648 605 OFFCURVE",
"711 601 OFFCURVE",
"724 602 CURVE",
"730 601 OFFCURVE",
"739 612 OFFCURVE",
"739 617 CURVE SMOOTH",
"739 619 OFFCURVE",
"738 620 OFFCURVE",
"735 620 CURVE SMOOTH",
"687 620 OFFCURVE",
"633 617 OFFCURVE",
"595 617 CURVE SMOOTH",
"564 617 OFFCURVE",
"527 619 OFFCURVE",
"449 621 CURVE",
"443 623 OFFCURVE",
"431 612 OFFCURVE",
"431 607 CURVE SMOOTH",
"431 606 OFFCURVE",
"432 605 OFFCURVE",
"434 605 CURVE SMOOTH",
"437 605 LINE SMOOTH",
"472 606 OFFCURVE",
"530 612 OFFCURVE",
"530 565 CURVE SMOOTH",
"530 547 OFFCURVE",
"522 523 OFFCURVE",
"503 489 CURVE SMOOTH",
"474 436 OFFCURVE",
"432 371 OFFCURVE",
"402 336 CURVE SMOOTH",
"397 330 OFFCURVE",
"389 321 OFFCURVE",
"382 321 CURVE SMOOTH",
"376 321 OFFCURVE",
"371 328 OFFCURVE",
"369 349 CURVE SMOOTH",
"344 604 OFFCURVE",
"298 628 OFFCURVE",
"269 628 CURVE SMOOTH",
"264 628 OFFCURVE",
"259 627 OFFCURVE",
"255 627 CURVE SMOOTH",
"190 621 OFFCURVE",
"125 613 OFFCURVE",
"59 610 CURVE SMOOTH",
"52 610 OFFCURVE",
"44 601 OFFCURVE",
"44 596 CURVE SMOOTH",
"44 594 OFFCURVE",
"45 593 OFFCURVE",
"48 593 CURVE SMOOTH",
"50 593 LINE SMOOTH",
"72 596 OFFCURVE",
"91 598 OFFCURVE",
"109 598 CURVE SMOOTH",
"161 598 OFFCURVE",
"197 581 OFFCURVE",
"229 522 CURVE SMOOTH",
"242 498 OFFCURVE",
"256 466 OFFCURVE",
"267 425 CURVE SMOOTH",
"277 390 OFFCURVE",
"293 332 OFFCURVE",
"297 270 CURVE SMOOTH",
"298 261 OFFCURVE",
"295 233 OFFCURVE",
"293 225 CURVE SMOOTH",
"287 193 OFFCURVE",
"277 161 OFFCURVE",
"268 129 CURVE SMOOTH",
"239 29 OFFCURVE",
"236 16 OFFCURVE",
"164 16 CURVE SMOOTH",
"145 16 OFFCURVE",
"120 17 OFFCURVE",
"88 17 CURVE",
"82 18 OFFCURVE",
"73 8 OFFCURVE",
"73 3 CURVE SMOOTH",
"73 1 OFFCURVE",
"74 0 OFFCURVE",
"76 0 CURVE SMOOTH"
);
}
);
width = 668;
}
);
note = Y;
unicode = 0059;
},
{
color = 3;
glyphname = Z;
lastChange = "2021-10-14 18:20:22 +0000";
layers = (
{
layerId = "C36B7B90-196F-45C3-8412-B02CF16DA361";
paths = (
{
closed = 1;
nodes = (
"37 -10 OFFCURVE",
"43 -9 OFFCURVE",
"51 -8 CURVE SMOOTH",
"93 -1 OFFCURVE",
"148 1 OFFCURVE",
"200 1 CURVE SMOOTH",
"239 1 OFFCURVE",
"276 0 OFFCURVE",
"303 0 CURVE SMOOTH",
"382 0 OFFCURVE",
"439 -6 OFFCURVE",
"473 -6 CURVE SMOOTH",
"490 -6 OFFCURVE",
"502 -4 OFFCURVE",
"508 0 CURVE SMOOTH",
"555 30 OFFCURVE",
"576 142 OFFCURVE",
"588 171 CURVE SMOOTH",
"590 176 OFFCURVE",
"586 182 OFFCURVE",
"582 182 CURVE SMOOTH",
"581 182 OFFCURVE",
"580 181 OFFCURVE",
"579 179 CURVE SMOOTH",
"540 92 OFFCURVE",
"468 31 OFFCURVE",
"367 31 CURVE SMOOTH",
"284 31 OFFCURVE",
"216 42 OFFCURVE",
"216 74 CURVE SMOOTH",
"216 81 OFFCURVE",
"220 89 OFFCURVE",
"227 98 CURVE",
"227 98 OFFCURVE",
"407 373 OFFCURVE",
"563 533 CURVE SMOOTH",
"605 575 OFFCURVE",
"617 590 OFFCURVE",
"632 602 CURVE SMOOTH",
"637 606 OFFCURVE",
"639 609 OFFCURVE",
"639 611 CURVE SMOOTH",
"639 622 OFFCURVE",
"595 619 OFFCURVE",
"583 619 CURVE SMOOTH",
"555 618 OFFCURVE",
"522 618 OFFCURVE",
"488 618 CURVE SMOOTH",
"394 618 OFFCURVE",
"288 620 OFFCURVE",
"222 623 CURVE SMOOTH",
"173 625 OFFCURVE",
"160 608 OFFCURVE",
"158 559 CURVE SMOOTH",
"155 512 OFFCURVE",
"149 488 OFFCURVE",
"144 435 CURVE",
"142 426 OFFCURVE",
"159 427 OFFCURVE",
"161 444 CURVE SMOOTH",
"171 538 OFFCURVE",
"221 584 OFFCURVE",
"283 584 CURVE SMOOTH",
"313 583 OFFCURVE",
"344 585 OFFCURVE",
"371 585 CURVE SMOOTH",
"414 585 OFFCURVE",
"446 581 OFFCURVE",
"446 559 CURVE SMOOTH",
"446 550 OFFCURVE",
"441 538 OFFCURVE",
"429 522 CURVE SMOOTH",
"161 170 LINE SMOOTH",
"88 74 OFFCURVE",
"58 52 OFFCURVE",
"29 29 CURVE",
"22 25 OFFCURVE",
"12 12 OFFCURVE",
"12 2 CURVE SMOOTH",
"12 -5 OFFCURVE",
"17 -10 OFFCURVE",
"32 -10 CURVE SMOOTH"
);
}
);
width = 588;
}
);
note = Z;
unicode = 005A;
},
{
color = 5;
glyphname = A.ss01;
lastChange = "2021-10-14 18:20:22 +0000";
layers = (
{
layerId = "C36B7B90-196F-45C3-8412-B02CF16DA361";
paths = (
{
closed = 1;
nodes = (
"348 -203 OFFCURVE",
"358 -202 OFFCURVE",
"366 -199 CURVE",
"366 -199 OFFCURVE",
"436 -163 OFFCURVE",
"477 -141 CURVE",
"471 -132 LINE",
"448 -142 OFFCURVE",
"427 -164 OFFCURVE",
"382 -164 CURVE SMOOTH",
"363 -164 OFFCURVE",
"339 -160 OFFCURVE",
"308 -149 CURVE SMOOTH",
"200 -110 OFFCURVE",
"151 -35 OFFCURVE",
"151 45 CURVE SMOOTH",
"151 140 OFFCURVE",
"219 242 OFFCURVE",
"337 299 CURVE SMOOTH",
"422 340 OFFCURVE",
"553 352 OFFCURVE",
"682 354 CURVE",
"652 307 OFFCURVE",
"622 259 OFFCURVE",
"582 200 CURVE SMOOTH",
"503 85 OFFCURVE",
"486 14 OFFCURVE",
"336 -10 CURVE",
"333 -19 LINE",
"492 -15 OFFCURVE",
"625 175 OFFCURVE",
"737 354 CURVE",
"759 354 OFFCURVE",
"781 353 OFFCURVE",
"803 353 CURVE",
"825 336 OFFCURVE",
"838 320 OFFCURVE",
"853 296 CURVE",
"927 343 LINE",
"923 349 LINE",
"938 348 OFFCURVE",
"951 348 OFFCURVE",
"964 347 CURVE",
"958 300 OFFCURVE",
"954 253 OFFCURVE",
"954 209 CURVE SMOOTH",
"954 122 OFFCURVE",
"968 43 OFFCURVE",
"1005 -14 CURVE",
"1089 35 LINE",
"1097 96 OFFCURVE",
"1199 234 OFFCURVE",
"1241 264 CURVE",
"1234 273 LINE",
"1184 236 OFFCURVE",
"1114 148 OFFCURVE",
"1075 89 CURVE",
"1049 132 OFFCURVE",
"1039 197 OFFCURVE",
"1039 272 CURVE SMOOTH",
"1039 443 OFFCURVE",
"1095 665 OFFCURVE",
"1151 786 CURVE",
"1074 736 LINE",
"1034 650 OFFCURVE",
"988 508 OFFCURVE",
"966 364 CURVE",
"911 367 LINE",
"895 387 OFFCURVE",
"879 401 OFFCURVE",
"854 418 CURVE",
"784 373 LINE",
"772 373 OFFCURVE",
"761 373 OFFCURVE",
"749 374 CURVE",
"798 454 OFFCURVE",
"843 530 OFFCURVE",
"885 586 CURVE SMOOTH",
"933 650 OFFCURVE",
"967 701 OFFCURVE",
"1017 743 CURVE",
"1130 810 LINE",
"1124 820 LINE",
"1106 808 OFFCURVE",
"1073 795 OFFCURVE",
"1073 795 CURVE",
"1067 793 OFFCURVE",
"1055 793 OFFCURVE",
"1040 793 CURVE SMOOTH",
"965 793 OFFCURVE",
"797 809 OFFCURVE",
"701 818 CURVE SMOOTH",
"679 820 OFFCURVE",
"657 821 OFFCURVE",
"634 821 CURVE SMOOTH",
"526 821 OFFCURVE",
"415 799 OFFCURVE",
"340 751 CURVE SMOOTH",
"263 701 OFFCURVE",
"206 632 OFFCURVE",
"206 551 CURVE SMOOTH",
"206 523 OFFCURVE",
"212 494 OFFCURVE",
"227 464 CURVE SMOOTH",
"231 456 OFFCURVE",
"235 449 OFFCURVE",
"246 449 CURVE SMOOTH",
"247 449 OFFCURVE",
"250 450 OFFCURVE",
"252 450 CURVE",
"252 450 OFFCURVE",
"337 477 OFFCURVE",
"366 487 CURVE",
"364 495 LINE",
"353 492 OFFCURVE",
"342 489 OFFCURVE",
"332 489 CURVE SMOOTH",
"321 489 OFFCURVE",
"311 492 OFFCURVE",
"301 502 CURVE SMOOTH",
"290 513 OFFCURVE",
"278 539 OFFCURVE",
"273 567 CURVE SMOOTH",
"271 578 OFFCURVE",
"270 588 OFFCURVE",
"270 598 CURVE SMOOTH",
"270 657 OFFCURVE",
"303 703 OFFCURVE",
"349 735 CURVE SMOOTH",
"392 765 OFFCURVE",
"447 774 OFFCURVE",
"504 774 CURVE SMOOTH",
"558 774 OFFCURVE",
"616 766 OFFCURVE",
"669 762 CURVE SMOOTH",
"722 758 OFFCURVE",
"893 723 OFFCURVE",
"970 727 CURVE",
"912 679 OFFCURVE",
"860 608 OFFCURVE",
"810 541 CURVE SMOOTH",
"762 476 OFFCURVE",
"728 425 OFFCURVE",
"695 374 CURVE",
"554 373 OFFCURVE",
"414 360 OFFCURVE",
"294 312 CURVE SMOOTH",
"142 253 OFFCURVE",
"57 135 OFFCURVE",
"57 26 CURVE SMOOTH",
"57 -53 OFFCURVE",
"101 -127 OFFCURVE",
"196 -171 CURVE SMOOTH",
"233 -188 OFFCURVE",
"294 -203 OFFCURVE",
"336 -203 CURVE SMOOTH"
);
},
{
closed = 1;
nodes = (
"307 -7 OFFCURVE",
"327 -5 OFFCURVE",
"352 -1 CURVE",
"352 9 LINE",
"288 3 OFFCURVE",
"255 27 OFFCURVE",
"255 67 CURVE SMOOTH",
"255 85 OFFCURVE",
"262 107 OFFCURVE",
"277 130 CURVE",
"269 144 LINE",
"267 133 OFFCURVE",
"261 124 OFFCURVE",
"254 113 CURVE SMOOTH",
"229 79 LINE SMOOTH",
"217 63 OFFCURVE",
"205 46 OFFCURVE",
"198 31 CURVE SMOOTH",
"196 26 OFFCURVE",
"195 23 OFFCURVE",
"195 20 CURVE SMOOTH",
"195 12 OFFCURVE",
"201 9 OFFCURVE",
"212 5 CURVE SMOOTH",
"238 -2 OFFCURVE",
"260 -7 OFFCURVE",
"289 -7 CURVE SMOOTH"
);
}
);
width = 1195;
}
);
note = A;
},
{
color = 11;
glyphname = Aacute.ss01;
lastChange = "2021-10-14 18:20:22 +0000";
layers = (
{
layerId = "C36B7B90-196F-45C3-8412-B02CF16DA361";
paths = (
{
closed = 1;
nodes = (
"347 -200 OFFCURVE",
"358 -199 OFFCURVE",
"366 -196 CURVE",
"366 -196 OFFCURVE",
"436 -161 OFFCURVE",
"477 -139 CURVE",
"471 -129 LINE",
"448 -139 OFFCURVE",
"427 -161 OFFCURVE",
"382 -161 CURVE SMOOTH",
"363 -161 OFFCURVE",
"339 -157 OFFCURVE",
"308 -146 CURVE SMOOTH",
"200 -107 OFFCURVE",
"151 -32 OFFCURVE",
"151 48 CURVE SMOOTH",
"151 142 OFFCURVE",
"219 244 OFFCURVE",
"337 301 CURVE SMOOTH",
"422 343 OFFCURVE",
"553 355 OFFCURVE",
"682 356 CURVE",
"652 310 OFFCURVE",
"622 262 OFFCURVE",
"582 203 CURVE SMOOTH",
"503 87 OFFCURVE",
"486 17 OFFCURVE",
"336 -8 CURVE",
"333 -17 LINE",
"492 -12 OFFCURVE",
"625 177 OFFCURVE",
"737 357 CURVE",
"759 356 OFFCURVE",
"781 356 OFFCURVE",
"803 355 CURVE",
"825 338 OFFCURVE",
"838 322 OFFCURVE",
"853 298 CURVE",
"927 346 LINE",
"923 351 LINE",
"938 351 OFFCURVE",
"951 350 OFFCURVE",
"964 350 CURVE",
"958 303 OFFCURVE",
"954 256 OFFCURVE",
"954 211 CURVE SMOOTH",
"954 124 OFFCURVE",
"968 45 OFFCURVE",
"1005 -11 CURVE",
"1089 38 LINE",
"1097 99 OFFCURVE",
"1199 236 OFFCURVE",
"1241 267 CURVE",
"1234 275 LINE",
"1184 239 OFFCURVE",
"1114 151 OFFCURVE",
"1075 91 CURVE",
"1049 134 OFFCURVE",
"1039 200 OFFCURVE",
"1039 274 CURVE SMOOTH",
"1039 446 OFFCURVE",
"1095 667 OFFCURVE",
"1151 789 CURVE",
"1074 738 LINE",
"1034 653 OFFCURVE",
"988 510 OFFCURVE",
"966 367 CURVE",
"911 370 LINE",
"895 390 OFFCURVE",
"879 404 OFFCURVE",
"854 421 CURVE",
"784 375 LINE",
"772 376 OFFCURVE",
"761 376 OFFCURVE",
"749 376 CURVE",
"798 456 OFFCURVE",
"843 533 OFFCURVE",
"885 588 CURVE SMOOTH",
"933 652 OFFCURVE",
"967 704 OFFCURVE",
"1017 745 CURVE",
"1130 813 LINE",
"1124 823 LINE",
"1106 810 OFFCURVE",
"1072 797 OFFCURVE",
"1072 797 CURVE",
"1066 796 OFFCURVE",
"1055 795 OFFCURVE",
"1041 795 CURVE SMOOTH",
"967 795 OFFCURVE",
"797 812 OFFCURVE",
"701 820 CURVE SMOOTH",
"678 822 OFFCURVE",
"654 823 OFFCURVE",
"630 823 CURVE SMOOTH",
"524 823 OFFCURVE",
"414 801 OFFCURVE",
"340 754 CURVE SMOOTH",
"263 704 OFFCURVE",
"206 635 OFFCURVE",
"206 554 CURVE SMOOTH",
"206 526 OFFCURVE",
"212 497 OFFCURVE",
"227 467 CURVE SMOOTH",
"231 458 OFFCURVE",
"236 452 OFFCURVE",
"247 452 CURVE SMOOTH",
"252 452 LINE",
"252 452 OFFCURVE",
"337 480 OFFCURVE",
"366 489 CURVE",
"364 498 LINE",
"353 495 OFFCURVE",
"342 492 OFFCURVE",
"332 492 CURVE SMOOTH",
"321 492 OFFCURVE",
"311 495 OFFCURVE",
"301 505 CURVE SMOOTH",
"290 516 OFFCURVE",
"278 542 OFFCURVE",
"273 570 CURVE SMOOTH",
"271 581 OFFCURVE",
"270 591 OFFCURVE",
"270 601 CURVE SMOOTH",
"270 660 OFFCURVE",
"303 706 OFFCURVE",
"349 738 CURVE SMOOTH",
"392 768 OFFCURVE",
"446 777 OFFCURVE",
"502 777 CURVE SMOOTH",
"557 777 OFFCURVE",
"615 768 OFFCURVE",
"669 764 CURVE SMOOTH",
"722 760 OFFCURVE",
"893 725 OFFCURVE",
"970 729 CURVE",
"912 681 OFFCURVE",
"860 611 OFFCURVE",
"810 543 CURVE SMOOTH",
"762 479 OFFCURVE",
"728 428 OFFCURVE",
"695 377 CURVE",
"554 376 OFFCURVE",
"414 362 OFFCURVE",
"294 315 CURVE SMOOTH",
"142 255 OFFCURVE",
"57 137 OFFCURVE",
"57 29 CURVE SMOOTH",
"57 -50 OFFCURVE",
"101 -124 OFFCURVE",
"196 -168 CURVE SMOOTH",
"233 -186 OFFCURVE",
"293 -200 OFFCURVE",
"335 -200 CURVE SMOOTH"
);
},
{
closed = 1;
nodes = (
"307 -4 OFFCURVE",
"327 -2 OFFCURVE",
"352 2 CURVE",
"352 11 LINE",
"288 6 OFFCURVE",
"255 30 OFFCURVE",
"255 70 CURVE SMOOTH",
"255 88 OFFCURVE",
"262 110 OFFCURVE",
"277 133 CURVE",
"269 146 LINE",
"267 135 OFFCURVE",
"261 126 OFFCURVE",
"254 116 CURVE SMOOTH",
"247 105 OFFCURVE",
"238 94 OFFCURVE",
"229 82 CURVE SMOOTH",
"217 65 OFFCURVE",
"205 48 OFFCURVE",
"198 34 CURVE SMOOTH",
"196 29 OFFCURVE",
"195 26 OFFCURVE",
"195 23 CURVE SMOOTH",
"195 15 OFFCURVE",
"201 11 OFFCURVE",
"212 8 CURVE SMOOTH",
"238 1 OFFCURVE",
"260 -4 OFFCURVE",
"289 -4 CURVE SMOOTH"
);
},
{
closed = 1;
nodes = (
"1090 891 OFFCURVE",
"1171 921 OFFCURVE",
"1210 953 CURVE",
"1217 957 OFFCURVE",
"1191 971 OFFCURVE",
"1164 971 CURVE SMOOTH",
"1159 971 OFFCURVE",
"1153 970 OFFCURVE",
"1148 969 CURVE SMOOTH",
"1129 964 OFFCURVE",
"1086 919 OFFCURVE",
"1036 904 CURVE SMOOTH",
"1030 902 OFFCURVE",
"1027 899 OFFCURVE",
"1027 897 CURVE SMOOTH",
"1027 893 OFFCURVE",
"1038 890 OFFCURVE",
"1047 890 CURVE SMOOTH"
);
}
);
width = 771;
}
);
note = Aacute;
},
{
color = 11;
glyphname = Acircumflex.ss01;
lastChange = "2021-10-14 18:20:22 +0000";
layers = (
{
layerId = "C36B7B90-196F-45C3-8412-B02CF16DA361";
paths = (
{
closed = 1;
nodes = (
"347 -200 OFFCURVE",
"358 -199 OFFCURVE",
"366 -196 CURVE",
"366 -196 OFFCURVE",
"436 -161 OFFCURVE",
"477 -139 CURVE",
"471 -129 LINE",
"448 -139 OFFCURVE",
"427 -161 OFFCURVE",
"382 -161 CURVE SMOOTH",
"363 -161 OFFCURVE",
"339 -157 OFFCURVE",
"308 -146 CURVE SMOOTH",
"200 -107 OFFCURVE",
"151 -32 OFFCURVE",
"151 48 CURVE SMOOTH",
"151 142 OFFCURVE",
"219 244 OFFCURVE",
"337 301 CURVE SMOOTH",
"422 343 OFFCURVE",
"553 355 OFFCURVE",
"682 356 CURVE",
"652 310 OFFCURVE",
"622 262 OFFCURVE",
"582 203 CURVE SMOOTH",
"503 87 OFFCURVE",
"486 17 OFFCURVE",
"336 -8 CURVE",
"333 -17 LINE",
"492 -12 OFFCURVE",
"625 177 OFFCURVE",
"737 357 CURVE",
"759 356 OFFCURVE",
"781 356 OFFCURVE",
"803 355 CURVE",
"825 338 OFFCURVE",
"838 322 OFFCURVE",
"853 298 CURVE",
"927 346 LINE",
"923 351 LINE",
"938 351 OFFCURVE",
"951 350 OFFCURVE",
"964 350 CURVE",
"958 303 OFFCURVE",
"954 256 OFFCURVE",
"954 211 CURVE SMOOTH",
"954 124 OFFCURVE",
"968 45 OFFCURVE",
"1005 -11 CURVE",
"1089 38 LINE",
"1097 99 OFFCURVE",
"1199 236 OFFCURVE",
"1241 267 CURVE",
"1234 275 LINE",
"1184 239 OFFCURVE",
"1114 151 OFFCURVE",
"1075 91 CURVE",
"1049 134 OFFCURVE",
"1039 200 OFFCURVE",
"1039 274 CURVE SMOOTH",
"1039 446 OFFCURVE",
"1095 667 OFFCURVE",
"1151 789 CURVE",
"1074 738 LINE",
"1034 653 OFFCURVE",
"988 510 OFFCURVE",
"966 367 CURVE",
"911 370 LINE",
"895 390 OFFCURVE",
"879 404 OFFCURVE",
"854 421 CURVE",
"784 375 LINE",
"772 376 OFFCURVE",
"761 376 OFFCURVE",
"749 376 CURVE",
"798 456 OFFCURVE",
"843 533 OFFCURVE",
"885 588 CURVE SMOOTH",
"933 652 OFFCURVE",
"967 704 OFFCURVE",
"1017 745 CURVE",
"1130 813 LINE",
"1124 823 LINE",
"1106 810 OFFCURVE",
"1072 797 OFFCURVE",
"1072 797 CURVE",
"1066 796 OFFCURVE",
"1055 795 OFFCURVE",
"1041 795 CURVE SMOOTH",
"967 795 OFFCURVE",
"797 812 OFFCURVE",
"701 820 CURVE SMOOTH",
"678 822 OFFCURVE",
"654 823 OFFCURVE",
"630 823 CURVE SMOOTH",
"524 823 OFFCURVE",
"414 801 OFFCURVE",
"340 754 CURVE SMOOTH",
"263 704 OFFCURVE",
"206 635 OFFCURVE",
"206 554 CURVE SMOOTH",
"206 526 OFFCURVE",
"212 497 OFFCURVE",
"227 467 CURVE SMOOTH",
"231 458 OFFCURVE",
"236 452 OFFCURVE",
"247 452 CURVE SMOOTH",
"252 452 LINE",
"252 452 OFFCURVE",
"337 480 OFFCURVE",
"366 489 CURVE",
"364 498 LINE",
"353 495 OFFCURVE",
"342 492 OFFCURVE",
"332 492 CURVE SMOOTH",
"321 492 OFFCURVE",
"311 495 OFFCURVE",
"301 505 CURVE SMOOTH",
"290 516 OFFCURVE",
"278 542 OFFCURVE",
"273 570 CURVE SMOOTH",
"271 581 OFFCURVE",
"270 591 OFFCURVE",
"270 601 CURVE SMOOTH",
"270 660 OFFCURVE",
"303 706 OFFCURVE",
"349 738 CURVE SMOOTH",
"392 768 OFFCURVE",
"446 777 OFFCURVE",
"502 777 CURVE SMOOTH",
"557 777 OFFCURVE",
"615 768 OFFCURVE",
"669 764 CURVE SMOOTH",
"722 760 OFFCURVE",
"893 725 OFFCURVE",
"970 729 CURVE",
"912 681 OFFCURVE",
"860 611 OFFCURVE",
"810 543 CURVE SMOOTH",
"762 479 OFFCURVE",
"728 428 OFFCURVE",
"695 377 CURVE",
"554 376 OFFCURVE",
"414 362 OFFCURVE",
"294 315 CURVE SMOOTH",
"142 255 OFFCURVE",
"57 137 OFFCURVE",
"57 29 CURVE SMOOTH",
"57 -50 OFFCURVE",
"101 -124 OFFCURVE",
"196 -168 CURVE SMOOTH",
"233 -186 OFFCURVE",
"293 -200 OFFCURVE",
"335 -200 CURVE SMOOTH"
);
},
{
closed = 1;
nodes = (
"307 -4 OFFCURVE",
"327 -2 OFFCURVE",
"352 2 CURVE",
"352 11 LINE",
"288 6 OFFCURVE",
"255 30 OFFCURVE",
"255 70 CURVE SMOOTH",
"255 88 OFFCURVE",
"262 110 OFFCURVE",
"277 133 CURVE",
"269 146 LINE",
"267 135 OFFCURVE",
"261 126 OFFCURVE",
"254 116 CURVE SMOOTH",
"247 105 OFFCURVE",
"238 94 OFFCURVE",
"229 82 CURVE SMOOTH",
"217 65 OFFCURVE",
"205 48 OFFCURVE",
"198 34 CURVE SMOOTH",
"196 29 OFFCURVE",
"195 26 OFFCURVE",
"195 23 CURVE SMOOTH",
"195 15 OFFCURVE",
"201 11 OFFCURVE",
"212 8 CURVE SMOOTH",
"238 1 OFFCURVE",
"260 -4 OFFCURVE",
"289 -4 CURVE SMOOTH"
);
},
{
closed = 1;
nodes = (
"976 870 OFFCURVE",
"994 876 OFFCURVE",
"1001 880 CURVE SMOOTH",
"1015 887 OFFCURVE",
"1074 928 OFFCURVE",
"1106 957 CURVE SMOOTH",
"1108 959 OFFCURVE",
"1111 959 OFFCURVE",
"1113 957 CURVE SMOOTH",
"1131 933 OFFCURVE",
"1161 896 OFFCURVE",
"1190 882 CURVE SMOOTH",
"1199 878 OFFCURVE",
"1247 894 OFFCURVE",
"1231 904 CURVE SMOOTH",
"1192 930 OFFCURVE",
"1156 968 OFFCURVE",
"1138 1001 CURVE SMOOTH",
"1134 1008 OFFCURVE",
"1128 1005 OFFCURVE",
"1123 1000 CURVE SMOOTH",
"1090 969 OFFCURVE",
"1021 909 OFFCURVE",
"979 881 CURVE SMOOTH",
"971 876 OFFCURVE",
"967 873 OFFCURVE",
"967 871 CURVE SMOOTH",
"967 870 OFFCURVE",
"968 870 OFFCURVE",
"970 870 CURVE SMOOTH"
);
}
);
width = 1195;
}
);
note = Acircumflex;
},
{
color = 11;
glyphname = Adieresis.ss01;
lastChange = "2021-10-14 18:20:22 +0000";
layers = (
{
layerId = "C36B7B90-196F-45C3-8412-B02CF16DA361";
paths = (
{
closed = 1;
nodes = (
"347 -200 OFFCURVE",
"358 -199 OFFCURVE",
"366 -196 CURVE",
"366 -196 OFFCURVE",
"436 -161 OFFCURVE",
"477 -139 CURVE",
"471 -129 LINE",
"448 -139 OFFCURVE",
"427 -161 OFFCURVE",
"382 -161 CURVE SMOOTH",
"363 -161 OFFCURVE",
"339 -157 OFFCURVE",
"308 -146 CURVE SMOOTH",
"200 -107 OFFCURVE",
"151 -32 OFFCURVE",
"151 48 CURVE SMOOTH",
"151 142 OFFCURVE",
"219 244 OFFCURVE",
"337 301 CURVE SMOOTH",
"422 343 OFFCURVE",
"553 355 OFFCURVE",
"682 356 CURVE",
"652 310 OFFCURVE",
"622 262 OFFCURVE",
"582 203 CURVE SMOOTH",
"503 87 OFFCURVE",
"486 17 OFFCURVE",
"336 -8 CURVE",
"333 -17 LINE",
"492 -12 OFFCURVE",
"625 177 OFFCURVE",
"737 357 CURVE",
"759 356 OFFCURVE",
"781 356 OFFCURVE",
"803 355 CURVE",
"825 338 OFFCURVE",
"838 322 OFFCURVE",
"853 298 CURVE",
"927 346 LINE",
"923 351 LINE",
"938 351 OFFCURVE",
"951 350 OFFCURVE",
"964 350 CURVE",
"958 303 OFFCURVE",
"954 256 OFFCURVE",
"954 211 CURVE SMOOTH",
"954 124 OFFCURVE",
"968 45 OFFCURVE",
"1005 -11 CURVE",
"1089 38 LINE",
"1097 99 OFFCURVE",
"1199 236 OFFCURVE",
"1241 267 CURVE",
"1234 275 LINE",
"1184 239 OFFCURVE",
"1114 151 OFFCURVE",
"1075 91 CURVE",
"1049 134 OFFCURVE",
"1039 200 OFFCURVE",
"1039 274 CURVE SMOOTH",
"1039 446 OFFCURVE",
"1095 667 OFFCURVE",
"1151 789 CURVE",
"1074 738 LINE",
"1034 653 OFFCURVE",
"988 510 OFFCURVE",
"966 367 CURVE",
"911 370 LINE",
"895 390 OFFCURVE",
"879 404 OFFCURVE",
"854 421 CURVE",
"784 375 LINE",
"772 376 OFFCURVE",
"761 376 OFFCURVE",
"749 376 CURVE",
"798 456 OFFCURVE",
"843 533 OFFCURVE",
"885 588 CURVE SMOOTH",
"933 652 OFFCURVE",
"967 704 OFFCURVE",
"1017 745 CURVE",
"1130 813 LINE",
"1124 823 LINE",
"1106 810 OFFCURVE",
"1072 797 OFFCURVE",
"1072 797 CURVE",
"1066 796 OFFCURVE",
"1055 795 OFFCURVE",
"1041 795 CURVE SMOOTH",
"967 795 OFFCURVE",
"797 812 OFFCURVE",
"701 820 CURVE SMOOTH",
"678 822 OFFCURVE",
"654 823 OFFCURVE",
"630 823 CURVE SMOOTH",
"524 823 OFFCURVE",
"414 801 OFFCURVE",
"340 754 CURVE SMOOTH",
"263 704 OFFCURVE",
"206 635 OFFCURVE",
"206 554 CURVE SMOOTH",
"206 526 OFFCURVE",
"212 497 OFFCURVE",
"227 467 CURVE SMOOTH",
"231 458 OFFCURVE",
"236 452 OFFCURVE",
"247 452 CURVE SMOOTH",
"252 452 LINE",
"252 452 OFFCURVE",
"337 480 OFFCURVE",
"366 489 CURVE",
"364 498 LINE",
"353 495 OFFCURVE",
"342 492 OFFCURVE",
"332 492 CURVE SMOOTH",
"321 492 OFFCURVE",
"311 495 OFFCURVE",
"301 505 CURVE SMOOTH",
"290 516 OFFCURVE",
"278 542 OFFCURVE",
"273 570 CURVE SMOOTH",
"271 581 OFFCURVE",
"270 591 OFFCURVE",
"270 601 CURVE SMOOTH",
"270 660 OFFCURVE",
"303 706 OFFCURVE",
"349 738 CURVE SMOOTH",
"392 768 OFFCURVE",
"446 777 OFFCURVE",
"502 777 CURVE SMOOTH",
"557 777 OFFCURVE",
"615 768 OFFCURVE",
"669 764 CURVE SMOOTH",
"722 760 OFFCURVE",
"893 725 OFFCURVE",
"970 729 CURVE",
"912 681 OFFCURVE",
"860 611 OFFCURVE",
"810 543 CURVE SMOOTH",
"762 479 OFFCURVE",
"728 428 OFFCURVE",
"695 377 CURVE",
"554 376 OFFCURVE",
"414 362 OFFCURVE",
"294 315 CURVE SMOOTH",
"142 255 OFFCURVE",
"57 137 OFFCURVE",
"57 29 CURVE SMOOTH",
"57 -50 OFFCURVE",
"101 -124 OFFCURVE",
"196 -168 CURVE SMOOTH",
"233 -186 OFFCURVE",
"293 -200 OFFCURVE",
"335 -200 CURVE SMOOTH"
);
},
{
closed = 1;
nodes = (
"307 -4 OFFCURVE",
"327 -2 OFFCURVE",
"352 2 CURVE",
"352 11 LINE",
"288 6 OFFCURVE",
"255 30 OFFCURVE",
"255 70 CURVE SMOOTH",
"255 88 OFFCURVE",
"262 110 OFFCURVE",
"277 133 CURVE",
"269 146 LINE",
"267 135 OFFCURVE",
"261 126 OFFCURVE",
"254 116 CURVE SMOOTH",
"247 105 OFFCURVE",
"238 94 OFFCURVE",
"229 82 CURVE SMOOTH",
"217 65 OFFCURVE",
"205 48 OFFCURVE",
"198 34 CURVE SMOOTH",
"196 29 OFFCURVE",
"195 26 OFFCURVE",
"195 23 CURVE SMOOTH",
"195 15 OFFCURVE",
"201 11 OFFCURVE",
"212 8 CURVE SMOOTH",
"238 1 OFFCURVE",
"260 -4 OFFCURVE",
"289 -4 CURVE SMOOTH"
);
},
{
closed = 1;
nodes = (
"969 894 LINE SMOOTH",
"985 896 OFFCURVE",
"1002 889 OFFCURVE",
"1017 897 CURVE SMOOTH",
"1027 902 OFFCURVE",
"1052 940 OFFCURVE",
"1058 956 CURVE SMOOTH",
"1060 961 OFFCURVE",
"1059 964 OFFCURVE",
"1056 961 CURVE SMOOTH",
"1052 957 OFFCURVE",
"1045 956 OFFCURVE",
"1034 956 CURVE SMOOTH",
"1023 956 OFFCURVE",
"1012 959 OFFCURVE",
"998 959 CURVE SMOOTH",
"977 959 OFFCURVE",
"961 936 OFFCURVE",
"947 909 CURVE SMOOTH",
"942 899 OFFCURVE",
"948 894 OFFCURVE",
"961 894 CURVE SMOOTH"
);
},
{
closed = 1;
nodes = (
"1153 893 OFFCURVE",
"1159 894 OFFCURVE",
"1165 897 CURVE SMOOTH",
"1176 902 OFFCURVE",
"1201 940 OFFCURVE",
"1206 956 CURVE SMOOTH",
"1208 961 OFFCURVE",
"1208 964 OFFCURVE",
"1204 961 CURVE SMOOTH",
"1200 957 OFFCURVE",
"1193 956 OFFCURVE",
"1182 956 CURVE SMOOTH",
"1171 956 OFFCURVE",
"1160 959 OFFCURVE",
"1147 959 CURVE SMOOTH",
"1125 959 OFFCURVE",
"1109 936 OFFCURVE",
"1095 909 CURVE SMOOTH",
"1090 899 OFFCURVE",
"1096 894 OFFCURVE",
"1109 894 CURVE SMOOTH",
"1117 894 LINE SMOOTH",
"1127 895 OFFCURVE",
"1138 893 OFFCURVE",
"1147 893 CURVE SMOOTH"
);
}
);
width = 1195;
}
);
note = Adieresis;
},
{
color = 11;
glyphname = Agrave.ss01;
lastChange = "2021-10-14 18:20:22 +0000";
layers = (
{
layerId = "C36B7B90-196F-45C3-8412-B02CF16DA361";
paths = (
{
closed = 1;
nodes = (
"347 -200 OFFCURVE",
"358 -199 OFFCURVE",
"366 -196 CURVE",
"366 -196 OFFCURVE",
"436 -161 OFFCURVE",
"477 -139 CURVE",
"471 -129 LINE",
"448 -139 OFFCURVE",
"427 -161 OFFCURVE",
"382 -161 CURVE SMOOTH",
"363 -161 OFFCURVE",
"339 -157 OFFCURVE",
"308 -146 CURVE SMOOTH",
"200 -107 OFFCURVE",
"151 -32 OFFCURVE",
"151 48 CURVE SMOOTH",
"151 142 OFFCURVE",
"219 244 OFFCURVE",
"337 301 CURVE SMOOTH",
"422 343 OFFCURVE",
"553 355 OFFCURVE",
"682 356 CURVE",
"652 310 OFFCURVE",
"622 262 OFFCURVE",
"582 203 CURVE SMOOTH",
"503 87 OFFCURVE",
"486 17 OFFCURVE",
"336 -8 CURVE",
"333 -17 LINE",
"492 -12 OFFCURVE",
"625 177 OFFCURVE",
"737 357 CURVE",
"759 356 OFFCURVE",
"781 356 OFFCURVE",
"803 355 CURVE",
"825 338 OFFCURVE",
"838 322 OFFCURVE",
"853 298 CURVE",
"927 346 LINE",
"923 351 LINE",
"938 351 OFFCURVE",
"951 350 OFFCURVE",
"964 350 CURVE",
"958 303 OFFCURVE",
"954 256 OFFCURVE",
"954 211 CURVE SMOOTH",
"954 124 OFFCURVE",
"968 45 OFFCURVE",
"1005 -11 CURVE",
"1089 38 LINE",
"1097 99 OFFCURVE",
"1199 236 OFFCURVE",
"1241 267 CURVE",
"1234 275 LINE",
"1184 239 OFFCURVE",
"1114 151 OFFCURVE",
"1075 91 CURVE",
"1049 134 OFFCURVE",
"1039 200 OFFCURVE",
"1039 274 CURVE SMOOTH",
"1039 446 OFFCURVE",
"1095 667 OFFCURVE",
"1151 789 CURVE",
"1074 738 LINE",
"1034 653 OFFCURVE",
"988 510 OFFCURVE",
"966 367 CURVE",
"911 370 LINE",
"895 390 OFFCURVE",
"879 404 OFFCURVE",
"854 421 CURVE",
"784 375 LINE",
"772 376 OFFCURVE",
"761 376 OFFCURVE",
"749 376 CURVE",
"798 456 OFFCURVE",
"843 533 OFFCURVE",
"885 588 CURVE SMOOTH",
"933 652 OFFCURVE",
"967 704 OFFCURVE",
"1017 745 CURVE",
"1130 813 LINE",
"1124 823 LINE",
"1106 810 OFFCURVE",
"1072 797 OFFCURVE",
"1072 797 CURVE",
"1066 796 OFFCURVE",
"1055 795 OFFCURVE",
"1041 795 CURVE SMOOTH",
"967 795 OFFCURVE",
"797 812 OFFCURVE",
"701 820 CURVE SMOOTH",
"678 822 OFFCURVE",
"654 823 OFFCURVE",
"630 823 CURVE SMOOTH",
"524 823 OFFCURVE",
"414 801 OFFCURVE",
"340 754 CURVE SMOOTH",
"263 704 OFFCURVE",
"206 635 OFFCURVE",
"206 554 CURVE SMOOTH",
"206 526 OFFCURVE",
"212 497 OFFCURVE",
"227 467 CURVE SMOOTH",
"231 458 OFFCURVE",
"236 452 OFFCURVE",
"247 452 CURVE SMOOTH",
"252 452 LINE",
"252 452 OFFCURVE",
"337 480 OFFCURVE",
"366 489 CURVE",
"364 498 LINE",
"353 495 OFFCURVE",
"342 492 OFFCURVE",
"332 492 CURVE SMOOTH",
"321 492 OFFCURVE",
"311 495 OFFCURVE",
"301 505 CURVE SMOOTH",
"290 516 OFFCURVE",
"278 542 OFFCURVE",
"273 570 CURVE SMOOTH",
"271 581 OFFCURVE",
"270 591 OFFCURVE",
"270 601 CURVE SMOOTH",
"270 660 OFFCURVE",
"303 706 OFFCURVE",
"349 738 CURVE SMOOTH",
"392 768 OFFCURVE",
"446 777 OFFCURVE",
"502 777 CURVE SMOOTH",
"557 777 OFFCURVE",
"615 768 OFFCURVE",
"669 764 CURVE SMOOTH",
"722 760 OFFCURVE",
"893 725 OFFCURVE",
"970 729 CURVE",
"912 681 OFFCURVE",
"860 611 OFFCURVE",
"810 543 CURVE SMOOTH",
"762 479 OFFCURVE",
"728 428 OFFCURVE",
"695 377 CURVE",
"554 376 OFFCURVE",
"414 362 OFFCURVE",
"294 315 CURVE SMOOTH",
"142 255 OFFCURVE",
"57 137 OFFCURVE",
"57 29 CURVE SMOOTH",
"57 -50 OFFCURVE",
"101 -124 OFFCURVE",
"196 -168 CURVE SMOOTH",
"233 -186 OFFCURVE",
"293 -200 OFFCURVE",
"335 -200 CURVE SMOOTH"
);
},
{
closed = 1;
nodes = (
"307 -4 OFFCURVE",
"327 -2 OFFCURVE",
"352 2 CURVE",
"352 11 LINE",
"288 6 OFFCURVE",
"255 30 OFFCURVE",
"255 70 CURVE SMOOTH",
"255 88 OFFCURVE",
"262 110 OFFCURVE",
"277 133 CURVE",
"269 146 LINE",
"267 135 OFFCURVE",
"261 126 OFFCURVE",
"254 116 CURVE SMOOTH",
"247 105 OFFCURVE",
"238 94 OFFCURVE",
"229 82 CURVE SMOOTH",
"217 65 OFFCURVE",
"205 48 OFFCURVE",
"198 34 CURVE SMOOTH",
"196 29 OFFCURVE",
"195 26 OFFCURVE",
"195 23 CURVE SMOOTH",
"195 15 OFFCURVE",
"201 11 OFFCURVE",
"212 8 CURVE SMOOTH",
"238 1 OFFCURVE",
"260 -4 OFFCURVE",
"289 -4 CURVE SMOOTH"
);
},
{
closed = 1;
nodes = (
"1144 874 OFFCURVE",
"1155 877 OFFCURVE",
"1155 881 CURVE SMOOTH",
"1155 883 OFFCURVE",
"1152 886 OFFCURVE",
"1146 888 CURVE SMOOTH",
"1096 904 OFFCURVE",
"1053 949 OFFCURVE",
"1035 953 CURVE SMOOTH",
"1029 954 OFFCURVE",
"1024 955 OFFCURVE",
"1018 955 CURVE SMOOTH",
"991 955 OFFCURVE",
"966 942 OFFCURVE",
"972 937 CURVE SMOOTH",
"1011 906 OFFCURVE",
"1092 876 OFFCURVE",
"1135 874 CURVE SMOOTH"
);
}
);
width = 1195;
}
);
note = Agrave;
},
{
color = 11;
glyphname = Aring.ss01;
lastChange = "2021-10-14 18:20:22 +0000";
layers = (
{
layerId = "C36B7B90-196F-45C3-8412-B02CF16DA361";
paths = (
{
closed = 1;
nodes = (
"347 -200 OFFCURVE",
"358 -199 OFFCURVE",
"366 -196 CURVE",
"366 -196 OFFCURVE",
"436 -161 OFFCURVE",
"477 -139 CURVE",
"471 -129 LINE",
"448 -139 OFFCURVE",
"427 -161 OFFCURVE",
"382 -161 CURVE SMOOTH",
"363 -161 OFFCURVE",
"339 -157 OFFCURVE",
"308 -146 CURVE SMOOTH",
"200 -107 OFFCURVE",
"151 -32 OFFCURVE",
"151 48 CURVE SMOOTH",
"151 142 OFFCURVE",
"219 244 OFFCURVE",
"337 301 CURVE SMOOTH",
"422 343 OFFCURVE",
"553 355 OFFCURVE",
"682 356 CURVE",
"652 310 OFFCURVE",
"622 262 OFFCURVE",
"582 203 CURVE SMOOTH",
"503 87 OFFCURVE",
"486 17 OFFCURVE",
"336 -8 CURVE",
"333 -17 LINE",
"492 -12 OFFCURVE",
"625 177 OFFCURVE",
"737 357 CURVE",
"759 356 OFFCURVE",
"781 356 OFFCURVE",
"803 355 CURVE",
"825 338 OFFCURVE",
"838 322 OFFCURVE",
"853 298 CURVE",
"927 346 LINE",
"923 351 LINE",
"938 351 OFFCURVE",
"951 350 OFFCURVE",
"964 350 CURVE",
"958 303 OFFCURVE",
"954 256 OFFCURVE",
"954 211 CURVE SMOOTH",
"954 124 OFFCURVE",
"968 45 OFFCURVE",
"1005 -11 CURVE",
"1089 38 LINE",
"1097 99 OFFCURVE",
"1199 236 OFFCURVE",
"1241 267 CURVE",
"1234 275 LINE",
"1184 239 OFFCURVE",
"1114 151 OFFCURVE",
"1075 91 CURVE",
"1049 134 OFFCURVE",
"1039 200 OFFCURVE",
"1039 274 CURVE SMOOTH",
"1039 446 OFFCURVE",
"1095 667 OFFCURVE",
"1151 789 CURVE",
"1074 738 LINE",
"1034 653 OFFCURVE",
"988 510 OFFCURVE",
"966 367 CURVE",
"911 370 LINE",
"895 390 OFFCURVE",
"879 404 OFFCURVE",
"854 421 CURVE",
"784 375 LINE",
"772 376 OFFCURVE",
"761 376 OFFCURVE",
"749 376 CURVE",
"798 456 OFFCURVE",
"843 533 OFFCURVE",
"885 588 CURVE SMOOTH",
"933 652 OFFCURVE",
"967 704 OFFCURVE",
"1017 745 CURVE",
"1130 813 LINE",
"1124 823 LINE",
"1106 810 OFFCURVE",
"1072 797 OFFCURVE",
"1072 797 CURVE",
"1066 796 OFFCURVE",
"1055 795 OFFCURVE",
"1041 795 CURVE SMOOTH",
"967 795 OFFCURVE",
"797 812 OFFCURVE",
"701 820 CURVE SMOOTH",
"678 822 OFFCURVE",
"654 823 OFFCURVE",
"630 823 CURVE SMOOTH",
"524 823 OFFCURVE",
"414 801 OFFCURVE",
"340 754 CURVE SMOOTH",
"263 704 OFFCURVE",
"206 635 OFFCURVE",
"206 554 CURVE SMOOTH",
"206 526 OFFCURVE",
"212 497 OFFCURVE",
"227 467 CURVE SMOOTH",
"231 458 OFFCURVE",
"236 452 OFFCURVE",
"247 452 CURVE SMOOTH",
"252 452 LINE",
"252 452 OFFCURVE",
"337 480 OFFCURVE",
"366 489 CURVE",
"364 498 LINE",
"353 495 OFFCURVE",
"342 492 OFFCURVE",
"332 492 CURVE SMOOTH",
"321 492 OFFCURVE",
"311 495 OFFCURVE",
"301 505 CURVE SMOOTH",
"290 516 OFFCURVE",
"278 542 OFFCURVE",
"273 570 CURVE SMOOTH",
"271 581 OFFCURVE",
"270 591 OFFCURVE",
"270 601 CURVE SMOOTH",
"270 660 OFFCURVE",
"303 706 OFFCURVE",
"349 738 CURVE SMOOTH",
"392 768 OFFCURVE",
"446 777 OFFCURVE",
"502 777 CURVE SMOOTH",
"557 777 OFFCURVE",
"615 768 OFFCURVE",
"669 764 CURVE SMOOTH",
"722 760 OFFCURVE",
"893 725 OFFCURVE",
"970 729 CURVE",
"912 681 OFFCURVE",
"860 611 OFFCURVE",
"810 543 CURVE SMOOTH",
"762 479 OFFCURVE",
"728 428 OFFCURVE",
"695 377 CURVE",
"554 376 OFFCURVE",
"414 362 OFFCURVE",
"294 315 CURVE SMOOTH",
"142 255 OFFCURVE",
"57 137 OFFCURVE",
"57 29 CURVE SMOOTH",
"57 -50 OFFCURVE",
"101 -124 OFFCURVE",
"196 -168 CURVE SMOOTH",
"233 -186 OFFCURVE",
"293 -200 OFFCURVE",
"335 -200 CURVE SMOOTH"
);
},
{
closed = 1;
nodes = (
"307 -4 OFFCURVE",
"327 -2 OFFCURVE",
"352 2 CURVE",
"352 11 LINE",
"288 6 OFFCURVE",
"255 30 OFFCURVE",
"255 70 CURVE SMOOTH",
"255 88 OFFCURVE",
"262 110 OFFCURVE",
"277 133 CURVE",
"269 146 LINE",
"267 135 OFFCURVE",
"261 126 OFFCURVE",
"254 116 CURVE SMOOTH",
"247 105 OFFCURVE",
"238 94 OFFCURVE",
"229 82 CURVE SMOOTH",
"217 65 OFFCURVE",
"205 48 OFFCURVE",
"198 34 CURVE SMOOTH",
"196 29 OFFCURVE",
"195 26 OFFCURVE",
"195 23 CURVE SMOOTH",
"195 15 OFFCURVE",
"201 11 OFFCURVE",
"212 8 CURVE SMOOTH",
"238 1 OFFCURVE",
"260 -4 OFFCURVE",
"289 -4 CURVE SMOOTH"
);
},
{
closed = 1;
nodes = (
"1117 796 OFFCURVE",
"1137 805 OFFCURVE",
"1152 819 CURVE SMOOTH",
"1173 837 OFFCURVE",
"1186 864 OFFCURVE",
"1186 888 CURVE SMOOTH",
"1186 896 OFFCURVE",
"1184 904 OFFCURVE",
"1181 911 CURVE SMOOTH",
"1169 935 OFFCURVE",
"1145 945 OFFCURVE",
"1120 945 CURVE SMOOTH",
"1100 945 OFFCURVE",
"1081 936 OFFCURVE",
"1065 922 CURVE SMOOTH",
"1044 904 OFFCURVE",
"1032 878 OFFCURVE",
"1032 854 CURVE SMOOTH",
"1032 845 OFFCURVE",
"1034 837 OFFCURVE",
"1037 830 CURVE SMOOTH",
"1049 806 OFFCURVE",
"1073 796 OFFCURVE",
"1097 796 CURVE SMOOTH"
);
},
{
closed = 1;
nodes = (
"1099 821 OFFCURVE",
"1087 825 OFFCURVE",
"1077 834 CURVE SMOOTH",
"1065 845 OFFCURVE",
"1061 858 OFFCURVE",
"1061 870 CURVE SMOOTH",
"1061 886 OFFCURVE",
"1068 901 OFFCURVE",
"1077 909 CURVE SMOOTH",
"1085 916 OFFCURVE",
"1096 920 OFFCURVE",
"1107 920 CURVE SMOOTH",
"1119 920 OFFCURVE",
"1131 916 OFFCURVE",
"1141 907 CURVE SMOOTH",
"1152 896 OFFCURVE",
"1157 883 OFFCURVE",
"1157 871 CURVE SMOOTH",
"1157 855 OFFCURVE",
"1150 840 OFFCURVE",
"1140 832 CURVE SMOOTH",
"1132 825 OFFCURVE",
"1121 821 OFFCURVE",
"1110 821 CURVE SMOOTH"
);
}
);
width = 1195;
}
);
note = Aring;
},
{
color = 11;
glyphname = Atilde.ss01;
lastChange = "2021-10-14 18:20:22 +0000";
layers = (
{
layerId = "C36B7B90-196F-45C3-8412-B02CF16DA361";
paths = (
{
closed = 1;
nodes = (
"347 -200 OFFCURVE",
"358 -199 OFFCURVE",
"366 -196 CURVE",
"366 -196 OFFCURVE",
"436 -161 OFFCURVE",
"477 -139 CURVE",
"471 -129 LINE",
"448 -139 OFFCURVE",
"427 -161 OFFCURVE",
"382 -161 CURVE SMOOTH",
"363 -161 OFFCURVE",
"339 -157 OFFCURVE",
"308 -146 CURVE SMOOTH",
"200 -107 OFFCURVE",
"151 -32 OFFCURVE",
"151 48 CURVE SMOOTH",
"151 142 OFFCURVE",
"219 244 OFFCURVE",
"337 301 CURVE SMOOTH",
"422 343 OFFCURVE",
"553 355 OFFCURVE",
"682 356 CURVE",
"652 310 OFFCURVE",
"622 262 OFFCURVE",
"582 203 CURVE SMOOTH",
"503 87 OFFCURVE",
"486 17 OFFCURVE",
"336 -8 CURVE",
"333 -17 LINE",
"492 -12 OFFCURVE",
"625 177 OFFCURVE",
"737 357 CURVE",
"759 356 OFFCURVE",
"781 356 OFFCURVE",
"803 355 CURVE",
"825 338 OFFCURVE",
"838 322 OFFCURVE",
"853 298 CURVE",
"927 346 LINE",
"923 351 LINE",
"938 351 OFFCURVE",
"951 350 OFFCURVE",
"964 350 CURVE",
"958 303 OFFCURVE",
"954 256 OFFCURVE",
"954 211 CURVE SMOOTH",
"954 124 OFFCURVE",
"968 45 OFFCURVE",
"1005 -11 CURVE",
"1089 38 LINE",
"1097 99 OFFCURVE",
"1199 236 OFFCURVE",
"1241 267 CURVE",
"1234 275 LINE",
"1184 239 OFFCURVE",
"1114 151 OFFCURVE",
"1075 91 CURVE",
"1049 134 OFFCURVE",
"1039 200 OFFCURVE",
"1039 274 CURVE SMOOTH",
"1039 446 OFFCURVE",
"1095 667 OFFCURVE",
"1151 789 CURVE",
"1074 738 LINE",
"1034 653 OFFCURVE",
"988 510 OFFCURVE",
"966 367 CURVE",
"911 370 LINE",
"895 390 OFFCURVE",
"879 404 OFFCURVE",
"854 421 CURVE",
"784 375 LINE",
"772 376 OFFCURVE",
"761 376 OFFCURVE",
"749 376 CURVE",
"798 456 OFFCURVE",
"843 533 OFFCURVE",
"885 588 CURVE SMOOTH",
"933 652 OFFCURVE",
"967 704 OFFCURVE",
"1017 745 CURVE",
"1130 813 LINE",
"1124 823 LINE",
"1106 810 OFFCURVE",
"1072 797 OFFCURVE",
"1072 797 CURVE",
"1066 796 OFFCURVE",
"1055 795 OFFCURVE",
"1041 795 CURVE SMOOTH",
"967 795 OFFCURVE",
"797 812 OFFCURVE",
"701 820 CURVE SMOOTH",
"678 822 OFFCURVE",
"654 823 OFFCURVE",
"630 823 CURVE SMOOTH",
"524 823 OFFCURVE",
"414 801 OFFCURVE",
"340 754 CURVE SMOOTH",
"263 704 OFFCURVE",
"206 635 OFFCURVE",
"206 554 CURVE SMOOTH",
"206 526 OFFCURVE",
"212 497 OFFCURVE",
"227 467 CURVE SMOOTH",
"231 458 OFFCURVE",
"236 452 OFFCURVE",
"247 452 CURVE SMOOTH",
"252 452 LINE",
"252 452 OFFCURVE",
"337 480 OFFCURVE",
"366 489 CURVE",
"364 498 LINE",
"353 495 OFFCURVE",
"342 492 OFFCURVE",
"332 492 CURVE SMOOTH",
"321 492 OFFCURVE",
"311 495 OFFCURVE",
"301 505 CURVE SMOOTH",
"290 516 OFFCURVE",
"278 542 OFFCURVE",
"273 570 CURVE SMOOTH",
"271 581 OFFCURVE",
"270 591 OFFCURVE",
"270 601 CURVE SMOOTH",
"270 660 OFFCURVE",
"303 706 OFFCURVE",
"349 738 CURVE SMOOTH",
"392 768 OFFCURVE",
"446 777 OFFCURVE",
"502 777 CURVE SMOOTH",
"557 777 OFFCURVE",
"615 768 OFFCURVE",
"669 764 CURVE SMOOTH",
"722 760 OFFCURVE",
"893 725 OFFCURVE",
"970 729 CURVE",
"912 681 OFFCURVE",
"860 611 OFFCURVE",
"810 543 CURVE SMOOTH",
"762 479 OFFCURVE",
"728 428 OFFCURVE",
"695 377 CURVE",
"554 376 OFFCURVE",
"414 362 OFFCURVE",
"294 315 CURVE SMOOTH",
"142 255 OFFCURVE",
"57 137 OFFCURVE",
"57 29 CURVE SMOOTH",
"57 -50 OFFCURVE",
"101 -124 OFFCURVE",
"196 -168 CURVE SMOOTH",
"233 -186 OFFCURVE",
"293 -200 OFFCURVE",
"335 -200 CURVE SMOOTH"
);
},
{
closed = 1;
nodes = (
"307 -4 OFFCURVE",
"327 -2 OFFCURVE",
"352 2 CURVE",
"352 11 LINE",
"288 6 OFFCURVE",
"255 30 OFFCURVE",
"255 70 CURVE SMOOTH",
"255 88 OFFCURVE",
"262 110 OFFCURVE",
"277 133 CURVE",
"269 146 LINE",
"267 135 OFFCURVE",
"261 126 OFFCURVE",
"254 116 CURVE SMOOTH",
"247 105 OFFCURVE",
"238 94 OFFCURVE",
"229 82 CURVE SMOOTH",
"217 65 OFFCURVE",
"205 48 OFFCURVE",
"198 34 CURVE SMOOTH",
"196 29 OFFCURVE",
"195 26 OFFCURVE",
"195 23 CURVE SMOOTH",
"195 15 OFFCURVE",
"201 11 OFFCURVE",
"212 8 CURVE SMOOTH",
"238 1 OFFCURVE",
"260 -4 OFFCURVE",
"289 -4 CURVE SMOOTH"
);
},
{
closed = 1;
nodes = (
"1183 893 OFFCURVE",
"1208 935 OFFCURVE",
"1216 959 CURVE",
"1220 967 OFFCURVE",
"1203 965 OFFCURVE",
"1198 957 CURVE SMOOTH",
"1189 940 OFFCURVE",
"1176 927 OFFCURVE",
"1159 927 CURVE SMOOTH",
"1124 927 OFFCURVE",
"1099 964 OFFCURVE",
"1056 964 CURVE SMOOTH",
"1055 964 LINE SMOOTH",
"1012 964 OFFCURVE",
"983 915 OFFCURVE",
"976 894 CURVE SMOOTH",
"975 889 OFFCURVE",
"992 891 OFFCURVE",
"995 897 CURVE SMOOTH",
"1005 916 OFFCURVE",
"1022 928 OFFCURVE",
"1040 928 CURVE SMOOTH",
"1075 928 OFFCURVE",
"1102 893 OFFCURVE",
"1142 893 CURVE SMOOTH"
);
}
);
width = 1195;
}
);
note = Atilde;
},
{
color = 5;
glyphname = AE.ss01;
lastChange = "2021-10-14 18:20:22 +0000";
layers = (
{
layerId = "C36B7B90-196F-45C3-8412-B02CF16DA361";
paths = (
{
closed = 1;
nodes = (
"348 -203 OFFCURVE",
"358 -202 OFFCURVE",
"366 -199 CURVE",
"366 -199 OFFCURVE",
"436 -163 OFFCURVE",
"477 -141 CURVE",
"471 -132 LINE",
"448 -142 OFFCURVE",
"427 -164 OFFCURVE",
"382 -164 CURVE SMOOTH",
"363 -164 OFFCURVE",
"339 -160 OFFCURVE",
"308 -149 CURVE SMOOTH",
"200 -110 OFFCURVE",
"151 -35 OFFCURVE",
"151 45 CURVE SMOOTH",
"151 140 OFFCURVE",
"219 242 OFFCURVE",
"337 299 CURVE SMOOTH",
"422 340 OFFCURVE",
"553 352 OFFCURVE",
"682 354 CURVE",
"652 307 OFFCURVE",
"622 259 OFFCURVE",
"582 200 CURVE SMOOTH",
"503 85 OFFCURVE",
"486 14 OFFCURVE",
"336 -10 CURVE",
"333 -19 LINE",
"492 -15 OFFCURVE",
"625 175 OFFCURVE",
"737 354 CURVE",
"759 354 OFFCURVE",
"781 353 OFFCURVE",
"803 353 CURVE",
"825 336 OFFCURVE",
"838 320 OFFCURVE",
"853 296 CURVE",
"927 343 LINE",
"923 349 LINE",
"933 348 OFFCURVE",
"955 348 OFFCURVE",
"971 348 CURVE",
"953 297 OFFCURVE",
"934 246 OFFCURVE",
"910 193 CURVE SMOOTH",
"884 134 OFFCURVE",
"862 106 OFFCURVE",
"817 74 CURVE",
"813 73 OFFCURVE",
"795 71 OFFCURVE",
"771 65 CURVE SMOOTH",
"722 51 OFFCURVE",
"649 -28 OFFCURVE",
"620 -50 CURVE",
"625 -59 LINE",
"711 0 OFFCURVE",
"806 -5 OFFCURVE",
"855 -5 CURVE SMOOTH",
"874 -5 OFFCURVE",
"1060 -12 OFFCURVE",
"1199 -12 CURVE SMOOTH",
"1277 -12 OFFCURVE",
"1341 -9 OFFCURVE",
"1351 -3 CURVE SMOOTH",
"1395 25 OFFCURVE",
"1493 250 OFFCURVE",
"1506 277 CURVE",
"1498 284 LINE",
"1422 130 OFFCURVE",
"1363 68 OFFCURVE",
"1272 64 CURVE SMOOTH",
"1258 63 OFFCURVE",
"1242 63 OFFCURVE",
"1224 63 CURVE SMOOTH",
"1123 63 OFFCURVE",
"959 71 OFFCURVE",
"834 73 CURVE",
"861 94 OFFCURVE",
"897 119 OFFCURVE",
"908 119 CURVE SMOOTH",
"953 123 OFFCURVE",
"996 170 OFFCURVE",
"1010 213 CURVE SMOOTH",
"1056 355 LINE",
"1068 366 LINE SMOOTH",
"1093 389 OFFCURVE",
"1116 395 OFFCURVE",
"1146 395 CURVE SMOOTH",
"1156 395 OFFCURVE",
"1167 394 OFFCURVE",
"1179 393 CURVE SMOOTH",
"1209 390 OFFCURVE",
"1257 376 OFFCURVE",
"1296 376 CURVE SMOOTH",
"1312 376 OFFCURVE",
"1327 378 OFFCURVE",
"1338 386 CURVE SMOOTH",
"1450 463 LINE",
"1442 481 LINE",
"1418 461 OFFCURVE",
"1386 454 OFFCURVE",
"1336 454 CURVE SMOOTH",
"1313 454 OFFCURVE",
"1286 455 OFFCURVE",
"1254 458 CURVE SMOOTH",
"1240 459 OFFCURVE",
"1225 460 OFFCURVE",
"1211 460 CURVE SMOOTH",
"1171 460 OFFCURVE",
"1133 453 OFFCURVE",
"1106 428 CURVE SMOOTH",
"1087 411 OFFCURVE",
"1076 400 OFFCURVE",
"1068 392 CURVE",
"1109 520 OFFCURVE",
"1152 651 OFFCURVE",
"1184 728 CURVE",
"1251 718 OFFCURVE",
"1371 696 OFFCURVE",
"1439 696 CURVE SMOOTH",
"1460 696 OFFCURVE",
"1476 698 OFFCURVE",
"1484 703 CURVE SMOOTH",
"1612 780 LINE SMOOTH",
"1619 784 OFFCURVE",
"1606 789 OFFCURVE",
"1606 789 CURVE",
"1588 777 OFFCURVE",
"1555 764 OFFCURVE",
"1555 764 CURVE",
"1549 763 OFFCURVE",
"1539 762 OFFCURVE",
"1525 762 CURVE SMOOTH",
"1457 762 OFFCURVE",
"1310 776 OFFCURVE",
"1211 785 CURVE",
"1255 865 OFFCURVE",
"1280 886 OFFCURVE",
"1369 906 CURVE",
"1367 914 LINE",
"1346 910 OFFCURVE",
"1280 894 OFFCURVE",
"1243 869 CURVE SMOOTH",
"1204 841 OFFCURVE",
"1171 818 OFFCURVE",
"1145 790 CURVE",
"1115 792 OFFCURVE",
"951 803 OFFCURVE",
"701 818 CURVE SMOOTH",
"682 819 OFFCURVE",
"662 820 OFFCURVE",
"642 820 CURVE SMOOTH",
"532 820 OFFCURVE",
"417 800 OFFCURVE",
"340 751 CURVE SMOOTH",
"263 701 OFFCURVE",
"206 632 OFFCURVE",
"206 551 CURVE SMOOTH",
"206 523 OFFCURVE",
"212 494 OFFCURVE",
"227 464 CURVE SMOOTH",
"231 456 OFFCURVE",
"235 449 OFFCURVE",
"246 449 CURVE SMOOTH",
"247 449 OFFCURVE",
"250 450 OFFCURVE",
"252 450 CURVE",
"252 450 OFFCURVE",
"337 477 OFFCURVE",
"366 487 CURVE",
"364 495 LINE",
"353 492 OFFCURVE",
"342 489 OFFCURVE",
"332 489 CURVE SMOOTH",
"321 489 OFFCURVE",
"311 492 OFFCURVE",
"301 502 CURVE SMOOTH",
"290 513 OFFCURVE",
"278 539 OFFCURVE",
"273 567 CURVE SMOOTH",
"271 578 OFFCURVE",
"270 588 OFFCURVE",
"270 598 CURVE SMOOTH",
"270 657 OFFCURVE",
"303 703 OFFCURVE",
"349 735 CURVE SMOOTH",
"385 760 OFFCURVE",
"467 767 OFFCURVE",
"550 767 CURVE SMOOTH",
"600 767 OFFCURVE",
"650 764 OFFCURVE",
"691 762 CURVE SMOOTH",
"798 756 OFFCURVE",
"962 744 OFFCURVE",
"981 743 CURVE",
"923 695 OFFCURVE",
"860 608 OFFCURVE",
"810 541 CURVE SMOOTH",
"762 476 OFFCURVE",
"728 425 OFFCURVE",
"695 374 CURVE",
"554 373 OFFCURVE",
"414 360 OFFCURVE",
"294 312 CURVE SMOOTH",
"142 253 OFFCURVE",
"57 135 OFFCURVE",
"57 26 CURVE SMOOTH",
"57 -53 OFFCURVE",
"101 -127 OFFCURVE",
"196 -171 CURVE SMOOTH",
"233 -188 OFFCURVE",
"294 -203 OFFCURVE",
"336 -203 CURVE SMOOTH"
);
},
{
closed = 1;
nodes = (
"307 -7 OFFCURVE",
"327 -5 OFFCURVE",
"352 -1 CURVE",
"352 9 LINE",
"288 3 OFFCURVE",
"255 27 OFFCURVE",
"255 67 CURVE SMOOTH",
"255 85 OFFCURVE",
"262 107 OFFCURVE",
"277 130 CURVE",
"269 144 LINE",
"267 133 OFFCURVE",
"262 124 OFFCURVE",
"254 113 CURVE SMOOTH",
"229 79 LINE SMOOTH",
"217 63 OFFCURVE",
"205 46 OFFCURVE",
"198 31 CURVE SMOOTH",
"196 26 OFFCURVE",
"195 23 OFFCURVE",
"195 20 CURVE SMOOTH",
"195 12 OFFCURVE",
"201 9 OFFCURVE",
"212 5 CURVE SMOOTH",
"238 -2 OFFCURVE",
"260 -7 OFFCURVE",
"289 -7 CURVE SMOOTH"
);
},
{
closed = 1;
nodes = (
"956 365 OFFCURVE",
"925 366 OFFCURVE",
"911 367 CURVE",
"895 387 OFFCURVE",
"879 401 OFFCURVE",
"854 418 CURVE",
"784 373 LINE",
"772 373 OFFCURVE",
"761 373 OFFCURVE",
"749 374 CURVE",
"798 454 OFFCURVE",
"843 530 OFFCURVE",
"885 586 CURVE SMOOTH",
"929 645 OFFCURVE",
"967 700 OFFCURVE",
"1011 740 CURVE",
"1043 736 OFFCURVE",
"1074 735 OFFCURVE",
"1107 732 CURVE",
"1079 679 OFFCURVE",
"1043 570 OFFCURVE",
"1013 476 CURVE SMOOTH",
"1002 439 OFFCURVE",
"990 402 OFFCURVE",
"977 365 CURVE"
);
},
{
closed = 1;
nodes = (
"1458 818 OFFCURVE",
"1460 828 OFFCURVE",
"1464 840 CURVE SMOOTH",
"1467 851 OFFCURVE",
"1472 865 OFFCURVE",
"1477 878 CURVE SMOOTH",
"1485 899 OFFCURVE",
"1493 920 OFFCURVE",
"1493 935 CURVE SMOOTH",
"1493 953 OFFCURVE",
"1481 953 OFFCURVE",
"1458 953 CURVE SMOOTH",
"1420 953 OFFCURVE",
"1387 948 OFFCURVE",
"1333 924 CURVE",
"1336 916 LINE",
"1354 922 OFFCURVE",
"1371 925 OFFCURVE",
"1385 925 CURVE SMOOTH",
"1428 925 OFFCURVE",
"1453 899 OFFCURVE",
"1453 857 CURVE SMOOTH",
"1453 845 OFFCURVE",
"1451 832 OFFCURVE",
"1447 818 CURVE",
"1459 807 LINE"
);
}
);
width = 1513;
}
);
note = AE;
},
{
color = 5;
glyphname = B.ss01;
lastChange = "2021-10-14 18:20:22 +0000";
layers = (
{
layerId = "C36B7B90-196F-45C3-8412-B02CF16DA361";
paths = (
{
closed = 1;
nodes = (
"89 -194 OFFCURVE",
"91 -193 OFFCURVE",
"93 -191 CURVE",
"126 -141 OFFCURVE",
"162 -75 OFFCURVE",
"199 1 CURVE",
"229 -1 OFFCURVE",
"260 -4 OFFCURVE",
"296 -5 CURVE SMOOTH",
"372 -8 OFFCURVE",
"489 -13 OFFCURVE",
"561 -12 CURVE SMOOTH",
"684 -9 OFFCURVE",
"915 58 OFFCURVE",
"915 192 CURVE SMOOTH",
"915 213 OFFCURVE",
"909 236 OFFCURVE",
"896 261 CURVE SMOOTH",
"872 305 OFFCURVE",
"825 347 OFFCURVE",
"786 374 CURVE SMOOTH",
"759 391 OFFCURVE",
"731 409 OFFCURVE",
"701 422 CURVE",
"767 450 OFFCURVE",
"780 461 OFFCURVE",
"831 512 CURVE SMOOTH",
"859 540 OFFCURVE",
"871 569 OFFCURVE",
"871 598 CURVE SMOOTH",
"871 684 OFFCURVE",
"763 764 OFFCURVE",
"651 784 CURVE",
"690 868 OFFCURVE",
"721 886 OFFCURVE",
"811 906 CURVE",
"808 914 LINE",
"787 910 OFFCURVE",
"721 894 OFFCURVE",
"685 869 CURVE SMOOTH",
"645 841 OFFCURVE",
"613 818 OFFCURVE",
"586 790 CURVE",
"561 791 OFFCURVE",
"535 789 OFFCURVE",
"509 786 CURVE",
"540 889 OFFCURVE",
"556 966 OFFCURVE",
"552 995 CURVE SMOOTH",
"551 1000 OFFCURVE",
"548 1002 OFFCURVE",
"544 1002 CURVE SMOOTH",
"540 1002 OFFCURVE",
"536 999 OFFCURVE",
"536 994 CURVE SMOOTH",
"536 993 LINE SMOOTH",
"540 972 OFFCURVE",
"519 893 OFFCURVE",
"484 783 CURVE",
"400 769 OFFCURVE",
"320 739 OFFCURVE",
"264 697 CURVE SMOOTH",
"193 644 OFFCURVE",
"138 574 OFFCURVE",
"138 496 CURVE SMOOTH",
"138 467 OFFCURVE",
"147 436 OFFCURVE",
"165 404 CURVE SMOOTH",
"169 396 OFFCURVE",
"179 389 OFFCURVE",
"190 389 CURVE SMOOTH",
"193 389 OFFCURVE",
"195 389 OFFCURVE",
"198 390 CURVE",
"198 390 OFFCURVE",
"280 424 OFFCURVE",
"309 435 CURVE",
"306 443 LINE",
"293 439 OFFCURVE",
"282 435 OFFCURVE",
"271 435 CURVE SMOOTH",
"261 435 OFFCURVE",
"252 438 OFFCURVE",
"242 446 CURVE SMOOTH",
"231 456 OFFCURVE",
"217 481 OFFCURVE",
"210 509 CURVE SMOOTH",
"206 523 OFFCURVE",
"205 537 OFFCURVE",
"205 550 CURVE SMOOTH",
"205 604 OFFCURVE",
"233 649 OFFCURVE",
"274 682 CURVE SMOOTH",
"325 723 OFFCURVE",
"398 745 OFFCURVE",
"473 748 CURVE",
"453 687 OFFCURVE",
"429 619 OFFCURVE",
"403 548 CURVE",
"340 511 LINE",
"355 495 OFFCURVE",
"365 482 OFFCURVE",
"374 468 CURVE",
"364 442 OFFCURVE",
"354 415 OFFCURVE",
"343 388 CURVE",
"286 355 LINE",
"299 341 OFFCURVE",
"308 329 OFFCURVE",
"316 317 CURVE",
"281 230 OFFCURVE",
"245 144 OFFCURVE",
"210 66 CURVE",
"186 68 OFFCURVE",
"165 69 OFFCURVE",
"148 69 CURVE SMOOTH",
"137 69 OFFCURVE",
"128 68 OFFCURVE",
"122 67 CURVE SMOOTH",
"61 54 OFFCURVE",
"-9 -28 OFFCURVE",
"-38 -50 CURVE",
"-33 -59 LINE",
"34 -8 OFFCURVE",
"88 3 OFFCURVE",
"152 3 CURVE SMOOTH",
"161 3 OFFCURVE",
"170 2 OFFCURVE",
"180 2 CURVE",
"144 -73 OFFCURVE",
"110 -137 OFFCURVE",
"80 -182 CURVE SMOOTH",
"76 -188 OFFCURVE",
"81 -194 OFFCURVE",
"87 -194 CURVE SMOOTH"
);
},
{
closed = 1;
nodes = (
"230 65 LINE",
"264 137 OFFCURVE",
"298 214 OFFCURVE",
"330 293 CURVE",
"333 288 OFFCURVE",
"335 283 OFFCURVE",
"338 277 CURVE",
"399 312 LINE",
"385 273 OFFCURVE",
"369 234 OFFCURVE",
"352 193 CURVE SMOOTH",
"323 129 OFFCURVE",
"300 101 OFFCURVE",
"244 64 CURVE"
);
},
{
closed = 1;
nodes = (
"404 336 OFFCURVE",
"401 342 OFFCURVE",
"397 347 CURVE",
"389 362 OFFCURVE",
"380 375 OFFCURVE",
"368 388 CURVE",
"389 441 LINE",
"393 433 LINE",
"452 467 LINE",
"438 423 OFFCURVE",
"423 377 OFFCURVE",
"406 331 CURVE"
);
},
{
closed = 1;
nodes = (
"529 50 OFFCURVE",
"443 54 OFFCURVE",
"360 57 CURVE SMOOTH",
"261 63 LINE",
"290 85 OFFCURVE",
"336 118 OFFCURVE",
"349 119 CURVE SMOOTH",
"394 123 OFFCURVE",
"437 170 OFFCURVE",
"451 213 CURVE SMOOTH",
"515 410 OFFCURVE",
"550 535 OFFCURVE",
"627 727 CURVE",
"718 695 OFFCURVE",
"796 620 OFFCURVE",
"796 548 CURVE SMOOTH",
"796 503 OFFCURVE",
"766 459 OFFCURVE",
"691 428 CURVE",
"695 424 LINE",
"680 429 OFFCURVE",
"664 434 OFFCURVE",
"648 435 CURVE",
"554 389 LINE",
"639 381 OFFCURVE",
"767 292 OFFCURVE",
"807 217 CURVE SMOOTH",
"823 186 OFFCURVE",
"830 161 OFFCURVE",
"830 141 CURVE SMOOTH",
"830 61 OFFCURVE",
"716 58 OFFCURVE",
"633 51 CURVE SMOOTH",
"621 50 OFFCURVE",
"606 50 OFFCURVE",
"588 50 CURVE SMOOTH"
);
},
{
closed = 1;
nodes = (
"457 495 OFFCURVE",
"454 499 OFFCURVE",
"452 504 CURVE",
"444 517 OFFCURVE",
"436 529 OFFCURVE",
"426 541 CURVE",
"453 615 OFFCURVE",
"477 685 OFFCURVE",
"497 748 CURVE",
"515 748 OFFCURVE",
"533 747 OFFCURVE",
"551 744 CURVE",
"540 727 OFFCURVE",
"530 707 OFFCURVE",
"522 684 CURVE SMOOTH",
"499 621 OFFCURVE",
"480 557 OFFCURVE",
"459 491 CURVE"
);
},
{
closed = 1;
nodes = (
"875 768 OFFCURVE",
"877 778 OFFCURVE",
"881 790 CURVE SMOOTH",
"884 801 OFFCURVE",
"889 815 OFFCURVE",
"894 828 CURVE SMOOTH",
"901 847 OFFCURVE",
"908 866 OFFCURVE",
"910 881 CURVE SMOOTH",
"912 899 OFFCURVE",
"904 902 OFFCURVE",
"888 902 CURVE SMOOTH",
"844 904 OFFCURVE",
"810 901 OFFCURVE",
"750 874 CURVE",
"753 866 LINE",
"771 872 OFFCURVE",
"788 875 OFFCURVE",
"802 875 CURVE SMOOTH",
"845 875 OFFCURVE",
"870 849 OFFCURVE",
"870 807 CURVE SMOOTH",
"870 795 OFFCURVE",
"868 782 OFFCURVE",
"864 768 CURVE",
"876 757 LINE"
);
}
);
width = 933;
}
);
note = B;
},
{
color = 5;
glyphname = C.ss01;
lastChange = "2021-10-14 18:20:22 +0000";
layers = (
{
layerId = "C36B7B90-196F-45C3-8412-B02CF16DA361";
paths = (
{
closed = 1;
nodes = (
"185 -155 OFFCURVE",
"188 -154 OFFCURVE",
"189 -152 CURVE SMOOTH",
"213 -110 OFFCURVE",
"238 -56 OFFCURVE",
"264 5 CURVE",
"321 -16 OFFCURVE",
"383 -27 OFFCURVE",
"440 -27 CURVE SMOOTH",
"471 -27 OFFCURVE",
"501 -24 OFFCURVE",
"528 -18 CURVE SMOOTH",
"592 -4 OFFCURVE",
"643 11 OFFCURVE",
"689 39 CURVE SMOOTH",
"753 78 LINE SMOOTH",
"759 82 OFFCURVE",
"765 86 OFFCURVE",
"771 91 CURVE",
"766 98 LINE",
"730 74 LINE SMOOTH",
"675 38 OFFCURVE",
"607 21 OFFCURVE",
"535 21 CURVE SMOOTH",
"454 21 OFFCURVE",
"369 42 OFFCURVE",
"295 83 CURVE",
"323 155 OFFCURVE",
"346 214 OFFCURVE",
"365 267 CURVE",
"365 266 LINE",
"439 308 LINE",
"435 318 OFFCURVE",
"430 327 OFFCURVE",
"425 336 CURVE SMOOTH",
"416 351 OFFCURVE",
"413 360 OFFCURVE",
"402 374 CURVE",
"404 378 OFFCURVE",
"405 383 OFFCURVE",
"406 388 CURVE SMOOTH",
"410 402 OFFCURVE",
"415 415 OFFCURVE",
"419 429 CURVE",
"420 427 LINE",
"494 469 LINE",
"480 486 OFFCURVE",
"460 510 OFFCURVE",
"448 534 CURVE",
"464 596 OFFCURVE",
"481 667 OFFCURVE",
"502 757 CURVE",
"543 751 OFFCURVE",
"672 717 OFFCURVE",
"740 717 CURVE SMOOTH",
"755 717 OFFCURVE",
"768 718 OFFCURVE",
"775 723 CURVE SMOOTH",
"850 769 LINE",
"890 792 LINE",
"887 798 LINE",
"882 795 OFFCURVE",
"853 779 OFFCURVE",
"847 778 CURVE SMOOTH",
"837 775 OFFCURVE",
"825 774 OFFCURVE",
"813 774 CURVE SMOOTH",
"767 774 OFFCURVE",
"711 788 OFFCURVE",
"677 792 CURVE SMOOTH",
"651 795 OFFCURVE",
"534 821 OFFCURVE",
"515 817 CURVE",
"532 897 OFFCURVE",
"541 961 OFFCURVE",
"541 1000 CURVE SMOOTH",
"541 1010 OFFCURVE",
"540 1019 OFFCURVE",
"539 1025 CURVE SMOOTH",
"537 1031 OFFCURVE",
"531 1037 OFFCURVE",
"528 1037 CURVE SMOOTH",
"527 1037 OFFCURVE",
"526 1036 OFFCURVE",
"526 1034 CURVE SMOOTH",
"526 1032 LINE",
"527 1029 OFFCURVE",
"527 1024 OFFCURVE",
"527 1019 CURVE SMOOTH",
"527 985 OFFCURVE",
"513 909 OFFCURVE",
"490 810 CURVE",
"447 795 OFFCURVE",
"418 764 OFFCURVE",
"376 739 CURVE SMOOTH",
"248 661 OFFCURVE",
"283 454 OFFCURVE",
"204 362 CURVE",
"187 347 OFFCURVE",
"156 330 OFFCURVE",
"129 319 CURVE",
"132 303 LINE",
"174 328 OFFCURVE",
"214 352 OFFCURVE",
"256 376 CURVE SMOOTH",
"313 408 OFFCURVE",
"351 486 OFFCURVE",
"379 625 CURVE SMOOTH",
"402 734 OFFCURVE",
"442 758 OFFCURVE",
"478 759 CURVE",
"459 683 OFFCURVE",
"439 605 OFFCURVE",
"417 527 CURVE",
"368 500 LINE",
"381 486 OFFCURVE",
"390 474 OFFCURVE",
"398 462 CURVE",
"390 433 OFFCURVE",
"381 404 OFFCURVE",
"373 376 CURVE",
"313 344 LINE",
"347 295 LINE",
"325 226 OFFCURVE",
"302 158 OFFCURVE",
"278 93 CURVE",
"221 128 OFFCURVE",
"172 173 OFFCURVE",
"137 230 CURVE SMOOTH",
"99 292 OFFCURVE",
"82 355 OFFCURVE",
"82 415 CURVE SMOOTH",
"82 580 OFFCURVE",
"208 721 OFFCURVE",
"352 747 CURVE SMOOTH",
"356 748 OFFCURVE",
"358 752 OFFCURVE",
"358 756 CURVE SMOOTH",
"358 758 OFFCURVE",
"357 760 OFFCURVE",
"355 760 CURVE SMOOTH",
"353 760 LINE",
"279 744 OFFCURVE",
"205 700 OFFCURVE",
"157 664 CURVE SMOOTH",
"65 595 OFFCURVE",
"13 475 OFFCURVE",
"13 355 CURVE SMOOTH",
"13 285 OFFCURVE",
"30 215 OFFCURVE",
"67 156 CURVE SMOOTH",
"108 90 OFFCURVE",
"174 42 OFFCURVE",
"247 12 CURVE",
"222 -51 OFFCURVE",
"198 -104 OFFCURVE",
"175 -143 CURVE SMOOTH",
"171 -149 OFFCURVE",
"177 -155 OFFCURVE",
"183 -155 CURVE SMOOTH"
);
}
);
width = 733;
}
);
note = C;
},
{
color = 11;
glyphname = Ccedilla.ss01;
lastChange = "2021-10-14 18:20:22 +0000";
layers = (
{
layerId = "C36B7B90-196F-45C3-8412-B02CF16DA361";
paths = (
{
closed = 1;
nodes = (
"185 -155 OFFCURVE",
"188 -154 OFFCURVE",
"189 -152 CURVE SMOOTH",
"213 -110 OFFCURVE",
"238 -56 OFFCURVE",
"264 5 CURVE",
"321 -16 OFFCURVE",
"383 -27 OFFCURVE",
"440 -27 CURVE SMOOTH",
"471 -27 OFFCURVE",
"501 -24 OFFCURVE",
"528 -18 CURVE SMOOTH",
"592 -4 OFFCURVE",
"643 10 OFFCURVE",
"689 39 CURVE SMOOTH",
"753 78 LINE SMOOTH",
"759 82 OFFCURVE",
"765 86 OFFCURVE",
"771 91 CURVE",
"766 98 LINE",
"730 74 LINE SMOOTH",
"675 38 OFFCURVE",
"607 21 OFFCURVE",
"535 21 CURVE SMOOTH",
"454 21 OFFCURVE",
"369 42 OFFCURVE",
"295 83 CURVE",
"323 155 OFFCURVE",
"346 214 OFFCURVE",
"365 267 CURVE",
"365 266 LINE",
"439 308 LINE",
"435 318 OFFCURVE",
"430 327 OFFCURVE",
"425 336 CURVE SMOOTH",
"416 351 OFFCURVE",
"413 360 OFFCURVE",
"402 374 CURVE",
"404 378 OFFCURVE",
"405 383 OFFCURVE",
"406 388 CURVE SMOOTH",
"410 402 OFFCURVE",
"414 415 OFFCURVE",
"419 429 CURVE",
"420 427 LINE",
"494 469 LINE",
"480 486 OFFCURVE",
"460 510 OFFCURVE",
"448 534 CURVE",
"464 596 OFFCURVE",
"481 667 OFFCURVE",
"502 757 CURVE",
"543 751 OFFCURVE",
"672 717 OFFCURVE",
"740 717 CURVE SMOOTH",
"755 717 OFFCURVE",
"768 718 OFFCURVE",
"775 723 CURVE SMOOTH",
"850 769 LINE",
"890 792 LINE",
"886 798 LINE",
"882 795 OFFCURVE",
"853 779 OFFCURVE",
"847 777 CURVE SMOOTH",
"837 775 OFFCURVE",
"827 774 OFFCURVE",
"815 774 CURVE SMOOTH",
"769 774 OFFCURVE",
"711 788 OFFCURVE",
"676 792 CURVE SMOOTH",
"651 795 OFFCURVE",
"534 821 OFFCURVE",
"515 817 CURVE",
"532 897 OFFCURVE",
"541 961 OFFCURVE",
"541 1000 CURVE SMOOTH",
"541 1010 OFFCURVE",
"540 1019 OFFCURVE",
"539 1025 CURVE SMOOTH",
"537 1031 OFFCURVE",
"531 1037 OFFCURVE",
"528 1037 CURVE SMOOTH",
"527 1037 OFFCURVE",
"526 1036 OFFCURVE",
"526 1034 CURVE SMOOTH",
"526 1032 LINE",
"527 1029 OFFCURVE",
"527 1024 OFFCURVE",
"527 1019 CURVE SMOOTH",
"527 985 OFFCURVE",
"513 909 OFFCURVE",
"490 810 CURVE",
"447 795 OFFCURVE",
"418 764 OFFCURVE",
"376 739 CURVE SMOOTH",
"248 661 OFFCURVE",
"283 454 OFFCURVE",
"204 362 CURVE",
"186 347 OFFCURVE",
"156 330 OFFCURVE",
"129 319 CURVE",
"132 303 LINE",
"174 328 OFFCURVE",
"214 352 OFFCURVE",
"256 376 CURVE SMOOTH",
"313 408 OFFCURVE",
"351 486 OFFCURVE",
"379 625 CURVE SMOOTH",
"401 734 OFFCURVE",
"442 758 OFFCURVE",
"478 759 CURVE",
"459 683 OFFCURVE",
"439 605 OFFCURVE",
"417 527 CURVE",
"368 500 LINE",
"381 486 OFFCURVE",
"390 474 OFFCURVE",
"398 462 CURVE",
"390 433 OFFCURVE",
"381 404 OFFCURVE",
"373 376 CURVE",
"313 344 LINE",
"347 295 LINE",
"325 226 OFFCURVE",
"302 158 OFFCURVE",
"278 93 CURVE",
"221 128 OFFCURVE",
"172 173 OFFCURVE",
"137 230 CURVE SMOOTH",
"99 292 OFFCURVE",
"82 355 OFFCURVE",
"82 415 CURVE SMOOTH",
"82 580 OFFCURVE",
"208 721 OFFCURVE",
"352 747 CURVE SMOOTH",
"356 748 OFFCURVE",
"358 752 OFFCURVE",
"358 756 CURVE SMOOTH",
"358 758 OFFCURVE",
"357 760 OFFCURVE",
"354 760 CURVE SMOOTH",
"352 760 LINE",
"279 743 OFFCURVE",
"205 700 OFFCURVE",
"157 664 CURVE SMOOTH",
"65 595 OFFCURVE",
"13 475 OFFCURVE",
"13 355 CURVE SMOOTH",
"13 285 OFFCURVE",
"30 215 OFFCURVE",
"67 156 CURVE SMOOTH",
"108 90 OFFCURVE",
"174 42 OFFCURVE",
"247 12 CURVE",
"222 -51 OFFCURVE",
"198 -104 OFFCURVE",
"175 -143 CURVE SMOOTH",
"171 -149 OFFCURVE",
"177 -155 OFFCURVE",
"183 -155 CURVE SMOOTH"
);
},
{
closed = 1;
nodes = (
"253 -262 OFFCURVE",
"332 -229 OFFCURVE",
"340 -151 CURVE SMOOTH",
"343 -114 OFFCURVE",
"321 -81 OFFCURVE",
"263 -81 CURVE SMOOTH",
"254 -81 OFFCURVE",
"246 -82 OFFCURVE",
"240 -83 CURVE",
"251 -68 OFFCURVE",
"280 -25 OFFCURVE",
"287 -14 CURVE",
"264 -14 LINE",
"244 -54 OFFCURVE",
"215 -81 OFFCURVE",
"183 -116 CURVE",
"181 -117 OFFCURVE",
"186 -123 OFFCURVE",
"190 -120 CURVE SMOOTH",
"199 -114 OFFCURVE",
"214 -112 OFFCURVE",
"225 -112 CURVE SMOOTH",
"264 -112 OFFCURVE",
"290 -134 OFFCURVE",
"290 -173 CURVE SMOOTH",
"290 -216 OFFCURVE",
"260 -246 OFFCURVE",
"227 -246 CURVE SMOOTH",
"211 -246 OFFCURVE",
"195 -239 OFFCURVE",
"183 -223 CURVE SMOOTH",
"182 -221 OFFCURVE",
"181 -217 OFFCURVE",
"181 -212 CURVE SMOOTH",
"181 -200 OFFCURVE",
"185 -180 OFFCURVE",
"189 -167 CURVE",
"181 -162 LINE",
"174 -182 OFFCURVE",
"150 -221 OFFCURVE",
"140 -230 CURVE SMOOTH",
"133 -237 OFFCURVE",
"149 -248 OFFCURVE",
"156 -252 CURVE SMOOTH",
"165 -259 OFFCURVE",
"180 -262 OFFCURVE",
"198 -262 CURVE SMOOTH"
);
}
);
width = 733;
}
);
note = Ccedilla;
},
{
color = 5;
glyphname = D.ss01;
lastChange = "2021-10-14 18:20:22 +0000";
layers = (
{
layerId = "C36B7B90-196F-45C3-8412-B02CF16DA361";
paths = (
{
closed = 1;
nodes = (
"101 -194 OFFCURVE",
"103 -193 OFFCURVE",
"105 -191 CURVE",
"137 -141 OFFCURVE",
"174 -75 OFFCURVE",
"211 1 CURVE",
"240 -1 OFFCURVE",
"272 -4 OFFCURVE",
"308 -5 CURVE SMOOTH",
"321 -5 OFFCURVE",
"344 -6 OFFCURVE",
"373 -6 CURVE SMOOTH",
"465 -6 OFFCURVE",
"613 -3 OFFCURVE",
"654 3 CURVE SMOOTH",
"926 47 OFFCURVE",
"1040 207 OFFCURVE",
"1040 371 CURVE SMOOTH",
"1040 558 OFFCURVE",
"893 751 OFFCURVE",
"663 785 CURVE",
"701 868 OFFCURVE",
"733 886 OFFCURVE",
"822 906 CURVE",
"820 914 LINE",
"799 910 OFFCURVE",
"733 894 OFFCURVE",
"696 869 CURVE SMOOTH",
"657 841 OFFCURVE",
"624 818 OFFCURVE",
"598 790 CURVE",
"572 791 OFFCURVE",
"546 789 OFFCURVE",
"520 786 CURVE",
"547 877 OFFCURVE",
"564 948 OFFCURVE",
"564 983 CURVE SMOOTH",
"564 988 OFFCURVE",
"564 992 OFFCURVE",
"563 995 CURVE",
"563 999 OFFCURVE",
"559 1001 OFFCURVE",
"555 1001 CURVE SMOOTH",
"552 1001 OFFCURVE",
"548 999 OFFCURVE",
"548 995 CURVE SMOOTH",
"548 993 LINE SMOOTH",
"551 972 OFFCURVE",
"531 893 OFFCURVE",
"496 783 CURVE",
"412 769 OFFCURVE",
"332 739 OFFCURVE",
"276 697 CURVE SMOOTH",
"206 645 OFFCURVE",
"155 576 OFFCURVE",
"155 500 CURVE SMOOTH",
"155 468 OFFCURVE",
"164 436 OFFCURVE",
"183 403 CURVE SMOOTH",
"187 395 OFFCURVE",
"192 389 OFFCURVE",
"201 389 CURVE SMOOTH",
"203 389 OFFCURVE",
"206 389 OFFCURVE",
"209 390 CURVE",
"209 390 OFFCURVE",
"292 424 OFFCURVE",
"321 435 CURVE",
"318 443 LINE",
"305 439 OFFCURVE",
"294 435 OFFCURVE",
"282 435 CURVE SMOOTH",
"273 435 OFFCURVE",
"264 438 OFFCURVE",
"254 446 CURVE SMOOTH",
"242 456 OFFCURVE",
"229 481 OFFCURVE",
"222 509 CURVE SMOOTH",
"218 523 OFFCURVE",
"217 537 OFFCURVE",
"217 550 CURVE SMOOTH",
"217 604 OFFCURVE",
"245 649 OFFCURVE",
"286 682 CURVE SMOOTH",
"336 722 OFFCURVE",
"409 743 OFFCURVE",
"484 747 CURVE",
"465 688 OFFCURVE",
"442 622 OFFCURVE",
"417 552 CURVE",
"415 554 LINE",
"341 511 LINE",
"358 492 OFFCURVE",
"370 477 OFFCURVE",
"379 460 CURVE SMOOTH",
"381 456 LINE",
"374 436 OFFCURVE",
"366 417 OFFCURVE",
"358 397 CURVE",
"286 355 LINE",
"303 336 OFFCURVE",
"314 322 OFFCURVE",
"323 306 CURVE",
"290 223 OFFCURVE",
"255 141 OFFCURVE",
"221 66 CURVE",
"197 68 OFFCURVE",
"176 69 OFFCURVE",
"160 69 CURVE SMOOTH",
"149 69 OFFCURVE",
"140 68 OFFCURVE",
"134 67 CURVE SMOOTH",
"73 54 OFFCURVE",
"3 -28 OFFCURVE",
"-26 -50 CURVE",
"-22 -59 LINE",
"46 -8 OFFCURVE",
"100 3 OFFCURVE",
"163 3 CURVE SMOOTH",
"172 3 OFFCURVE",
"181 2 OFFCURVE",
"191 2 CURVE",
"156 -73 OFFCURVE",
"122 -137 OFFCURVE",
"92 -182 CURVE SMOOTH",
"88 -188 OFFCURVE",
"93 -194 OFFCURVE",
"99 -194 CURVE SMOOTH"
);
},
{
closed = 1;
nodes = (
"242 65 LINE",
"274 133 OFFCURVE",
"306 206 OFFCURVE",
"337 280 CURVE",
"338 277 LINE",
"412 319 LINE",
"407 329 OFFCURVE",
"403 338 OFFCURVE",
"397 347 CURVE SMOOTH",
"391 359 OFFCURVE",
"384 369 OFFCURVE",
"376 379 CURVE",
"384 398 OFFCURVE",
"392 417 OFFCURVE",
"399 437 CURVE",
"466 475 LINE",
"438 385 OFFCURVE",
"407 292 OFFCURVE",
"363 193 CURVE SMOOTH",
"335 129 OFFCURVE",
"311 101 OFFCURVE",
"256 64 CURVE"
);
},
{
closed = 1;
nodes = (
"589 46 OFFCURVE",
"462 54 OFFCURVE",
"372 57 CURVE SMOOTH",
"273 63 LINE",
"301 85 OFFCURVE",
"347 118 OFFCURVE",
"361 119 CURVE SMOOTH",
"406 123 OFFCURVE",
"449 170 OFFCURVE",
"463 213 CURVE SMOOTH",
"527 412 OFFCURVE",
"563 538 OFFCURVE",
"641 734 CURVE",
"850 684 OFFCURVE",
"956 506 OFFCURVE",
"956 343 CURVE SMOOTH",
"956 196 OFFCURVE",
"869 61 OFFCURVE",
"690 47 CURVE SMOOTH",
"682 46 OFFCURVE",
"671 46 OFFCURVE",
"657 46 CURVE SMOOTH"
);
},
{
closed = 1;
nodes = (
"462 486 OFFCURVE",
"457 495 OFFCURVE",
"452 504 CURVE SMOOTH",
"446 514 OFFCURVE",
"441 522 OFFCURVE",
"434 531 CURVE",
"463 608 OFFCURVE",
"488 682 OFFCURVE",
"509 748 CURVE",
"527 749 OFFCURVE",
"546 748 OFFCURVE",
"564 746 CURVE",
"552 728 OFFCURVE",
"542 708 OFFCURVE",
"534 684 CURVE SMOOTH",
"509 617 OFFCURVE",
"489 548 OFFCURVE",
"466 476 CURVE"
);
},
{
closed = 1;
nodes = (
"886 768 OFFCURVE",
"889 778 OFFCURVE",
"892 790 CURVE",
"906 828 LINE SMOOTH",
"913 847 OFFCURVE",
"919 866 OFFCURVE",
"921 881 CURVE SMOOTH",
"924 899 OFFCURVE",
"916 902 OFFCURVE",
"900 902 CURVE SMOOTH",
"856 904 OFFCURVE",
"822 901 OFFCURVE",
"762 874 CURVE",
"765 866 LINE",
"783 872 OFFCURVE",
"799 875 OFFCURVE",
"814 875 CURVE SMOOTH",
"857 875 OFFCURVE",
"882 849 OFFCURVE",
"882 806 CURVE SMOOTH",
"882 795 OFFCURVE",
"880 782 OFFCURVE",
"876 768 CURVE",
"887 757 LINE"
);
}
);
width = 1046;
}
);
note = D;
},
{
color = 5;
glyphname = Eth.ss01;
lastChange = "2021-10-14 18:20:22 +0000";
layers = (
{
background = {
hints = (
{
horizontal = 1;
place = "{0, 16}";
type = Stem;
},
{
horizontal = 1;
place = "{617, 13}";
type = Stem;
},
{
place = "{648, 106}";
type = Stem;
},
{
horizontal = 1;
place = "{96.558, 30.726}";
type = Stem;
},
{
place = "{205.919, 136.562}";
type = Stem;
}
);
paths = (
{
closed = 1;
nodes = (
"608 672 OFFCURVE",
"469 616 OFFCURVE",
"341 616 CURVE SMOOTH",
"335 616 OFFCURVE",
"328 616 OFFCURVE",
"320 616 CURVE SMOOTH",
"258 615 OFFCURVE",
"191 619 OFFCURVE",
"118 620 CURVE SMOOTH",
"116 620 OFFCURVE",
"100 619 OFFCURVE",
"100 619 CURVE",
"90 603 LINE",
"90 603 OFFCURVE",
"108 603 OFFCURVE",
"113 603 CURVE SMOOTH",
"140 603 OFFCURVE",
"194 602 OFFCURVE",
"211 599 CURVE SMOOTH",
"252 592 OFFCURVE",
"241 529 OFFCURVE",
"238 498 CURVE SMOOTH",
"233 441 OFFCURVE",
"204 269 OFFCURVE",
"161 129 CURVE SMOOTH",
"123 4 OFFCURVE",
"130 14 OFFCURVE",
"-11 16 CURVE",
"-14 17 OFFCURVE",
"-24 17 OFFCURVE",
"-24 17 CURVE",
"-35 0 LINE",
"-35 0 OFFCURVE",
"-21 0 OFFCURVE",
"-16 0 CURVE SMOOTH",
"47 0 OFFCURVE",
"117 2 OFFCURVE",
"145 3 CURVE SMOOTH",
"166 3 OFFCURVE",
"182 3 OFFCURVE",
"190 2 CURVE",
"370 -2 OFFCURVE",
"444 -48 OFFCURVE",
"587 83 CURVE SMOOTH",
"663 153 LINE SMOOTH",
"744 228 OFFCURVE",
"819 384 OFFCURVE",
"705 540 CURVE SMOOTH"
);
},
{
closed = 1;
nodes = (
"493 49 OFFCURVE",
"327 4 OFFCURVE",
"268 50 CURVE",
"262 75 OFFCURVE",
"265 130 OFFCURVE",
"278 203 CURVE SMOOTH",
"287 258 OFFCURVE",
"313 442 OFFCURVE",
"355 536 CURVE SMOOTH",
"389 614 OFFCURVE",
"463 611 OFFCURVE",
"524 575 CURVE SMOOTH",
"694 475 OFFCURVE",
"704 220 OFFCURVE",
"537 85 CURVE SMOOTH"
);
},
{
closed = 1;
nodes = (
"114 238 LINE SMOOTH",
"109 238 OFFCURVE",
"92 204 OFFCURVE",
"97 204 CURVE SMOOTH",
"341 204 LINE SMOOTH",
"347 204 OFFCURVE",
"367 238 OFFCURVE",
"357 238 CURVE SMOOTH"
);
}
);
};
layerId = "C36B7B90-196F-45C3-8412-B02CF16DA361";
paths = (
{
closed = 1;
nodes = (
"46 -8 OFFCURVE",
"100 3 OFFCURVE",
"163 3 CURVE SMOOTH",
"172 3 OFFCURVE",
"181 2 OFFCURVE",
"191 2 CURVE SMOOTH",
"240 -1 OFFCURVE",
"276 -4 OFFCURVE",
"308 -5 CURVE SMOOTH",
"321 -5 OFFCURVE",
"344 -6 OFFCURVE",
"373 -6 CURVE SMOOTH",
"465 -6 OFFCURVE",
"613 -3 OFFCURVE",
"654 3 CURVE SMOOTH",
"926 47 OFFCURVE",
"1040 207 OFFCURVE",
"1040 371 CURVE SMOOTH",
"1040 558 OFFCURVE",
"893 751 OFFCURVE",
"663 785 CURVE",
"701 868 OFFCURVE",
"733 886 OFFCURVE",
"822 906 CURVE",
"820 914 LINE",
"799 910 OFFCURVE",
"733 894 OFFCURVE",
"696 869 CURVE SMOOTH",
"657 841 OFFCURVE",
"624 818 OFFCURVE",
"598 790 CURVE",
"572 791 OFFCURVE",
"546 789 OFFCURVE",
"520 786 CURVE SMOOTH",
"419 773 OFFCURVE",
"340 745 OFFCURVE",
"276 697 CURVE SMOOTH",
"206 645 OFFCURVE",
"155 576 OFFCURVE",
"155 500 CURVE SMOOTH",
"155 468 OFFCURVE",
"164 436 OFFCURVE",
"183 403 CURVE SMOOTH",
"187 395 OFFCURVE",
"192 389 OFFCURVE",
"201 389 CURVE SMOOTH",
"203 389 OFFCURVE",
"206 389 OFFCURVE",
"209 390 CURVE",
"209 390 OFFCURVE",
"292 424 OFFCURVE",
"321 435 CURVE",
"318 443 LINE",
"305 439 OFFCURVE",
"294 435 OFFCURVE",
"282 435 CURVE SMOOTH",
"273 435 OFFCURVE",
"264 438 OFFCURVE",
"254 446 CURVE SMOOTH",
"242 456 OFFCURVE",
"229 481 OFFCURVE",
"222 509 CURVE SMOOTH",
"218 523 OFFCURVE",
"217 537 OFFCURVE",
"217 550 CURVE SMOOTH",
"217 604 OFFCURVE",
"245 649 OFFCURVE",
"286 682 CURVE SMOOTH",
"336 722 OFFCURVE",
"409 743 OFFCURVE",
"484 747 CURVE SMOOTH",
"499 748 OFFCURVE",
"512 748 OFFCURVE",
"524 748 CURVE SMOOTH",
"538 748 OFFCURVE",
"550 748 OFFCURVE",
"564 746 CURVE",
"552 728 OFFCURVE",
"542 708 OFFCURVE",
"534 684 CURVE SMOOTH",
"509 617 OFFCURVE",
"489 548 OFFCURVE",
"466 476 CURVE",
"465 475 LINE",
"466 475 LINE",
"438 385 OFFCURVE",
"407 292 OFFCURVE",
"363 193 CURVE SMOOTH",
"335 129 OFFCURVE",
"311 101 OFFCURVE",
"256 64 CURVE",
"227 66 OFFCURVE",
"187 69 OFFCURVE",
"160 69 CURVE SMOOTH",
"148 69 OFFCURVE",
"139 68 OFFCURVE",
"134 67 CURVE SMOOTH",
"73 54 OFFCURVE",
"3 -28 OFFCURVE",
"-26 -50 CURVE",
"-22 -59 LINE"
);
},
{
closed = 1;
nodes = (
"560 268 LINE SMOOTH",
"571 268 OFFCURVE",
"605 315 OFFCURVE",
"589 315 CURVE SMOOTH",
"311 315 LINE SMOOTH",
"302 315 OFFCURVE",
"273 268 OFFCURVE",
"283 268 CURVE SMOOTH"
);
},
{
closed = 1;
nodes = (
"581 46 OFFCURVE",
"459 52 OFFCURVE",
"372 57 CURVE SMOOTH",
"273 63 LINE",
"301 85 OFFCURVE",
"347 118 OFFCURVE",
"361 119 CURVE SMOOTH",
"406 123 OFFCURVE",
"449 170 OFFCURVE",
"463 213 CURVE SMOOTH",
"527 412 OFFCURVE",
"563 538 OFFCURVE",
"641 734 CURVE",
"850 684 OFFCURVE",
"956 506 OFFCURVE",
"956 343 CURVE SMOOTH",
"956 196 OFFCURVE",
"869 61 OFFCURVE",
"690 47 CURVE SMOOTH",
"680 46 OFFCURVE",
"667 46 OFFCURVE",
"651 46 CURVE SMOOTH"
);
},
{
closed = 1;
nodes = (
"886 768 OFFCURVE",
"889 778 OFFCURVE",
"892 790 CURVE",
"906 828 LINE SMOOTH",
"914 850 OFFCURVE",
"922 872 OFFCURVE",
"922 888 CURVE SMOOTH",
"922 900 OFFCURVE",
"914 902 OFFCURVE",
"900 902 CURVE SMOOTH",
"856 904 OFFCURVE",
"822 901 OFFCURVE",
"762 874 CURVE",
"765 866 LINE",
"783 872 OFFCURVE",
"799 875 OFFCURVE",
"814 875 CURVE SMOOTH",
"857 875 OFFCURVE",
"882 849 OFFCURVE",
"882 806 CURVE SMOOTH",
"882 795 OFFCURVE",
"880 782 OFFCURVE",
"876 768 CURVE",
"887 757 LINE"
);
}
);
width = 1046;
}
);
},
{
color = 5;
glyphname = E.ss01;
lastChange = "2021-10-14 18:20:22 +0000";
layers = (
{
layerId = "C36B7B90-196F-45C3-8412-B02CF16DA361";
paths = (
{
closed = 1;
nodes = (
"87 -195 OFFCURVE",
"89 -194 OFFCURVE",
"91 -191 CURVE SMOOTH",
"124 -141 OFFCURVE",
"160 -75 OFFCURVE",
"197 1 CURVE",
"226 -1 OFFCURVE",
"258 -4 OFFCURVE",
"294 -5 CURVE SMOOTH",
"312 -6 OFFCURVE",
"493 -12 OFFCURVE",
"631 -12 CURVE SMOOTH",
"712 -12 OFFCURVE",
"779 -10 OFFCURVE",
"790 -3 CURVE SMOOTH",
"834 25 OFFCURVE",
"932 250 OFFCURVE",
"945 277 CURVE",
"937 284 LINE",
"861 130 OFFCURVE",
"802 68 OFFCURVE",
"711 64 CURVE SMOOTH",
"697 63 OFFCURVE",
"681 63 OFFCURVE",
"663 63 CURVE SMOOTH",
"562 63 OFFCURVE",
"398 71 OFFCURVE",
"273 73 CURVE",
"300 94 OFFCURVE",
"336 119 OFFCURVE",
"347 119 CURVE SMOOTH",
"392 123 OFFCURVE",
"435 170 OFFCURVE",
"449 213 CURVE SMOOTH",
"495 355 LINE",
"507 366 LINE SMOOTH",
"532 389 OFFCURVE",
"555 395 OFFCURVE",
"585 395 CURVE SMOOTH",
"595 395 OFFCURVE",
"606 394 OFFCURVE",
"618 393 CURVE SMOOTH",
"648 390 OFFCURVE",
"696 376 OFFCURVE",
"735 376 CURVE SMOOTH",
"751 376 OFFCURVE",
"766 378 OFFCURVE",
"777 386 CURVE SMOOTH",
"889 463 LINE",
"881 481 LINE",
"857 461 OFFCURVE",
"825 454 OFFCURVE",
"775 454 CURVE SMOOTH",
"752 454 OFFCURVE",
"725 455 OFFCURVE",
"693 458 CURVE SMOOTH",
"679 459 OFFCURVE",
"664 460 OFFCURVE",
"650 460 CURVE SMOOTH",
"610 460 OFFCURVE",
"572 453 OFFCURVE",
"545 428 CURVE SMOOTH",
"526 411 OFFCURVE",
"515 400 OFFCURVE",
"507 392 CURVE",
"548 520 OFFCURVE",
"591 651 OFFCURVE",
"623 728 CURVE",
"690 718 OFFCURVE",
"810 696 OFFCURVE",
"878 696 CURVE SMOOTH",
"899 696 OFFCURVE",
"915 698 OFFCURVE",
"923 703 CURVE SMOOTH",
"1051 780 LINE SMOOTH",
"1058 784 OFFCURVE",
"1045 789 OFFCURVE",
"1045 789 CURVE",
"1027 777 OFFCURVE",
"994 764 OFFCURVE",
"994 764 CURVE",
"988 763 OFFCURVE",
"978 762 OFFCURVE",
"964 762 CURVE SMOOTH",
"896 762 OFFCURVE",
"749 776 OFFCURVE",
"650 785 CURVE",
"694 865 OFFCURVE",
"719 886 OFFCURVE",
"808 906 CURVE",
"806 914 LINE",
"785 910 OFFCURVE",
"719 894 OFFCURVE",
"682 869 CURVE SMOOTH",
"643 841 OFFCURVE",
"610 818 OFFCURVE",
"584 790 CURVE",
"558 791 OFFCURVE",
"533 790 OFFCURVE",
"507 789 CURVE",
"534 878 OFFCURVE",
"550 947 OFFCURVE",
"550 982 CURVE SMOOTH",
"550 987 OFFCURVE",
"550 991 OFFCURVE",
"549 995 CURVE SMOOTH",
"549 999 OFFCURVE",
"545 1001 OFFCURVE",
"541 1001 CURVE SMOOTH",
"538 1001 OFFCURVE",
"534 999 OFFCURVE",
"534 995 CURVE SMOOTH",
"534 993 LINE SMOOTH",
"537 973 OFFCURVE",
"517 895 OFFCURVE",
"483 787 CURVE",
"400 779 OFFCURVE",
"320 758 OFFCURVE",
"261 721 CURVE SMOOTH",
"184 671 OFFCURVE",
"127 601 OFFCURVE",
"127 520 CURVE SMOOTH",
"127 492 OFFCURVE",
"134 464 OFFCURVE",
"148 434 CURVE SMOOTH",
"152 425 OFFCURVE",
"157 419 OFFCURVE",
"169 419 CURVE SMOOTH",
"174 419 LINE",
"174 419 OFFCURVE",
"258 447 OFFCURVE",
"288 456 CURVE",
"285 465 LINE",
"274 462 OFFCURVE",
"263 459 OFFCURVE",
"253 459 CURVE SMOOTH",
"242 459 OFFCURVE",
"232 462 OFFCURVE",
"222 472 CURVE SMOOTH",
"211 483 OFFCURVE",
"199 509 OFFCURVE",
"195 537 CURVE SMOOTH",
"193 548 OFFCURVE",
"192 559 OFFCURVE",
"192 569 CURVE SMOOTH",
"192 628 OFFCURVE",
"225 673 OFFCURVE",
"270 705 CURVE SMOOTH",
"312 735 OFFCURVE",
"366 744 OFFCURVE",
"422 744 CURVE SMOOTH",
"438 744 OFFCURVE",
"453 743 OFFCURVE",
"469 742 CURVE",
"450 684 OFFCURVE",
"427 620 OFFCURVE",
"403 552 CURVE",
"401 554 LINE",
"327 511 LINE",
"344 492 OFFCURVE",
"356 477 OFFCURVE",
"365 460 CURVE SMOOTH",
"367 456 LINE",
"360 437 OFFCURVE",
"352 417 OFFCURVE",
"345 397 CURVE",
"272 355 LINE",
"289 336 OFFCURVE",
"300 322 OFFCURVE",
"309 306 CURVE",
"277 225 OFFCURVE",
"243 146 OFFCURVE",
"211 74 CURVE",
"171 73 OFFCURVE",
"139 71 OFFCURVE",
"120 67 CURVE SMOOTH",
"59 54 OFFCURVE",
"-11 -28 OFFCURVE",
"-40 -50 CURVE",
"-35 -59 LINE",
"32 -8 OFFCURVE",
"86 3 OFFCURVE",
"150 3 CURVE SMOOTH",
"159 3 OFFCURVE",
"168 2 OFFCURVE",
"178 2 CURVE",
"142 -73 OFFCURVE",
"108 -137 OFFCURVE",
"78 -182 CURVE SMOOTH",
"74 -188 OFFCURVE",
"79 -195 OFFCURVE",
"85 -195 CURVE SMOOTH"
);
},
{
closed = 1;
nodes = (
"262 139 OFFCURVE",
"293 209 OFFCURVE",
"323 280 CURVE",
"324 277 LINE",
"398 319 LINE",
"394 329 OFFCURVE",
"389 338 OFFCURVE",
"384 347 CURVE SMOOTH",
"377 359 OFFCURVE",
"370 369 OFFCURVE",
"363 379 CURVE",
"370 398 OFFCURVE",
"378 417 OFFCURVE",
"385 437 CURVE",
"452 475 LINE",
"424 385 OFFCURVE",
"393 292 OFFCURVE",
"349 193 CURVE SMOOTH",
"323 134 OFFCURVE",
"301 106 OFFCURVE",
"256 74 CURVE",
"232 74 LINE"
);
},
{
closed = 1;
nodes = (
"448 486 OFFCURVE",
"443 495 OFFCURVE",
"438 504 CURVE SMOOTH",
"433 514 OFFCURVE",
"427 522 OFFCURVE",
"420 531 CURVE",
"448 605 OFFCURVE",
"472 677 OFFCURVE",
"493 741 CURVE",
"510 739 OFFCURVE",
"527 738 OFFCURVE",
"543 736 CURVE",
"535 720 OFFCURVE",
"527 703 OFFCURVE",
"520 684 CURVE SMOOTH",
"495 617 OFFCURVE",
"475 548 OFFCURVE",
"452 476 CURVE"
);
},
{
closed = 1;
nodes = (
"897 818 OFFCURVE",
"899 828 OFFCURVE",
"903 840 CURVE SMOOTH",
"906 851 OFFCURVE",
"911 865 OFFCURVE",
"916 878 CURVE SMOOTH",
"923 897 OFFCURVE",
"930 916 OFFCURVE",
"932 931 CURVE SMOOTH",
"934 953 OFFCURVE",
"922 953 OFFCURVE",
"897 953 CURVE SMOOTH",
"859 953 OFFCURVE",
"826 948 OFFCURVE",
"772 924 CURVE",
"775 916 LINE",
"793 922 OFFCURVE",
"810 925 OFFCURVE",
"824 925 CURVE SMOOTH",
"867 925 OFFCURVE",
"892 899 OFFCURVE",
"892 857 CURVE SMOOTH",
"892 845 OFFCURVE",
"890 832 OFFCURVE",
"886 818 CURVE",
"898 807 LINE"
);
}
);
width = 952;
}
);
note = E;
},
{
color = 11;
glyphname = Eacute.ss01;
lastChange = "2021-10-14 18:20:22 +0000";
layers = (
{
layerId = "C36B7B90-196F-45C3-8412-B02CF16DA361";
paths = (
{
closed = 1;
nodes = (
"87 -192 OFFCURVE",
"89 -191 OFFCURVE",
"91 -188 CURVE SMOOTH",
"124 -139 OFFCURVE",
"160 -72 OFFCURVE",
"198 3 CURVE",
"227 2 OFFCURVE",
"259 -1 OFFCURVE",
"295 -2 CURVE SMOOTH",
"313 -3 OFFCURVE",
"493 -9 OFFCURVE",
"631 -9 CURVE SMOOTH",
"713 -9 OFFCURVE",
"779 -7 OFFCURVE",
"790 0 CURVE SMOOTH",
"834 28 OFFCURVE",
"933 253 OFFCURVE",
"945 280 CURVE",
"937 287 LINE",
"861 133 OFFCURVE",
"802 71 OFFCURVE",
"711 66 CURVE SMOOTH",
"698 65 OFFCURVE",
"684 65 OFFCURVE",
"667 65 CURVE SMOOTH",
"566 65 OFFCURVE",
"399 74 OFFCURVE",
"273 76 CURVE",
"301 97 OFFCURVE",
"336 121 OFFCURVE",
"347 122 CURVE SMOOTH",
"392 125 OFFCURVE",
"435 172 OFFCURVE",
"449 216 CURVE SMOOTH",
"463 259 OFFCURVE",
"479 307 OFFCURVE",
"495 358 CURVE",
"508 369 LINE SMOOTH",
"533 392 OFFCURVE",
"556 398 OFFCURVE",
"586 398 CURVE SMOOTH",
"596 398 OFFCURVE",
"606 397 OFFCURVE",
"618 396 CURVE SMOOTH",
"648 393 OFFCURVE",
"697 379 OFFCURVE",
"735 379 CURVE SMOOTH",
"752 379 OFFCURVE",
"767 381 OFFCURVE",
"778 389 CURVE SMOOTH",
"889 466 LINE",
"882 484 LINE",
"857 464 OFFCURVE",
"826 457 OFFCURVE",
"776 457 CURVE SMOOTH",
"753 457 OFFCURVE",
"726 458 OFFCURVE",
"694 461 CURVE SMOOTH",
"680 462 OFFCURVE",
"666 463 OFFCURVE",
"652 463 CURVE SMOOTH",
"611 463 OFFCURVE",
"572 456 OFFCURVE",
"545 430 CURVE SMOOTH",
"527 413 OFFCURVE",
"515 403 OFFCURVE",
"507 395 CURVE",
"548 522 OFFCURVE",
"591 654 OFFCURVE",
"623 730 CURVE",
"690 721 OFFCURVE",
"811 698 OFFCURVE",
"879 698 CURVE SMOOTH",
"899 698 OFFCURVE",
"915 700 OFFCURVE",
"923 705 CURVE SMOOTH",
"1052 782 LINE SMOOTH",
"1059 786 OFFCURVE",
"1046 792 OFFCURVE",
"1046 792 CURVE",
"1027 780 OFFCURVE",
"994 767 OFFCURVE",
"994 767 CURVE",
"988 766 OFFCURVE",
"977 765 OFFCURVE",
"962 765 CURVE SMOOTH",
"895 765 OFFCURVE",
"748 778 OFFCURVE",
"650 787 CURVE",
"694 868 OFFCURVE",
"719 889 OFFCURVE",
"809 909 CURVE",
"806 917 LINE",
"785 913 OFFCURVE",
"719 897 OFFCURVE",
"683 871 CURVE SMOOTH",
"643 844 OFFCURVE",
"611 820 OFFCURVE",
"584 792 CURVE",
"572 793 OFFCURVE",
"559 793 OFFCURVE",
"546 793 CURVE SMOOTH",
"533 793 OFFCURVE",
"521 793 OFFCURVE",
"508 792 CURVE",
"538 893 OFFCURVE",
"554 969 OFFCURVE",
"550 998 CURVE SMOOTH",
"549 1003 OFFCURVE",
"546 1005 OFFCURVE",
"542 1005 CURVE SMOOTH",
"538 1005 OFFCURVE",
"534 1002 OFFCURVE",
"534 997 CURVE SMOOTH",
"534 996 LINE SMOOTH",
"538 975 OFFCURVE",
"518 897 OFFCURVE",
"483 790 CURVE",
"400 782 OFFCURVE",
"320 761 OFFCURVE",
"262 723 CURVE SMOOTH",
"185 674 OFFCURVE",
"128 604 OFFCURVE",
"128 523 CURVE SMOOTH",
"128 495 OFFCURVE",
"134 466 OFFCURVE",
"149 436 CURVE SMOOTH",
"152 428 OFFCURVE",
"157 421 OFFCURVE",
"168 421 CURVE SMOOTH",
"169 421 OFFCURVE",
"172 422 OFFCURVE",
"174 422 CURVE",
"288 459 LINE",
"286 467 LINE",
"275 464 OFFCURVE",
"264 461 OFFCURVE",
"254 461 CURVE SMOOTH",
"243 461 OFFCURVE",
"232 465 OFFCURVE",
"222 475 CURVE SMOOTH",
"211 485 OFFCURVE",
"200 512 OFFCURVE",
"195 539 CURVE SMOOTH",
"193 550 OFFCURVE",
"192 560 OFFCURVE",
"192 570 CURVE SMOOTH",
"192 629 OFFCURVE",
"225 675 OFFCURVE",
"271 708 CURVE SMOOTH",
"315 738 OFFCURVE",
"369 746 OFFCURVE",
"427 746 CURVE SMOOTH",
"441 746 OFFCURVE",
"455 746 OFFCURVE",
"469 745 CURVE",
"450 687 OFFCURVE",
"428 622 OFFCURVE",
"403 555 CURVE",
"401 557 LINE",
"327 514 LINE",
"345 494 OFFCURVE",
"356 480 OFFCURVE",
"366 463 CURVE SMOOTH",
"368 459 LINE",
"360 439 OFFCURVE",
"353 419 OFFCURVE",
"345 399 CURVE",
"272 357 LINE",
"289 339 OFFCURVE",
"300 325 OFFCURVE",
"309 309 CURVE",
"277 228 OFFCURVE",
"244 149 OFFCURVE",
"211 76 CURVE",
"171 76 OFFCURVE",
"139 74 OFFCURVE",
"120 70 CURVE SMOOTH",
"59 57 OFFCURVE",
"-11 -26 OFFCURVE",
"-40 -47 CURVE",
"-35 -56 LINE",
"30 -7 OFFCURVE",
"83 5 OFFCURVE",
"144 5 CURVE SMOOTH",
"155 5 OFFCURVE",
"166 5 OFFCURVE",
"178 4 CURVE",
"142 -70 OFFCURVE",
"108 -134 OFFCURVE",
"78 -180 CURVE SMOOTH",
"74 -186 OFFCURVE",
"79 -192 OFFCURVE",
"85 -192 CURVE SMOOTH"
);
},
{
closed = 1;
nodes = (
"263 141 OFFCURVE",
"293 211 OFFCURVE",
"323 283 CURVE",
"325 279 LINE",
"398 322 LINE",
"394 332 OFFCURVE",
"389 340 OFFCURVE",
"384 350 CURVE SMOOTH",
"377 361 OFFCURVE",
"371 371 OFFCURVE",
"363 381 CURVE",
"386 440 LINE",
"452 478 LINE",
"424 388 OFFCURVE",
"393 294 OFFCURVE",
"350 196 CURVE SMOOTH",
"324 137 OFFCURVE",
"302 109 OFFCURVE",
"256 76 CURVE",
"232 76 LINE"
);
},
{
closed = 1;
nodes = (
"448 489 OFFCURVE",
"444 497 OFFCURVE",
"438 507 CURVE SMOOTH",
"433 516 OFFCURVE",
"427 525 OFFCURVE",
"421 533 CURVE",
"448 608 OFFCURVE",
"473 679 OFFCURVE",
"493 743 CURVE",
"510 742 OFFCURVE",
"527 740 OFFCURVE",
"544 739 CURVE",
"535 723 OFFCURVE",
"527 706 OFFCURVE",
"520 686 CURVE SMOOTH",
"496 619 OFFCURVE",
"475 551 OFFCURVE",
"453 479 CURVE"
);
},
{
closed = 1;
nodes = (
"897 821 OFFCURVE",
"899 831 OFFCURVE",
"903 842 CURVE SMOOTH",
"917 881 LINE SMOOTH",
"923 900 OFFCURVE",
"930 919 OFFCURVE",
"932 934 CURVE SMOOTH",
"934 951 OFFCURVE",
"926 955 OFFCURVE",
"910 955 CURVE SMOOTH",
"866 957 OFFCURVE",
"832 953 OFFCURVE",
"773 927 CURVE",
"776 918 LINE",
"794 925 OFFCURVE",
"811 928 OFFCURVE",
"826 928 CURVE SMOOTH",
"868 928 OFFCURVE",
"892 902 OFFCURVE",
"892 860 CURVE SMOOTH",
"892 848 OFFCURVE",
"890 835 OFFCURVE",
"886 821 CURVE",
"898 810 LINE"
);
},
{
closed = 1;
nodes = (
"812 986 LINE SMOOTH",
"855 987 OFFCURVE",
"937 1017 OFFCURVE",
"976 1048 CURVE SMOOTH",
"982 1053 OFFCURVE",
"956 1067 OFFCURVE",
"928 1067 CURVE SMOOTH",
"923 1067 OFFCURVE",
"918 1066 OFFCURVE",
"913 1065 CURVE SMOOTH",
"894 1060 OFFCURVE",
"851 1015 OFFCURVE",
"802 999 CURVE SMOOTH",
"795 997 OFFCURVE",
"793 995 OFFCURVE",
"793 993 CURVE SMOOTH",
"793 989 OFFCURVE",
"802 986 OFFCURVE",
"810 986 CURVE SMOOTH"
);
}
);
width = 952;
}
);
note = Eacute;
},
{
color = 11;
glyphname = Ecircumflex.ss01;
lastChange = "2021-10-14 18:20:22 +0000";
layers = (
{
layerId = "C36B7B90-196F-45C3-8412-B02CF16DA361";
paths = (
{
closed = 1;
nodes = (
"87 -192 OFFCURVE",
"89 -191 OFFCURVE",
"91 -188 CURVE SMOOTH",
"124 -139 OFFCURVE",
"160 -72 OFFCURVE",
"197 3 CURVE",
"226 2 OFFCURVE",
"258 -1 OFFCURVE",
"294 -2 CURVE SMOOTH",
"312 -3 OFFCURVE",
"492 -9 OFFCURVE",
"631 -9 CURVE SMOOTH",
"712 -9 OFFCURVE",
"779 -7 OFFCURVE",
"790 0 CURVE SMOOTH",
"834 28 OFFCURVE",
"932 253 OFFCURVE",
"945 280 CURVE",
"936 287 LINE",
"861 133 OFFCURVE",
"802 71 OFFCURVE",
"711 66 CURVE SMOOTH",
"698 65 OFFCURVE",
"684 65 OFFCURVE",
"667 65 CURVE SMOOTH",
"566 65 OFFCURVE",
"399 74 OFFCURVE",
"273 76 CURVE",
"300 97 OFFCURVE",
"336 121 OFFCURVE",
"347 122 CURVE SMOOTH",
"392 125 OFFCURVE",
"435 172 OFFCURVE",
"449 216 CURVE SMOOTH",
"463 259 OFFCURVE",
"478 307 OFFCURVE",
"495 358 CURVE",
"507 369 LINE SMOOTH",
"532 392 OFFCURVE",
"555 398 OFFCURVE",
"585 398 CURVE SMOOTH",
"595 398 OFFCURVE",
"606 397 OFFCURVE",
"618 396 CURVE SMOOTH",
"648 393 OFFCURVE",
"696 379 OFFCURVE",
"735 379 CURVE SMOOTH",
"751 379 OFFCURVE",
"766 381 OFFCURVE",
"777 389 CURVE SMOOTH",
"889 466 LINE",
"881 484 LINE",
"857 464 OFFCURVE",
"825 457 OFFCURVE",
"775 457 CURVE SMOOTH",
"752 457 OFFCURVE",
"725 458 OFFCURVE",
"693 461 CURVE SMOOTH",
"679 462 OFFCURVE",
"665 463 OFFCURVE",
"651 463 CURVE SMOOTH",
"611 463 OFFCURVE",
"572 456 OFFCURVE",
"545 430 CURVE SMOOTH",
"526 413 OFFCURVE",
"515 403 OFFCURVE",
"507 395 CURVE",
"547 522 OFFCURVE",
"591 654 OFFCURVE",
"623 730 CURVE",
"690 721 OFFCURVE",
"811 698 OFFCURVE",
"879 698 CURVE SMOOTH",
"899 698 OFFCURVE",
"915 700 OFFCURVE",
"923 705 CURVE SMOOTH",
"1051 782 LINE SMOOTH",
"1058 786 OFFCURVE",
"1045 792 OFFCURVE",
"1045 792 CURVE",
"1027 780 OFFCURVE",
"994 767 OFFCURVE",
"994 767 CURVE",
"988 766 OFFCURVE",
"977 765 OFFCURVE",
"962 765 CURVE SMOOTH",
"894 765 OFFCURVE",
"748 778 OFFCURVE",
"650 787 CURVE",
"694 868 OFFCURVE",
"719 889 OFFCURVE",
"808 909 CURVE",
"806 917 LINE",
"785 913 OFFCURVE",
"719 897 OFFCURVE",
"682 871 CURVE SMOOTH",
"643 844 OFFCURVE",
"610 820 OFFCURVE",
"584 792 CURVE",
"571 793 OFFCURVE",
"558 793 OFFCURVE",
"546 793 CURVE SMOOTH",
"533 793 OFFCURVE",
"520 793 OFFCURVE",
"507 792 CURVE",
"534 881 OFFCURVE",
"550 950 OFFCURVE",
"550 985 CURVE SMOOTH",
"550 990 OFFCURVE",
"550 994 OFFCURVE",
"549 998 CURVE SMOOTH",
"549 1002 OFFCURVE",
"545 1004 OFFCURVE",
"541 1004 CURVE SMOOTH",
"538 1004 OFFCURVE",
"534 1002 OFFCURVE",
"534 998 CURVE SMOOTH",
"534 996 LINE SMOOTH",
"537 975 OFFCURVE",
"517 897 OFFCURVE",
"483 790 CURVE",
"400 782 OFFCURVE",
"320 761 OFFCURVE",
"261 723 CURVE SMOOTH",
"184 674 OFFCURVE",
"127 604 OFFCURVE",
"127 522 CURVE SMOOTH",
"127 495 OFFCURVE",
"134 466 OFFCURVE",
"148 436 CURVE SMOOTH",
"152 428 OFFCURVE",
"156 421 OFFCURVE",
"167 421 CURVE SMOOTH",
"169 421 OFFCURVE",
"171 422 OFFCURVE",
"174 422 CURVE",
"288 459 LINE",
"285 467 LINE",
"274 464 OFFCURVE",
"264 461 OFFCURVE",
"254 461 CURVE SMOOTH",
"243 461 OFFCURVE",
"232 465 OFFCURVE",
"222 475 CURVE SMOOTH",
"211 485 OFFCURVE",
"199 512 OFFCURVE",
"195 539 CURVE SMOOTH",
"193 550 OFFCURVE",
"192 561 OFFCURVE",
"192 571 CURVE SMOOTH",
"192 630 OFFCURVE",
"225 676 OFFCURVE",
"270 708 CURVE SMOOTH",
"314 738 OFFCURVE",
"369 746 OFFCURVE",
"427 746 CURVE SMOOTH",
"441 746 OFFCURVE",
"455 746 OFFCURVE",
"469 745 CURVE",
"450 687 OFFCURVE",
"427 622 OFFCURVE",
"403 555 CURVE",
"401 557 LINE",
"327 514 LINE",
"344 494 OFFCURVE",
"356 480 OFFCURVE",
"365 463 CURVE SMOOTH",
"367 459 LINE",
"360 439 OFFCURVE",
"352 419 OFFCURVE",
"344 399 CURVE",
"272 357 LINE",
"289 339 OFFCURVE",
"300 325 OFFCURVE",
"309 309 CURVE",
"277 228 OFFCURVE",
"243 149 OFFCURVE",
"211 76 CURVE",
"171 76 OFFCURVE",
"139 74 OFFCURVE",
"120 70 CURVE SMOOTH",
"59 57 OFFCURVE",
"-11 -26 OFFCURVE",
"-40 -47 CURVE",
"-35 -56 LINE",
"30 -7 OFFCURVE",
"83 5 OFFCURVE",
"144 5 CURVE SMOOTH",
"155 5 OFFCURVE",
"166 5 OFFCURVE",
"177 4 CURVE",
"142 -70 OFFCURVE",
"108 -134 OFFCURVE",
"78 -180 CURVE SMOOTH",
"74 -186 OFFCURVE",
"79 -192 OFFCURVE",
"84 -192 CURVE SMOOTH"
);
},
{
closed = 1;
nodes = (
"262 141 OFFCURVE",
"293 211 OFFCURVE",
"323 283 CURVE",
"324 279 LINE",
"398 322 LINE",
"394 332 OFFCURVE",
"389 340 OFFCURVE",
"384 350 CURVE SMOOTH",
"377 361 OFFCURVE",
"370 371 OFFCURVE",
"362 381 CURVE",
"370 401 OFFCURVE",
"378 420 OFFCURVE",
"385 440 CURVE",
"452 478 LINE",
"424 388 OFFCURVE",
"393 294 OFFCURVE",
"349 196 CURVE SMOOTH",
"323 137 OFFCURVE",
"301 109 OFFCURVE",
"256 76 CURVE",
"232 76 LINE"
);
},
{
closed = 1;
nodes = (
"448 489 OFFCURVE",
"443 497 OFFCURVE",
"438 507 CURVE SMOOTH",
"433 516 OFFCURVE",
"427 525 OFFCURVE",
"420 533 CURVE",
"448 608 OFFCURVE",
"472 679 OFFCURVE",
"493 743 CURVE",
"510 742 OFFCURVE",
"527 740 OFFCURVE",
"543 739 CURVE",
"535 723 OFFCURVE",
"527 706 OFFCURVE",
"520 686 CURVE SMOOTH",
"495 619 OFFCURVE",
"475 551 OFFCURVE",
"452 479 CURVE"
);
},
{
closed = 1;
nodes = (
"897 821 OFFCURVE",
"899 831 OFFCURVE",
"903 842 CURVE SMOOTH",
"906 854 OFFCURVE",
"911 867 OFFCURVE",
"916 881 CURVE SMOOTH",
"923 900 OFFCURVE",
"930 919 OFFCURVE",
"932 934 CURVE SMOOTH",
"934 951 OFFCURVE",
"926 955 OFFCURVE",
"910 955 CURVE SMOOTH",
"866 957 OFFCURVE",
"832 953 OFFCURVE",
"772 927 CURVE",
"775 918 LINE",
"794 925 OFFCURVE",
"811 928 OFFCURVE",
"825 928 CURVE SMOOTH",
"868 928 OFFCURVE",
"892 902 OFFCURVE",
"892 860 CURVE SMOOTH",
"892 848 OFFCURVE",
"890 835 OFFCURVE",
"886 821 CURVE",
"898 810 LINE"
);
},
{
closed = 1;
nodes = (
"716 974 OFFCURVE",
"734 980 OFFCURVE",
"741 984 CURVE SMOOTH",
"755 991 OFFCURVE",
"814 1033 OFFCURVE",
"845 1062 CURVE",
"848 1064 OFFCURVE",
"851 1064 OFFCURVE",
"852 1062 CURVE",
"871 1037 OFFCURVE",
"901 1000 OFFCURVE",
"930 986 CURVE SMOOTH",
"938 982 OFFCURVE",
"987 998 OFFCURVE",
"971 1008 CURVE SMOOTH",
"932 1034 OFFCURVE",
"895 1073 OFFCURVE",
"878 1105 CURVE SMOOTH",
"874 1112 OFFCURVE",
"868 1109 OFFCURVE",
"863 1104 CURVE SMOOTH",
"830 1073 OFFCURVE",
"760 1013 OFFCURVE",
"718 985 CURVE SMOOTH",
"710 980 OFFCURVE",
"707 977 OFFCURVE",
"707 975 CURVE SMOOTH",
"707 974 OFFCURVE",
"708 974 OFFCURVE",
"709 974 CURVE SMOOTH"
);
}
);
width = 952;
}
);
note = Ecircumflex;
},
{
color = 11;
glyphname = Edieresis.ss01;
lastChange = "2021-10-14 18:20:22 +0000";
layers = (
{
layerId = "C36B7B90-196F-45C3-8412-B02CF16DA361";
paths = (
{
closed = 1;
nodes = (
"87 -192 OFFCURVE",
"89 -191 OFFCURVE",
"91 -188 CURVE SMOOTH",
"124 -139 OFFCURVE",
"160 -72 OFFCURVE",
"197 3 CURVE",
"226 2 OFFCURVE",
"258 -1 OFFCURVE",
"294 -2 CURVE SMOOTH",
"312 -3 OFFCURVE",
"492 -9 OFFCURVE",
"631 -9 CURVE SMOOTH",
"712 -9 OFFCURVE",
"779 -7 OFFCURVE",
"790 0 CURVE SMOOTH",
"834 28 OFFCURVE",
"932 253 OFFCURVE",
"945 280 CURVE",
"936 287 LINE",
"861 133 OFFCURVE",
"802 71 OFFCURVE",
"711 66 CURVE SMOOTH",
"698 65 OFFCURVE",
"684 65 OFFCURVE",
"667 65 CURVE SMOOTH",
"566 65 OFFCURVE",
"399 74 OFFCURVE",
"273 76 CURVE",
"300 97 OFFCURVE",
"336 121 OFFCURVE",
"347 122 CURVE SMOOTH",
"392 125 OFFCURVE",
"435 172 OFFCURVE",
"449 216 CURVE SMOOTH",
"463 259 OFFCURVE",
"478 307 OFFCURVE",
"495 358 CURVE",
"507 369 LINE SMOOTH",
"532 392 OFFCURVE",
"555 398 OFFCURVE",
"585 398 CURVE SMOOTH",
"595 398 OFFCURVE",
"606 397 OFFCURVE",
"618 396 CURVE SMOOTH",
"648 393 OFFCURVE",
"696 379 OFFCURVE",
"735 379 CURVE SMOOTH",
"751 379 OFFCURVE",
"766 381 OFFCURVE",
"777 389 CURVE SMOOTH",
"889 466 LINE",
"881 484 LINE",
"857 464 OFFCURVE",
"825 457 OFFCURVE",
"775 457 CURVE SMOOTH",
"752 457 OFFCURVE",
"725 458 OFFCURVE",
"693 461 CURVE SMOOTH",
"679 462 OFFCURVE",
"665 463 OFFCURVE",
"651 463 CURVE SMOOTH",
"611 463 OFFCURVE",
"572 456 OFFCURVE",
"545 430 CURVE SMOOTH",
"526 413 OFFCURVE",
"515 403 OFFCURVE",
"507 395 CURVE",
"547 522 OFFCURVE",
"591 654 OFFCURVE",
"623 730 CURVE",
"690 721 OFFCURVE",
"811 698 OFFCURVE",
"879 698 CURVE SMOOTH",
"899 698 OFFCURVE",
"915 700 OFFCURVE",
"923 705 CURVE SMOOTH",
"1051 782 LINE SMOOTH",
"1058 786 OFFCURVE",
"1045 792 OFFCURVE",
"1045 792 CURVE",
"1027 780 OFFCURVE",
"994 767 OFFCURVE",
"994 767 CURVE",
"988 766 OFFCURVE",
"977 765 OFFCURVE",
"962 765 CURVE SMOOTH",
"894 765 OFFCURVE",
"748 778 OFFCURVE",
"650 787 CURVE",
"694 868 OFFCURVE",
"719 889 OFFCURVE",
"808 909 CURVE",
"806 917 LINE",
"785 913 OFFCURVE",
"719 897 OFFCURVE",
"682 871 CURVE SMOOTH",
"643 844 OFFCURVE",
"610 820 OFFCURVE",
"584 792 CURVE",
"571 793 OFFCURVE",
"558 793 OFFCURVE",
"546 793 CURVE SMOOTH",
"533 793 OFFCURVE",
"520 793 OFFCURVE",
"507 792 CURVE",
"534 881 OFFCURVE",
"550 950 OFFCURVE",
"550 985 CURVE SMOOTH",
"550 990 OFFCURVE",
"550 994 OFFCURVE",
"549 998 CURVE SMOOTH",
"549 1002 OFFCURVE",
"545 1004 OFFCURVE",
"541 1004 CURVE SMOOTH",
"538 1004 OFFCURVE",
"534 1002 OFFCURVE",
"534 998 CURVE SMOOTH",
"534 996 LINE SMOOTH",
"537 975 OFFCURVE",
"517 897 OFFCURVE",
"483 790 CURVE",
"400 782 OFFCURVE",
"320 761 OFFCURVE",
"261 723 CURVE SMOOTH",
"184 674 OFFCURVE",
"127 604 OFFCURVE",
"127 522 CURVE SMOOTH",
"127 495 OFFCURVE",
"134 466 OFFCURVE",
"148 436 CURVE SMOOTH",
"152 428 OFFCURVE",
"156 421 OFFCURVE",
"167 421 CURVE SMOOTH",
"169 421 OFFCURVE",
"171 422 OFFCURVE",
"174 422 CURVE",
"288 459 LINE",
"285 467 LINE",
"274 464 OFFCURVE",
"264 461 OFFCURVE",
"254 461 CURVE SMOOTH",
"243 461 OFFCURVE",
"232 465 OFFCURVE",
"222 475 CURVE SMOOTH",
"211 485 OFFCURVE",
"199 512 OFFCURVE",
"195 539 CURVE SMOOTH",
"193 550 OFFCURVE",
"192 561 OFFCURVE",
"192 571 CURVE SMOOTH",
"192 630 OFFCURVE",
"225 676 OFFCURVE",
"270 708 CURVE SMOOTH",
"314 738 OFFCURVE",
"369 746 OFFCURVE",
"427 746 CURVE SMOOTH",
"441 746 OFFCURVE",
"455 746 OFFCURVE",
"469 745 CURVE",
"450 687 OFFCURVE",
"427 622 OFFCURVE",
"403 555 CURVE",
"401 557 LINE",
"327 514 LINE",
"344 494 OFFCURVE",
"356 480 OFFCURVE",
"365 463 CURVE SMOOTH",
"367 459 LINE",
"360 439 OFFCURVE",
"352 419 OFFCURVE",
"344 399 CURVE",
"272 357 LINE",
"289 339 OFFCURVE",
"300 325 OFFCURVE",
"309 309 CURVE",
"277 228 OFFCURVE",
"243 149 OFFCURVE",
"211 76 CURVE",
"171 76 OFFCURVE",
"139 74 OFFCURVE",
"120 70 CURVE SMOOTH",
"59 57 OFFCURVE",
"-11 -26 OFFCURVE",
"-40 -47 CURVE",
"-35 -56 LINE",
"30 -7 OFFCURVE",
"83 5 OFFCURVE",
"144 5 CURVE SMOOTH",
"155 5 OFFCURVE",
"166 5 OFFCURVE",
"177 4 CURVE",
"142 -70 OFFCURVE",
"108 -134 OFFCURVE",
"78 -180 CURVE SMOOTH",
"74 -186 OFFCURVE",
"79 -192 OFFCURVE",
"84 -192 CURVE SMOOTH"
);
},
{
closed = 1;
nodes = (
"262 141 OFFCURVE",
"293 211 OFFCURVE",
"323 283 CURVE",
"324 279 LINE",
"398 322 LINE",
"394 332 OFFCURVE",
"389 340 OFFCURVE",
"384 350 CURVE SMOOTH",
"377 361 OFFCURVE",
"370 371 OFFCURVE",
"362 381 CURVE",
"370 401 OFFCURVE",
"378 420 OFFCURVE",
"385 440 CURVE",
"452 478 LINE",
"424 388 OFFCURVE",
"393 294 OFFCURVE",
"349 196 CURVE SMOOTH",
"323 137 OFFCURVE",
"301 109 OFFCURVE",
"256 76 CURVE",
"232 76 LINE"
);
},
{
closed = 1;
nodes = (
"448 489 OFFCURVE",
"443 497 OFFCURVE",
"438 507 CURVE SMOOTH",
"433 516 OFFCURVE",
"427 525 OFFCURVE",
"420 533 CURVE",
"448 608 OFFCURVE",
"472 679 OFFCURVE",
"493 743 CURVE",
"510 742 OFFCURVE",
"527 740 OFFCURVE",
"543 739 CURVE",
"535 723 OFFCURVE",
"527 706 OFFCURVE",
"520 686 CURVE SMOOTH",
"495 619 OFFCURVE",
"475 551 OFFCURVE",
"452 479 CURVE"
);
},
{
closed = 1;
nodes = (
"897 821 OFFCURVE",
"899 831 OFFCURVE",
"903 842 CURVE SMOOTH",
"906 854 OFFCURVE",
"911 867 OFFCURVE",
"916 881 CURVE SMOOTH",
"923 900 OFFCURVE",
"930 919 OFFCURVE",
"932 934 CURVE SMOOTH",
"934 951 OFFCURVE",
"926 955 OFFCURVE",
"910 955 CURVE SMOOTH",
"866 957 OFFCURVE",
"832 953 OFFCURVE",
"772 927 CURVE",
"775 918 LINE",
"794 925 OFFCURVE",
"811 928 OFFCURVE",
"825 928 CURVE SMOOTH",
"868 928 OFFCURVE",
"892 902 OFFCURVE",
"892 860 CURVE SMOOTH",
"892 848 OFFCURVE",
"890 835 OFFCURVE",
"886 821 CURVE",
"898 810 LINE"
);
},
{
closed = 1;
nodes = (
"790 987 OFFCURVE",
"796 988 OFFCURVE",
"801 990 CURVE SMOOTH",
"812 996 OFFCURVE",
"836 1034 OFFCURVE",
"842 1049 CURVE SMOOTH",
"844 1055 OFFCURVE",
"844 1058 OFFCURVE",
"840 1055 CURVE SMOOTH",
"836 1051 OFFCURVE",
"829 1050 OFFCURVE",
"818 1050 CURVE SMOOTH",
"807 1050 OFFCURVE",
"797 1053 OFFCURVE",
"783 1053 CURVE SMOOTH",
"762 1053 OFFCURVE",
"745 1031 OFFCURVE",
"731 1003 CURVE SMOOTH",
"726 992 OFFCURVE",
"732 988 OFFCURVE",
"745 988 CURVE SMOOTH",
"753 988 LINE SMOOTH",
"764 989 OFFCURVE",
"775 987 OFFCURVE",
"785 987 CURVE SMOOTH"
);
},
{
closed = 1;
nodes = (
"938 987 OFFCURVE",
"944 988 OFFCURVE",
"949 990 CURVE SMOOTH",
"960 996 OFFCURVE",
"985 1034 OFFCURVE",
"991 1049 CURVE",
"992 1055 OFFCURVE",
"992 1058 OFFCURVE",
"988 1055 CURVE SMOOTH",
"984 1051 OFFCURVE",
"977 1050 OFFCURVE",
"967 1050 CURVE SMOOTH",
"956 1050 OFFCURVE",
"945 1053 OFFCURVE",
"932 1053 CURVE SMOOTH",
"910 1053 OFFCURVE",
"893 1031 OFFCURVE",
"879 1003 CURVE",
"875 992 OFFCURVE",
"880 988 OFFCURVE",
"893 988 CURVE SMOOTH",
"901 988 LINE SMOOTH",
"912 989 OFFCURVE",
"923 987 OFFCURVE",
"933 987 CURVE SMOOTH"
);
}
);
width = 952;
}
);
note = Edieresis;
},
{
color = 11;
glyphname = Egrave.ss01;
lastChange = "2021-10-14 18:20:22 +0000";
layers = (
{
layerId = "C36B7B90-196F-45C3-8412-B02CF16DA361";
paths = (
{
closed = 1;
nodes = (
"87 -192 OFFCURVE",
"89 -191 OFFCURVE",
"91 -188 CURVE SMOOTH",
"124 -139 OFFCURVE",
"160 -72 OFFCURVE",
"197 3 CURVE",
"226 2 OFFCURVE",
"258 -1 OFFCURVE",
"294 -2 CURVE SMOOTH",
"312 -3 OFFCURVE",
"492 -9 OFFCURVE",
"631 -9 CURVE SMOOTH",
"712 -9 OFFCURVE",
"779 -7 OFFCURVE",
"790 0 CURVE SMOOTH",
"834 28 OFFCURVE",
"932 253 OFFCURVE",
"945 280 CURVE",
"936 287 LINE",
"861 133 OFFCURVE",
"802 71 OFFCURVE",
"711 66 CURVE SMOOTH",
"698 65 OFFCURVE",
"684 65 OFFCURVE",
"667 65 CURVE SMOOTH",
"566 65 OFFCURVE",
"399 74 OFFCURVE",
"273 76 CURVE",
"300 97 OFFCURVE",
"336 121 OFFCURVE",
"347 122 CURVE SMOOTH",
"392 125 OFFCURVE",
"435 172 OFFCURVE",
"449 216 CURVE SMOOTH",
"463 259 OFFCURVE",
"478 307 OFFCURVE",
"495 358 CURVE",
"507 369 LINE SMOOTH",
"532 392 OFFCURVE",
"555 398 OFFCURVE",
"585 398 CURVE SMOOTH",
"595 398 OFFCURVE",
"606 397 OFFCURVE",
"618 396 CURVE SMOOTH",
"648 393 OFFCURVE",
"696 379 OFFCURVE",
"735 379 CURVE SMOOTH",
"751 379 OFFCURVE",
"766 381 OFFCURVE",
"777 389 CURVE SMOOTH",
"889 466 LINE",
"881 484 LINE",
"857 464 OFFCURVE",
"825 457 OFFCURVE",
"775 457 CURVE SMOOTH",
"752 457 OFFCURVE",
"725 458 OFFCURVE",
"693 461 CURVE SMOOTH",
"679 462 OFFCURVE",
"665 463 OFFCURVE",
"651 463 CURVE SMOOTH",
"611 463 OFFCURVE",
"572 456 OFFCURVE",
"545 430 CURVE SMOOTH",
"526 413 OFFCURVE",
"515 403 OFFCURVE",
"507 395 CURVE",
"547 522 OFFCURVE",
"591 654 OFFCURVE",
"623 730 CURVE",
"690 721 OFFCURVE",
"811 698 OFFCURVE",
"879 698 CURVE SMOOTH",
"899 698 OFFCURVE",
"915 700 OFFCURVE",
"923 705 CURVE SMOOTH",
"1051 782 LINE SMOOTH",
"1058 786 OFFCURVE",
"1045 792 OFFCURVE",
"1045 792 CURVE",
"1027 780 OFFCURVE",
"994 767 OFFCURVE",
"994 767 CURVE",
"988 766 OFFCURVE",
"977 765 OFFCURVE",
"962 765 CURVE SMOOTH",
"894 765 OFFCURVE",
"748 778 OFFCURVE",
"650 787 CURVE",
"694 868 OFFCURVE",
"719 889 OFFCURVE",
"808 909 CURVE",
"806 917 LINE",
"785 913 OFFCURVE",
"719 897 OFFCURVE",
"682 871 CURVE SMOOTH",
"643 844 OFFCURVE",
"610 820 OFFCURVE",
"584 792 CURVE",
"571 793 OFFCURVE",
"558 793 OFFCURVE",
"546 793 CURVE SMOOTH",
"533 793 OFFCURVE",
"520 793 OFFCURVE",
"507 792 CURVE",
"534 881 OFFCURVE",
"550 950 OFFCURVE",
"550 985 CURVE SMOOTH",
"550 990 OFFCURVE",
"550 994 OFFCURVE",
"549 998 CURVE SMOOTH",
"549 1002 OFFCURVE",
"545 1004 OFFCURVE",
"541 1004 CURVE SMOOTH",
"538 1004 OFFCURVE",
"534 1002 OFFCURVE",
"534 998 CURVE SMOOTH",
"534 996 LINE SMOOTH",
"537 975 OFFCURVE",
"517 897 OFFCURVE",
"483 790 CURVE",
"400 782 OFFCURVE",
"320 761 OFFCURVE",
"261 723 CURVE SMOOTH",
"184 674 OFFCURVE",
"127 604 OFFCURVE",
"127 522 CURVE SMOOTH",
"127 495 OFFCURVE",
"134 466 OFFCURVE",
"148 436 CURVE SMOOTH",
"152 428 OFFCURVE",
"156 421 OFFCURVE",
"167 421 CURVE SMOOTH",
"169 421 OFFCURVE",
"171 422 OFFCURVE",
"174 422 CURVE",
"288 459 LINE",
"285 467 LINE",
"274 464 OFFCURVE",
"264 461 OFFCURVE",
"254 461 CURVE SMOOTH",
"243 461 OFFCURVE",
"232 465 OFFCURVE",
"222 475 CURVE SMOOTH",
"211 485 OFFCURVE",
"199 512 OFFCURVE",
"195 539 CURVE SMOOTH",
"193 550 OFFCURVE",
"192 561 OFFCURVE",
"192 571 CURVE SMOOTH",
"192 630 OFFCURVE",
"225 676 OFFCURVE",
"270 708 CURVE SMOOTH",
"314 738 OFFCURVE",
"369 746 OFFCURVE",
"427 746 CURVE SMOOTH",
"441 746 OFFCURVE",
"455 746 OFFCURVE",
"469 745 CURVE",
"450 687 OFFCURVE",
"427 622 OFFCURVE",
"403 555 CURVE",
"401 557 LINE",
"327 514 LINE",
"344 494 OFFCURVE",
"356 480 OFFCURVE",
"365 463 CURVE SMOOTH",
"367 459 LINE",
"360 439 OFFCURVE",
"352 419 OFFCURVE",
"344 399 CURVE",
"272 357 LINE",
"289 339 OFFCURVE",
"300 325 OFFCURVE",
"309 309 CURVE",
"277 228 OFFCURVE",
"243 149 OFFCURVE",
"211 76 CURVE",
"171 76 OFFCURVE",
"139 74 OFFCURVE",
"120 70 CURVE SMOOTH",
"59 57 OFFCURVE",
"-11 -26 OFFCURVE",
"-40 -47 CURVE",
"-35 -56 LINE",
"30 -7 OFFCURVE",
"83 5 OFFCURVE",
"144 5 CURVE SMOOTH",
"155 5 OFFCURVE",
"166 5 OFFCURVE",
"177 4 CURVE",
"142 -70 OFFCURVE",
"108 -134 OFFCURVE",
"78 -180 CURVE SMOOTH",
"74 -186 OFFCURVE",
"79 -192 OFFCURVE",
"84 -192 CURVE SMOOTH"
);
},
{
closed = 1;
nodes = (
"262 141 OFFCURVE",
"293 211 OFFCURVE",
"323 283 CURVE",
"324 279 LINE",
"398 322 LINE",
"394 332 OFFCURVE",
"389 340 OFFCURVE",
"384 350 CURVE SMOOTH",
"377 361 OFFCURVE",
"370 371 OFFCURVE",
"362 381 CURVE",
"370 401 OFFCURVE",
"378 420 OFFCURVE",
"385 440 CURVE",
"452 478 LINE",
"424 388 OFFCURVE",
"393 294 OFFCURVE",
"349 196 CURVE SMOOTH",
"323 137 OFFCURVE",
"301 109 OFFCURVE",
"256 76 CURVE",
"232 76 LINE"
);
},
{
closed = 1;
nodes = (
"448 489 OFFCURVE",
"443 497 OFFCURVE",
"438 507 CURVE SMOOTH",
"433 516 OFFCURVE",
"427 525 OFFCURVE",
"420 533 CURVE",
"448 608 OFFCURVE",
"472 679 OFFCURVE",
"493 743 CURVE",
"510 742 OFFCURVE",
"527 740 OFFCURVE",
"543 739 CURVE",
"535 723 OFFCURVE",
"527 706 OFFCURVE",
"520 686 CURVE SMOOTH",
"495 619 OFFCURVE",
"475 551 OFFCURVE",
"452 479 CURVE"
);
},
{
closed = 1;
nodes = (
"897 821 OFFCURVE",
"899 831 OFFCURVE",
"903 842 CURVE SMOOTH",
"906 854 OFFCURVE",
"911 867 OFFCURVE",
"916 881 CURVE SMOOTH",
"923 900 OFFCURVE",
"930 919 OFFCURVE",
"932 934 CURVE SMOOTH",
"934 951 OFFCURVE",
"926 955 OFFCURVE",
"910 955 CURVE SMOOTH",
"866 957 OFFCURVE",
"832 953 OFFCURVE",
"772 927 CURVE",
"775 918 LINE",
"794 925 OFFCURVE",
"811 928 OFFCURVE",
"825 928 CURVE SMOOTH",
"868 928 OFFCURVE",
"892 902 OFFCURVE",
"892 860 CURVE SMOOTH",
"892 848 OFFCURVE",
"890 835 OFFCURVE",
"886 821 CURVE",
"898 810 LINE"
);
},
{
closed = 1;
nodes = (
"916 995 OFFCURVE",
"925 998 OFFCURVE",
"925 1002 CURVE SMOOTH",
"925 1004 OFFCURVE",
"923 1006 OFFCURVE",
"916 1008 CURVE SMOOTH",
"867 1024 OFFCURVE",
"824 1069 OFFCURVE",
"805 1073 CURVE SMOOTH",
"799 1074 OFFCURVE",
"794 1075 OFFCURVE",
"788 1075 CURVE SMOOTH",
"761 1075 OFFCURVE",
"736 1062 OFFCURVE",
"742 1057 CURVE SMOOTH",
"782 1025 OFFCURVE",
"866 995 OFFCURVE",
"909 995 CURVE SMOOTH"
);
}
);
width = 952;
}
);
note = Egrave;
},
{
color = 5;
glyphname = F.ss01;
lastChange = "2021-10-14 18:20:22 +0000";
layers = (
{
layerId = "C36B7B90-196F-45C3-8412-B02CF16DA361";
paths = (
{
closed = 1;
nodes = (
"284 -195 OFFCURVE",
"287 -194 OFFCURVE",
"288 -191 CURVE",
"311 -157 OFFCURVE",
"335 -116 OFFCURVE",
"359 -69 CURVE",
"386 -60 OFFCURVE",
"507 -9 OFFCURVE",
"531 9 CURVE",
"522 17 LINE",
"496 -4 OFFCURVE",
"440 -22 OFFCURVE",
"427 -25 CURVE SMOOTH",
"411 -29 OFFCURVE",
"395 -32 OFFCURVE",
"378 -32 CURVE",
"434 76 OFFCURVE",
"492 208 OFFCURVE",
"545 341 CURVE",
"573 340 OFFCURVE",
"601 338 OFFCURVE",
"626 337 CURVE",
"605 276 OFFCURVE",
"580 210 OFFCURVE",
"552 145 CURVE SMOOTH",
"521 75 OFFCURVE",
"496 49 OFFCURVE",
"431 7 CURVE",
"438 -3 LINE",
"438 -3 OFFCURVE",
"529 70 OFFCURVE",
"549 71 CURVE SMOOTH",
"594 75 OFFCURVE",
"638 121 OFFCURVE",
"651 165 CURVE SMOOTH",
"703 332 LINE",
"722 331 LINE SMOOTH",
"765 328 OFFCURVE",
"801 336 OFFCURVE",
"835 364 CURVE SMOOTH",
"920 434 LINE",
"913 442 LINE",
"881 416 OFFCURVE",
"839 397 OFFCURVE",
"759 397 CURVE SMOOTH",
"749 397 OFFCURVE",
"737 397 OFFCURVE",
"725 398 CURVE SMOOTH",
"723 398 LINE",
"757 504 OFFCURVE",
"785 588 OFFCURVE",
"794 605 CURVE SMOOTH",
"843 698 OFFCURVE",
"889 713 OFFCURVE",
"971 741 CURVE",
"969 749 LINE",
"947 742 OFFCURVE",
"884 725 OFFCURVE",
"845 704 CURVE SMOOTH",
"777 667 OFFCURVE",
"729 650 OFFCURVE",
"696 559 CURVE SMOOTH",
"688 537 OFFCURVE",
"671 477 OFFCURVE",
"647 400 CURVE",
"569 402 LINE",
"613 513 OFFCURVE",
"652 623 OFFCURVE",
"682 718 CURVE",
"717 713 OFFCURVE",
"751 710 OFFCURVE",
"777 710 CURVE SMOOTH",
"798 710 OFFCURVE",
"813 712 OFFCURVE",
"821 717 CURVE SMOOTH",
"950 794 LINE SMOOTH",
"957 798 OFFCURVE",
"944 803 OFFCURVE",
"944 803 CURVE",
"926 791 OFFCURVE",
"892 778 OFFCURVE",
"892 778 CURVE",
"886 777 OFFCURVE",
"876 776 OFFCURVE",
"862 776 CURVE SMOOTH",
"825 776 OFFCURVE",
"765 780 OFFCURVE",
"703 785 CURVE",
"728 871 OFFCURVE",
"744 939 OFFCURVE",
"744 973 CURVE SMOOTH",
"744 978 OFFCURVE",
"744 982 OFFCURVE",
"743 986 CURVE SMOOTH",
"742 992 OFFCURVE",
"737 998 OFFCURVE",
"734 998 CURVE SMOOTH",
"733 998 OFFCURVE",
"732 997 OFFCURVE",
"732 995 CURVE SMOOTH",
"732 993 LINE SMOOTH",
"735 973 OFFCURVE",
"715 895 OFFCURVE",
"681 787 CURVE",
"521 801 LINE SMOOTH",
"499 803 OFFCURVE",
"476 804 OFFCURVE",
"452 804 CURVE SMOOTH",
"345 804 OFFCURVE",
"235 782 OFFCURVE",
"160 734 CURVE SMOOTH",
"83 685 OFFCURVE",
"26 615 OFFCURVE",
"26 534 CURVE SMOOTH",
"26 507 OFFCURVE",
"32 478 OFFCURVE",
"47 448 CURVE",
"50 439 OFFCURVE",
"55 432 OFFCURVE",
"66 432 CURVE SMOOTH",
"68 432 OFFCURVE",
"70 433 OFFCURVE",
"72 433 CURVE",
"72 433 OFFCURVE",
"157 461 OFFCURVE",
"186 470 CURVE",
"184 479 LINE",
"173 476 OFFCURVE",
"162 473 OFFCURVE",
"152 473 CURVE SMOOTH",
"141 473 OFFCURVE",
"130 476 OFFCURVE",
"120 486 CURVE SMOOTH",
"110 497 OFFCURVE",
"98 523 OFFCURVE",
"93 550 CURVE SMOOTH",
"91 561 OFFCURVE",
"90 571 OFFCURVE",
"90 581 CURVE SMOOTH",
"90 641 OFFCURVE",
"123 687 OFFCURVE",
"169 719 CURVE SMOOTH",
"212 749 OFFCURVE",
"265 758 OFFCURVE",
"322 758 CURVE SMOOTH",
"377 758 OFFCURVE",
"435 749 OFFCURVE",
"489 745 CURVE SMOOTH",
"519 743 OFFCURVE",
"590 730 OFFCURVE",
"659 721 CURVE",
"627 625 OFFCURVE",
"588 514 OFFCURVE",
"544 402 CURVE",
"485 403 OFFCURVE",
"433 405 OFFCURVE",
"429 405 CURVE SMOOTH",
"383 407 OFFCURVE",
"338 401 OFFCURVE",
"307 373 CURVE SMOOTH",
"253 323 OFFCURVE",
"265 324 OFFCURVE",
"236 291 CURVE",
"243 279 LINE",
"270 311 LINE SMOOTH",
"299 346 OFFCURVE",
"345 347 OFFCURVE",
"391 347 CURVE SMOOTH",
"420 347 OFFCURVE",
"469 345 OFFCURVE",
"521 342 CURVE",
"468 207 OFFCURVE",
"411 74 OFFCURVE",
"359 -33 CURVE",
"227 -30 OFFCURVE",
"98 67 OFFCURVE",
"98 177 CURVE SMOOTH",
"98 236 OFFCURVE",
"136 300 OFFCURVE",
"233 354 CURVE",
"227 363 LINE",
"166 324 OFFCURVE",
"74 291 OFFCURVE",
"49 226 CURVE SMOOTH",
"40 203 OFFCURVE",
"36 176 OFFCURVE",
"36 149 CURVE SMOOTH",
"36 112 OFFCURVE",
"44 76 OFFCURVE",
"60 48 CURVE SMOOTH",
"103 -27 OFFCURVE",
"164 -52 OFFCURVE",
"253 -67 CURVE SMOOTH",
"274 -70 OFFCURVE",
"312 -74 OFFCURVE",
"338 -73 CURVE",
"316 -116 OFFCURVE",
"295 -153 OFFCURVE",
"276 -182 CURVE SMOOTH",
"272 -188 OFFCURVE",
"277 -195 OFFCURVE",
"282 -195 CURVE SMOOTH"
);
}
);
width = 903;
}
);
note = F;
},
{
color = 5;
glyphname = G.ss01;
lastChange = "2021-10-14 18:20:22 +0000";
layers = (
{
layerId = "C36B7B90-196F-45C3-8412-B02CF16DA361";
paths = (
{
closed = 1;
nodes = (
"9 -151 OFFCURVE",
"11 -150 OFFCURVE",
"13 -147 CURVE SMOOTH",
"51 -89 OFFCURVE",
"94 -9 OFFCURVE",
"138 82 CURVE",
"218 14 OFFCURVE",
"330 -25 OFFCURVE",
"429 -25 CURVE SMOOTH",
"453 -25 OFFCURVE",
"477 -23 OFFCURVE",
"499 -18 CURVE SMOOTH",
"565 -4 OFFCURVE",
"616 10 OFFCURVE",
"666 39 CURVE SMOOTH",
"733 78 LINE",
"752 91 LINE",
"747 98 LINE",
"709 74 LINE SMOOTH",
"652 38 OFFCURVE",
"582 21 OFFCURVE",
"511 21 CURVE SMOOTH",
"387 21 OFFCURVE",
"257 72 OFFCURVE",
"176 164 CURVE",
"196 208 OFFCURVE",
"216 254 OFFCURVE",
"235 300 CURVE",
"235 296 LINE",
"280 321 OFFCURVE",
"322 345 OFFCURVE",
"366 369 CURVE SMOOTH",
"426 401 OFFCURVE",
"471 479 OFFCURVE",
"512 618 CURVE SMOOTH",
"541 719 OFFCURVE",
"552 753 OFFCURVE",
"634 753 CURVE SMOOTH",
"653 753 OFFCURVE",
"676 751 OFFCURVE",
"704 748 CURVE SMOOTH",
"739 744 OFFCURVE",
"795 729 OFFCURVE",
"840 729 CURVE SMOOTH",
"859 729 OFFCURVE",
"876 732 OFFCURVE",
"889 739 CURVE SMOOTH",
"969 785 LINE",
"1011 808 LINE",
"1008 814 LINE",
"1003 812 OFFCURVE",
"972 795 OFFCURVE",
"967 794 CURVE SMOOTH",
"957 791 OFFCURVE",
"945 790 OFFCURVE",
"933 790 CURVE SMOOTH",
"887 790 OFFCURVE",
"832 805 OFFCURVE",
"797 809 CURVE SMOOTH",
"787 810 OFFCURVE",
"777 811 OFFCURVE",
"767 811 CURVE SMOOTH",
"684 811 OFFCURVE",
"601 776 OFFCURVE",
"540 743 CURVE",
"514 760 OFFCURVE",
"484 767 OFFCURVE",
"452 767 CURVE SMOOTH",
"438 767 OFFCURVE",
"422 766 OFFCURVE",
"407 763 CURVE",
"445 880 OFFCURVE",
"468 974 OFFCURVE",
"468 1017 CURVE SMOOTH",
"468 1032 OFFCURVE",
"465 1041 OFFCURVE",
"458 1041 CURVE SMOOTH",
"457 1041 OFFCURVE",
"456 1040 OFFCURVE",
"456 1038 CURVE SMOOTH",
"456 1037 LINE SMOOTH",
"460 1012 OFFCURVE",
"430 902 OFFCURVE",
"381 757 CURVE",
"310 739 OFFCURVE",
"238 698 OFFCURVE",
"189 664 CURVE SMOOTH",
"81 588 OFFCURVE",
"17 463 OFFCURVE",
"17 340 CURVE SMOOTH",
"17 285 OFFCURVE",
"30 231 OFFCURVE",
"56 182 CURVE SMOOTH",
"73 150 OFFCURVE",
"96 121 OFFCURVE",
"123 96 CURVE",
"79 -1 OFFCURVE",
"36 -84 OFFCURVE",
"0 -139 CURVE SMOOTH",
"-4 -145 OFFCURVE",
"1 -151 OFFCURVE",
"6 -151 CURVE SMOOTH"
);
},
{
closed = 1;
nodes = (
"150 197 OFFCURVE",
"140 213 OFFCURVE",
"131 230 CURVE SMOOTH",
"100 288 OFFCURVE",
"87 345 OFFCURVE",
"87 399 CURVE SMOOTH",
"87 569 OFFCURVE",
"219 704 OFFCURVE",
"367 716 CURVE",
"311 553 OFFCURVE",
"236 354 OFFCURVE",
"161 182 CURVE"
);
},
{
closed = 1;
nodes = (
"298 452 OFFCURVE",
"352 595 OFFCURVE",
"392 717 CURVE",
"421 717 OFFCURVE",
"450 712 OFFCURVE",
"479 701 CURVE",
"386 609 OFFCURVE",
"390 437 OFFCURVE",
"313 355 CURVE",
"296 341 OFFCURVE",
"267 326 OFFCURVE",
"241 315 CURVE"
);
},
{
closed = 1;
nodes = (
"631 52 OFFCURVE",
"642 59 OFFCURVE",
"653 65 CURVE SMOOTH",
"740 120 OFFCURVE",
"793 134 OFFCURVE",
"854 222 CURVE SMOOTH",
"879 260 OFFCURVE",
"902 316 OFFCURVE",
"914 363 CURVE SMOOTH",
"930 424 OFFCURVE",
"919 433 OFFCURVE",
"973 470 CURVE",
"970 475 LINE",
"945 464 OFFCURVE",
"906 443 OFFCURVE",
"880 439 CURVE SMOOTH",
"864 437 OFFCURVE",
"854 436 OFFCURVE",
"845 436 CURVE SMOOTH",
"831 436 OFFCURVE",
"820 438 OFFCURVE",
"792 444 CURVE SMOOTH",
"762 450 OFFCURVE",
"724 459 OFFCURVE",
"689 459 CURVE SMOOTH",
"665 459 OFFCURVE",
"641 454 OFFCURVE",
"622 441 CURVE SMOOTH",
"533 379 LINE",
"534 363 LINE",
"552 377 OFFCURVE",
"588 393 OFFCURVE",
"644 393 CURVE SMOOTH",
"672 393 OFFCURVE",
"706 389 OFFCURVE",
"746 377 CURVE SMOOTH",
"754 375 OFFCURVE",
"761 374 OFFCURVE",
"768 374 CURVE SMOOTH",
"806 374 OFFCURVE",
"834 398 OFFCURVE",
"834 398 CURVE",
"820 320 OFFCURVE",
"749 136 OFFCURVE",
"679 93 CURVE SMOOTH",
"616 54 LINE",
"619 46 LINE"
);
}
);
width = 942;
}
);
note = G;
},
